<svg width="27" height="29" viewBox="0 0 27 29" fill="none" xmlns="http://www.w3.org/2000/svg">
<path d="M13.7929 0.710938C12.351 0.710938 10.9415 1.1385 9.74265 1.93957C8.54377 2.74064 7.60936 3.87922 7.05757 5.21135C6.50579 6.54347 6.36142 8.00931 6.64272 9.42348C6.92401 10.8377 7.61834 12.1367 8.63791 13.1562C9.65747 14.1758 10.9565 14.8701 12.3707 15.1514C13.7848 15.4327 15.2507 15.2883 16.5828 14.7366C17.9149 14.1848 19.0535 13.2504 19.8546 12.0515C20.6556 10.8526 21.0832 9.4431 21.0832 8.00122C21.0832 6.06772 20.3151 4.2134 18.9479 2.84621C17.5807 1.47902 15.7264 0.710938 13.7929 0.710938ZM13.7929 12.3754C12.9278 12.3754 12.0821 12.1188 11.3628 11.6382C10.6434 11.1576 10.0828 10.4744 9.75171 9.67514C9.42064 8.87586 9.33402 7.99637 9.50279 7.14786C9.67157 6.29935 10.0882 5.51995 10.6999 4.90821C11.3116 4.29648 12.0911 3.87988 12.9396 3.7111C13.7881 3.54232 14.6676 3.62894 15.4668 3.96001C16.2661 4.29108 16.9493 4.85173 17.4299 5.57106C17.9105 6.29039 18.1671 7.13609 18.1671 8.00122C18.1671 9.16132 17.7062 10.2739 16.8859 11.0942C16.0656 11.9145 14.953 12.3754 13.7929 12.3754ZM26.9154 28.414V26.9559C26.9154 24.249 25.8401 21.653 23.926 19.7389C22.012 17.8249 19.4159 16.7496 16.709 16.7496H10.8768C8.1699 16.7496 5.57386 17.8249 3.65979 19.7389C1.74572 21.653 0.67041 24.249 0.67041 26.9559V28.414H3.58652V26.9559C3.58652 25.0224 4.3546 23.1681 5.7218 21.8009C7.08899 20.4337 8.9433 19.6657 10.8768 19.6657H16.709C18.6425 19.6657 20.4968 20.4337 21.864 21.8009C23.2312 23.1681 23.9993 25.0224 23.9993 26.9559V28.414H26.9154Z" fill="currentColor"/>
</svg>
