<svg width="16" height="16" viewBox="0 0 16 16" fill="none" xmlns="http://www.w3.org/2000/svg">
<g clip-path="url(#clip0_1904_2950)">
<path d="M5.99992 13.3335H3.99992C3.29267 13.3335 2.6144 13.0525 2.1143 12.5524C1.6142 12.0524 1.33325 11.3741 1.33325 10.6668V4.66683C1.33325 3.95959 1.6142 3.28131 2.1143 2.78121C2.6144 2.28111 3.29267 2.00016 3.99992 2.00016H11.3333C12.0405 2.00016 12.7188 2.28111 13.2189 2.78121C13.719 3.28131 13.9999 3.95959 13.9999 4.66683V6.66683M5.33325 1.3335V2.66683M9.99992 1.3335V2.66683M1.33325 5.3335H13.9999M12.3333 10.4288L11.3333 11.4288" stroke="#727272" stroke-linecap="round" stroke-linejoin="round"/>
<path d="M11.3333 14.6667C13.1743 14.6667 14.6667 13.1743 14.6667 11.3333C14.6667 9.49238 13.1743 8 11.3333 8C9.49238 8 8 9.49238 8 11.3333C8 13.1743 9.49238 14.6667 11.3333 14.6667Z" stroke="#727272" stroke-linecap="round" stroke-linejoin="round"/>
</g>
<defs>
<clipPath id="clip0_1904_2950">
<rect width="16" height="16" fill="white"/>
</clipPath>
</defs>
</svg>
