<svg width="24" height="24" viewBox="0 0 24 24" fill="none" xmlns="http://www.w3.org/2000/svg">
<path d="M19.6735 7.46971C18.7579 6.28128 17.381 5.53799 15.7963 5.37655C15.6656 5.36354 15.5343 5.35787 15.403 5.35958C15.3783 5.35771 15.3535 5.35832 15.3289 5.36141C15.0069 5.37201 14.6876 5.42474 14.3792 5.51825C13.935 5.65221 13.4796 5.74599 13.0186 5.79847C13.2181 4.74776 13.7301 3.7817 14.4875 3.02666L15.286 2.22843C15.3384 2.17598 15.3741 2.10916 15.3886 2.03643C15.403 1.96369 15.3956 1.8883 15.3672 1.81978C15.3388 1.75127 15.2908 1.69271 15.2291 1.65151C15.1675 1.6103 15.095 1.58831 15.0208 1.5883H12.926C12.8266 1.58831 12.7312 1.62781 12.6609 1.69813C12.2356 2.12244 11.8752 2.60708 11.5912 3.13644L10.947 2.23471C10.5838 1.72762 10.0934 1.32511 9.52528 1.06766C8.95711 0.810216 8.33118 0.706909 7.71042 0.768129L5.34848 1.00438C5.28028 1.0112 5.21525 1.03657 5.16046 1.07775C5.10568 1.11893 5.06322 1.17434 5.03771 1.23796C5.01221 1.30158 5.00462 1.37097 5.01578 1.43859C5.02695 1.50622 5.05643 1.56949 5.10103 1.62154L6.52373 3.28175C6.85622 3.66989 7.26877 3.98147 7.73307 4.19508C8.19736 4.4087 8.70239 4.51929 9.21347 4.51925C9.34464 4.51924 9.47571 4.512 9.60609 4.49755L11.1084 4.33058C10.9777 4.79051 10.9015 5.26422 10.8814 5.74194C10.5557 5.68795 10.2337 5.61324 9.91743 5.51825C9.45913 5.37758 8.97744 5.32942 8.50036 5.37655C6.87684 5.54193 5.46356 6.30688 4.52067 7.5305C3.33511 9.06936 2.92664 11.2664 3.33942 13.8841C3.75604 16.5261 4.698 18.9373 5.9917 20.6732C7.23933 22.3474 8.71045 23.2506 10.1712 23.2505C10.2906 23.2505 10.4099 23.2444 10.5286 23.2324C10.611 23.224 10.6945 23.2124 10.7771 23.1981C11.6843 23.039 12.6123 23.039 13.5195 23.1981C13.6017 23.2124 13.6852 23.224 13.768 23.2324C15.3393 23.3918 16.9301 22.4824 18.2474 20.6696C19.4989 18.9479 20.4183 16.5381 20.8368 13.8842C21.2568 11.2206 20.8547 9.00261 19.6735 7.46971ZM7.78504 1.51457C8.27444 1.46639 8.76789 1.54789 9.21581 1.75085C9.66373 1.95382 10.0503 2.27111 10.3368 2.67083L10.6202 3.06763L6.94692 1.59819L7.78504 1.51457ZM9.52322 3.75228C9.07069 3.80268 8.61271 3.74167 8.18916 3.57455C7.76561 3.40743 7.38936 3.13928 7.09317 2.79346L6.66398 2.29269L10.1409 3.68347L9.52322 3.75228ZM13.0844 2.33849H14.1153L13.9573 2.4965C13.057 3.39352 12.4614 4.55082 12.2548 5.8048L12.2477 5.84675C12.0413 5.84944 11.8349 5.84396 11.6286 5.8303C11.6682 4.52695 12.1865 3.28385 13.0844 2.3383V2.33849ZM10.6482 22.4593C10.5832 22.4705 10.5175 22.4796 10.4527 22.4862C9.14962 22.6191 7.77867 21.8159 6.59315 20.225C5.37079 18.5848 4.47839 16.2913 4.08037 13.7673C3.70045 11.3582 4.0582 9.3598 5.1149 7.98824C5.93053 6.92947 7.15987 6.26699 8.57634 6.12261C8.66882 6.11321 8.76173 6.10852 8.85468 6.10855C9.14146 6.1094 9.42656 6.1524 9.70083 6.23619C10.8453 6.5825 12.0503 6.68193 13.236 6.52789C13.126 6.62277 13.0191 6.72121 12.9164 6.82386C12.5133 7.22483 12.1936 7.70178 11.976 8.2271C11.7584 8.75242 11.6472 9.31568 11.6488 9.88428V20.5466C11.6478 21.2075 11.8957 21.8446 12.3432 22.331C11.7754 22.3183 11.2076 22.3612 10.6482 22.4593ZM20.096 13.7673C19.6956 16.3063 18.8236 18.6011 17.6407 20.2287C16.5981 21.663 15.396 22.4558 14.2197 22.4982L13.7577 22.3623C13.3655 22.247 13.0211 22.0078 12.7761 21.6805C12.5311 21.3531 12.3988 20.9553 12.3988 20.5464V9.88438C12.3975 9.41432 12.4894 8.94867 12.6693 8.51439C12.8492 8.0801 13.1134 7.68582 13.4467 7.35435C14.0083 6.79437 14.6891 6.36853 15.4384 6.10864C15.5325 6.10849 15.6266 6.11319 15.7203 6.12271C17.118 6.26507 18.2797 6.88911 19.0794 7.92739C20.1315 9.29305 20.4831 11.3124 20.096 13.7673Z" fill="currentColor"/>
<path d="M6.24471 7.97947C5.98724 8.23351 5.78263 8.53602 5.64268 8.86955C5.50273 9.20308 5.43021 9.56103 5.42932 9.92273C5.42932 10.0222 5.46883 10.1176 5.53916 10.1879C5.60948 10.2582 5.70486 10.2977 5.80432 10.2977C5.90378 10.2977 5.99916 10.2582 6.06949 10.1879C6.13981 10.1176 6.17932 10.0222 6.17932 9.92273C6.17994 9.66066 6.23245 9.40131 6.33382 9.15964C6.43519 8.91797 6.58342 8.69877 6.76994 8.51469C6.84092 8.44502 6.88131 8.35 6.88223 8.25054C6.88315 8.15109 6.84452 8.05534 6.77484 7.98437C6.70517 7.91339 6.61015 7.873 6.5107 7.87209C6.41124 7.87117 6.3155 7.9098 6.24452 7.97947H6.24471Z" fill="currentColor"/>
<path d="M5.80432 10.8047C5.70486 10.8047 5.60948 10.8442 5.53915 10.9145C5.46883 10.9848 5.42932 11.0802 5.42932 11.1797V11.5986C5.42932 11.6981 5.46883 11.7934 5.53915 11.8638C5.60948 11.9341 5.70486 11.9736 5.80432 11.9736C5.90377 11.9736 5.99915 11.9341 6.06948 11.8638C6.13981 11.7934 6.17931 11.6981 6.17931 11.5986V11.1797C6.17931 11.0802 6.13981 10.9848 6.06948 10.9145C5.99915 10.8442 5.90377 10.8047 5.80432 10.8047Z" fill="currentColor"/>
<path d="M15.56 13.3644L14.4574 13.9158C14.3951 13.9469 14.3427 13.9948 14.3061 14.054C14.2695 14.1133 14.2501 14.1815 14.2501 14.2512C14.2501 14.3208 14.2695 14.3891 14.3061 14.4483C14.3427 14.5075 14.3951 14.5554 14.4574 14.5866L15.56 15.1379C15.7111 15.2135 15.8791 15.2492 16.0479 15.2416C16.2167 15.234 16.3808 15.1834 16.5246 15.0945C16.6683 15.0057 16.787 14.8816 16.8693 14.734C16.9516 14.5864 16.9948 14.4202 16.9948 14.2512C16.9948 14.0822 16.9516 13.916 16.8693 13.7684C16.787 13.6208 16.6683 13.4967 16.5246 13.4078C16.3808 13.319 16.2167 13.2684 16.0479 13.2608C15.8791 13.2532 15.7111 13.2889 15.56 13.3644ZM16.174 14.4218C16.1382 14.4577 16.092 14.4814 16.042 14.4895C15.992 14.4976 15.9407 14.4898 15.8954 14.4671L15.4636 14.2512L15.8955 14.0353C15.9467 14.0096 16.0054 14.003 16.0611 14.0167C16.1168 14.0304 16.1658 14.0635 16.1993 14.11C16.2328 14.1565 16.2487 14.2134 16.2441 14.2706C16.2395 14.3277 16.2146 14.3813 16.1741 14.4218H16.174Z" fill="currentColor"/>
<path d="M13.3128 12.627C13.3731 12.6619 13.442 12.6792 13.5116 12.6771C13.5812 12.675 13.6489 12.6536 13.707 12.6152L14.7357 11.936C14.8768 11.8429 14.9917 11.7153 15.0695 11.5653C15.1474 11.4153 15.1856 11.2478 15.1805 11.0789C15.1755 10.91 15.1273 10.7452 15.0406 10.6001C14.9539 10.455 14.8316 10.3345 14.6852 10.25C14.5389 10.1655 14.3734 10.1198 14.2044 10.1173C14.0354 10.1148 13.8686 10.1555 13.7197 10.2356C13.5709 10.3156 13.445 10.4324 13.3541 10.5749C13.2631 10.7173 13.21 10.8806 13.1999 11.0493L13.126 12.2798C13.1219 12.3493 13.1371 12.4186 13.1701 12.48C13.2031 12.5413 13.2525 12.5922 13.3128 12.627ZM13.9486 11.0942C13.951 11.0531 13.964 11.0134 13.9861 10.9787C14.0083 10.9441 14.039 10.9157 14.0752 10.8962C14.1114 10.8767 14.152 10.8668 14.1932 10.8675C14.2343 10.8681 14.2746 10.8792 14.3102 10.8998C14.3458 10.9204 14.3756 10.9497 14.3967 10.985C14.4178 11.0203 14.4295 11.0605 14.4307 11.1016C14.432 11.1427 14.4227 11.1834 14.4037 11.22C14.3848 11.2565 14.3568 11.2875 14.3225 11.3102L13.9196 11.5761L13.9486 11.0942Z" fill="currentColor"/>
<path d="M14.7357 16.5655L13.707 15.8863C13.6488 15.8479 13.5812 15.8265 13.5116 15.8244C13.442 15.8223 13.3732 15.8396 13.3129 15.8745C13.2526 15.9093 13.2031 15.9602 13.1701 16.0215C13.1371 16.0828 13.1219 16.1521 13.126 16.2216L13.1999 17.4522C13.21 17.6209 13.2631 17.7842 13.3541 17.9266C13.4451 18.069 13.571 18.1857 13.7198 18.2658C13.8686 18.3458 14.0354 18.3865 14.2044 18.384C14.3733 18.3815 14.5388 18.3358 14.6852 18.2513C14.8315 18.1668 14.9538 18.0463 15.0405 17.9012C15.1272 17.7562 15.1753 17.5914 15.1804 17.4225C15.1855 17.2536 15.1473 17.0862 15.0694 16.9362C14.9916 16.7862 14.8767 16.6586 14.7357 16.5655ZM14.4226 17.4552C14.4078 17.5106 14.3738 17.5589 14.3266 17.5915C14.2794 17.6241 14.2222 17.6388 14.1652 17.633C14.1081 17.6272 14.055 17.6014 14.0153 17.56C13.9756 17.5186 13.952 17.4645 13.9485 17.4072L13.9196 16.9254L14.3225 17.1913C14.3648 17.2192 14.3972 17.2597 14.4152 17.3071C14.4332 17.3545 14.4358 17.4063 14.4226 17.4552Z" fill="currentColor"/>
</svg>
