<svg width="24" height="24" viewBox="0 0 24 24" fill="none" xmlns="http://www.w3.org/2000/svg">
<path d="M23.1014 16.9751C23.2726 16.2246 23.2937 15.4477 23.1635 14.689C23.0333 13.9304 22.7544 13.205 22.3428 12.5545C21.4236 11.1094 20.657 9.57273 20.0554 7.96923L19.5136 6.5245C19.2547 5.83418 18.7913 5.23931 18.1854 4.81937C17.5794 4.39943 16.8597 4.17443 16.1224 4.17443C15.3852 4.17443 14.6655 4.39943 14.0595 4.81937C13.4535 5.23931 12.9902 5.83418 12.7313 6.5245L12.1895 7.96923C12.1314 8.1242 12.0715 8.27856 12.0099 8.43231C11.9416 8.26187 11.8746 8.09096 11.8106 7.92011L11.2688 6.47556C11.0335 5.85446 10.6327 5.30956 10.11 4.89982C9.58724 4.49009 8.96239 4.23113 8.30305 4.15098C8.35847 3.97069 8.45617 3.80625 8.588 3.67135C8.71984 3.53646 8.882 3.43502 9.06097 3.37548L9.11872 3.35622C9.21268 3.32444 9.29023 3.25674 9.33438 3.16793C9.37854 3.07911 9.38571 2.97643 9.35433 2.88234C9.32295 2.78825 9.25558 2.71042 9.16695 2.66589C9.07832 2.62136 8.97566 2.61376 8.88144 2.64475L8.82379 2.66397C8.49629 2.77282 8.20391 2.96737 7.97701 3.22741C7.75011 3.48746 7.59698 3.8035 7.5335 4.14273C6.8588 4.20931 6.21608 4.46297 5.67777 4.87513C5.13945 5.28729 4.72691 5.84158 4.48663 6.47556L3.94471 7.92029C3.34306 9.52375 2.57644 11.0604 1.65721 12.5054C1.20753 13.212 0.916137 14.0075 0.803034 14.8374C0.689932 15.6673 0.757805 16.5118 1.00199 17.3129C1.24617 18.1141 1.66089 18.8529 2.21763 19.4786C2.77438 20.1043 3.45998 20.6021 4.22732 20.9378C5.3788 21.4398 6.62148 21.699 7.87766 21.699C9.13384 21.699 10.3765 21.4398 11.528 20.9378C11.6729 20.8744 11.8161 20.8041 11.956 20.7287C12.1236 20.8234 12.2958 20.9095 12.4721 20.9869C13.6236 21.489 14.8662 21.7481 16.1224 21.7481C17.3786 21.7481 18.6213 21.489 19.7728 20.9869C20.6009 20.6225 21.3329 20.0702 21.9106 19.3739C22.4884 18.6776 22.8961 17.8563 23.1014 16.9751ZM11.2274 20.2505C10.1708 20.7112 9.03047 20.9489 7.87778 20.9489C6.72509 20.9489 5.58479 20.7112 4.52816 20.2505C3.86002 19.9582 3.26306 19.5247 2.77828 18.9799C2.2935 18.4351 1.93239 17.7918 1.71976 17.0942C1.50712 16.3966 1.44799 15.6612 1.54644 14.9386C1.64488 14.216 1.89857 13.5233 2.29007 12.908C3.23715 11.419 4.02703 9.83577 4.64699 8.18364L5.18877 6.7389C5.39402 6.19153 5.76143 5.71983 6.24192 5.38684C6.7224 5.05385 7.29307 4.87544 7.87766 4.87544C8.46225 4.87544 9.03292 5.05385 9.5134 5.38684C9.99389 5.71983 10.3613 6.19153 10.5666 6.7389L11.1083 8.18364C11.2612 8.59122 11.4271 8.99926 11.601 9.39934C11.1118 10.4908 10.544 11.5452 9.90215 12.5545C9.12646 13.7724 8.83314 15.236 9.07955 16.6588C9.32596 18.0816 10.0944 19.3613 11.2345 20.2474C11.2321 20.2485 11.2297 20.2496 11.2274 20.2505ZM19.4721 20.2996C18.4155 20.7603 17.2751 20.9981 16.1224 20.9981C14.9697 20.9981 13.8293 20.7603 12.7727 20.2996C12.1045 20.0073 11.5075 19.5739 11.0227 19.029C10.538 18.4842 10.1769 17.8408 9.96424 17.1432C9.75163 16.4456 9.69254 15.7102 9.79104 14.9876C9.88954 14.265 10.1433 13.5722 10.5349 12.957C11.4819 11.468 12.2718 9.88473 12.8917 8.23257L13.4335 6.78798C13.6388 6.2406 14.0062 5.76891 14.4867 5.43592C14.9672 5.10293 15.5378 4.92452 16.1224 4.92452C16.707 4.92452 17.2777 5.10293 17.7582 5.43592C18.2386 5.76891 18.6061 6.2406 18.8113 6.78798L19.3531 8.23272C19.973 9.88486 20.7629 11.4681 21.71 12.9571C22.1016 13.5724 22.3553 14.2651 22.4538 14.9877C22.5523 15.7104 22.4932 16.4457 22.2806 17.1434C22.068 17.841 21.7069 18.4843 21.2221 19.0292C20.7373 19.574 20.1403 20.0075 19.4721 20.2997V20.2996Z" fill="currentColor"/>
<path d="M16.1224 10.126C14.0202 10.126 12.4412 11.9003 12.0018 14.7565C11.8233 15.9169 12.161 17.0641 12.9526 17.9868C13.766 18.935 14.951 19.5009 16.1224 19.5009C17.2939 19.5009 18.4789 18.9349 19.2923 17.9868C20.0839 17.0641 20.4216 15.9168 20.2431 14.7565C19.8037 11.9003 18.2247 10.126 16.1224 10.126ZM18.7231 17.4985C18.0502 18.2827 17.078 18.751 16.1224 18.751C15.1668 18.751 14.1947 18.2827 13.5218 17.4985C12.8749 16.7444 12.5984 15.811 12.7431 14.8705C12.9256 13.6845 13.3262 12.6851 13.9019 11.9804C14.5004 11.2476 15.2476 10.876 16.1224 10.876C16.9973 10.876 17.7443 11.2476 18.343 11.9804C18.9187 12.6851 19.3194 13.6845 19.5018 14.8705C19.6465 15.8112 19.37 16.7444 18.7231 17.4985Z" fill="currentColor"/>
<path d="M6.37519 6.37598C6.27573 6.37598 6.18035 6.41548 6.11002 6.48581C6.0397 6.55614 6.00019 6.65152 6.00019 6.75098C6.00032 7.20743 5.92674 7.66091 5.78227 8.09389L5.64445 8.50738C5.62832 8.55423 5.62163 8.60382 5.62478 8.65328C5.62793 8.70273 5.64084 8.75107 5.66279 8.79551C5.68473 8.83994 5.71526 8.87958 5.75262 8.91215C5.78997 8.94471 5.83341 8.96954 5.88042 8.98522C5.92744 9.00089 5.97709 9.00709 6.02651 9.00346C6.07593 8.99982 6.12414 8.98643 6.16836 8.96405C6.21258 8.94168 6.25192 8.91076 6.28411 8.87308C6.3163 8.83541 6.34071 8.79173 6.35592 8.74456L6.49378 8.33103C6.66377 7.82159 6.75035 7.28803 6.75019 6.75098C6.75019 6.65152 6.71068 6.55614 6.64035 6.48581C6.57003 6.41548 6.47464 6.37598 6.37519 6.37598Z" fill="currentColor"/>
<path d="M5.45795 18.439L4.912 18.075C4.564 17.8432 4.25806 17.5538 4.00731 17.2192C3.61478 16.6959 3.39424 16.0637 3.37609 15.4097C3.35794 14.7557 3.54307 14.1123 3.90596 13.5679C4.52246 12.6427 5.04145 11.6561 5.45462 10.6239L5.59806 10.2652C5.61635 10.2195 5.62545 10.1706 5.62485 10.1214C5.62425 10.0722 5.61395 10.0235 5.59455 9.97825C5.57515 9.93299 5.54703 9.89199 5.51178 9.85759C5.47654 9.8232 5.43486 9.79608 5.38914 9.7778C5.34341 9.75951 5.29453 9.7504 5.24529 9.751C5.19605 9.75161 5.1474 9.7619 5.10214 9.7813C5.05688 9.8007 5.01588 9.82883 4.98148 9.86407C4.94709 9.89932 4.91997 9.94099 4.90168 9.98672L4.75825 10.3453C4.36433 11.3293 3.8695 12.2699 3.28168 13.1519C2.83272 13.8253 2.60368 14.6215 2.62614 15.4305C2.6486 16.2396 2.92144 17.0218 3.40707 17.6692C3.70878 18.0719 4.07693 18.4201 4.4957 18.699L5.0416 19.063C5.12436 19.1175 5.22534 19.1371 5.32247 19.1174C5.41961 19.0977 5.505 19.0404 5.55998 18.9579C5.61496 18.8754 5.63506 18.7746 5.61589 18.6773C5.59672 18.5801 5.53983 18.4944 5.45767 18.439H5.45795Z" fill="currentColor"/>
<path d="M10.547 9.93848C10.7282 9.93848 10.8751 9.79157 10.8751 9.61035C10.8751 9.42913 10.7282 9.28223 10.547 9.28223C10.3658 9.28223 10.2189 9.42913 10.2189 9.61035C10.2189 9.79157 10.3658 9.93848 10.547 9.93848Z" fill="currentColor"/>
<path d="M9.797 10.876C9.97822 10.876 10.1251 10.7291 10.1251 10.5479C10.1251 10.3666 9.97822 10.2197 9.797 10.2197C9.61578 10.2197 9.46887 10.3666 9.46887 10.5479C9.46887 10.7291 9.61578 10.876 9.797 10.876Z" fill="currentColor"/>
<path d="M10.172 8.53125C10.3532 8.53125 10.5001 8.38434 10.5001 8.20312C10.5001 8.02191 10.3532 7.875 10.172 7.875C9.99078 7.875 9.84387 8.02191 9.84387 8.20312C9.84387 8.38434 9.99078 8.53125 10.172 8.53125Z" fill="currentColor"/>
<path d="M9.51575 7.40625C9.69697 7.40625 9.84387 7.25934 9.84387 7.07812C9.84387 6.89691 9.69697 6.75 9.51575 6.75C9.33453 6.75 9.18762 6.89691 9.18762 7.07812C9.18762 7.25934 9.33453 7.40625 9.51575 7.40625Z" fill="currentColor"/>
<path d="M9.422 9.65723C9.60322 9.65723 9.75012 9.51032 9.75012 9.3291C9.75012 9.14788 9.60322 9.00098 9.422 9.00098C9.24078 9.00098 9.09387 9.14788 9.09387 9.3291C9.09387 9.51032 9.24078 9.65723 9.422 9.65723Z" fill="currentColor"/>
<path d="M15.3009 16.6342C15.2691 16.5966 15.2303 16.5656 15.1865 16.5429C15.1428 16.5203 15.095 16.5065 15.046 16.5023C14.9969 16.4982 14.9475 16.5037 14.9005 16.5186C14.8536 16.5335 14.8101 16.5575 14.7724 16.5893C14.7348 16.621 14.7038 16.6599 14.6811 16.7036C14.6585 16.7474 14.6447 16.7951 14.6405 16.8442C14.6363 16.8933 14.6419 16.9427 14.6568 16.9896C14.6717 17.0365 14.6957 17.0801 14.7275 17.1177C14.7931 17.1959 14.8634 17.2724 14.9358 17.3446C15.0062 17.4149 15.1016 17.4544 15.201 17.4544C15.3005 17.4544 15.3959 17.4149 15.4662 17.3446C15.5365 17.2743 15.576 17.1789 15.576 17.0794C15.576 16.98 15.5365 16.8846 15.4662 16.8142C15.4088 16.7568 15.3531 16.6963 15.3009 16.6342Z" fill="currentColor"/>
<path d="M14.7543 15.6384C14.5884 15.109 14.579 14.543 14.7271 14.0083C14.7536 13.9125 14.741 13.81 14.692 13.7234C14.643 13.6369 14.5616 13.5734 14.4658 13.5468C14.3699 13.5203 14.2675 13.5329 14.1809 13.5819C14.0944 13.6309 14.0308 13.7123 14.0043 13.8081C13.8176 14.482 13.8296 15.1954 14.0386 15.8626C14.0686 15.9573 14.1348 16.0363 14.2229 16.0822C14.3109 16.1281 14.4136 16.1372 14.5083 16.1075C14.6031 16.0778 14.6822 16.0117 14.7283 15.9238C14.7744 15.8359 14.7838 15.7332 14.7543 15.6384Z" fill="currentColor"/>
</svg>
