<svg width="24" height="24" viewBox="0 0 24 24" fill="none" xmlns="http://www.w3.org/2000/svg">
<path d="M4.87608 11.9897C4.87335 11.8903 4.83123 11.796 4.759 11.7276C4.68676 11.6593 4.59033 11.6224 4.49091 11.6251C4.39149 11.6279 4.29723 11.67 4.22886 11.7422C4.1605 11.8145 4.12363 11.9109 4.12636 12.0103C4.14084 12.5901 4.28786 13.1589 4.55616 13.6731C4.57874 13.717 4.60977 13.7561 4.64749 13.788C4.68521 13.8199 4.72886 13.844 4.77594 13.859C4.82302 13.874 4.8726 13.8796 4.92183 13.8753C4.97106 13.8711 5.01896 13.8572 5.0628 13.8344C5.10663 13.8116 5.14552 13.7804 5.17725 13.7425C5.20897 13.7046 5.23289 13.6608 5.24764 13.6137C5.26239 13.5665 5.26767 13.5169 5.26318 13.4677C5.2587 13.4185 5.24454 13.3706 5.22151 13.3269C5.00582 12.9134 4.88767 12.456 4.87608 11.9897Z" fill="currentColor"/>
<path d="M4.54411 11.2326C4.59115 11.2473 4.6406 11.2525 4.68965 11.248C4.7387 11.2435 4.78638 11.2294 4.82997 11.2064C4.87355 11.1835 4.91219 11.1522 4.94366 11.1143C4.97513 11.0764 4.99882 11.0327 5.01338 10.9856C5.04869 10.8719 5.09057 10.7603 5.13882 10.6515C5.15952 10.6064 5.17105 10.5576 5.17275 10.508C5.17445 10.4583 5.16628 10.4089 5.14872 10.3624C5.13115 10.316 5.10454 10.2735 5.07043 10.2375C5.03632 10.2014 4.99538 10.1724 4.95 10.1523C4.90462 10.1322 4.85569 10.1213 4.80605 10.1202C4.75642 10.1191 4.70707 10.1279 4.66086 10.1461C4.61465 10.1642 4.57251 10.1914 4.53687 10.2259C4.50124 10.2605 4.47282 10.3018 4.45327 10.3474C4.39321 10.4829 4.34108 10.6218 4.29713 10.7633C4.28253 10.8104 4.27734 10.8598 4.28185 10.9088C4.28636 10.9579 4.30049 11.0056 4.32342 11.0491C4.34636 11.0927 4.37765 11.1314 4.41552 11.1628C4.45338 11.1943 4.49708 11.218 4.54411 11.2326Z" fill="currentColor"/>
<path d="M18.4011 7.82122C18.6774 7.14488 18.7922 6.41341 18.7363 5.68494L18.6238 4.22159C18.6169 4.13234 18.5783 4.0485 18.515 3.98521C18.4517 3.92193 18.3678 3.88339 18.2785 3.87655L16.8151 3.76405C15.8847 3.69341 14.9542 3.9006 14.1416 4.35936C13.9234 3.36053 13.3851 2.46024 12.6085 1.7953L11.4941 0.840266C11.4262 0.782017 11.3396 0.75 11.2501 0.75C11.1606 0.75 11.074 0.782017 11.0061 0.840266L9.89166 1.7953C9.20622 2.38284 8.70445 3.15533 8.44633 4.02044C8.18822 4.88555 8.18466 5.80669 8.4361 6.67377C8.28028 6.6597 8.12325 6.65155 7.965 6.65155C6.85131 6.65153 5.76645 7.00557 4.86717 7.66252C3.96788 8.31947 3.30073 9.24531 2.96212 10.3063C2.6235 11.3672 2.63096 12.5084 2.9834 13.5648C3.33584 14.6213 4.01502 15.5383 4.92282 16.1835C4.72681 16.9466 4.69234 17.7422 4.82161 18.5193C4.95087 19.2965 5.24102 20.0381 5.67348 20.6967C6.10594 21.3552 6.67117 21.9162 7.33297 22.3437C7.99477 22.7711 8.73855 23.0557 9.51668 23.179C10.2948 23.3024 11.0901 23.2619 11.8517 23.0602C12.6133 22.8584 13.3243 22.4998 13.9393 22.0073C14.5543 21.5149 15.0596 20.8994 15.4229 20.2004C15.7863 19.5013 15.9996 18.734 16.0493 17.9478C16.1986 17.9604 16.3486 17.9671 16.4986 17.9671C17.7234 17.9671 18.9098 17.539 19.8523 16.7568C20.7949 15.9745 21.4344 14.8874 21.6601 13.6835C21.8858 12.4796 21.6836 11.2347 21.0885 10.1641C20.4933 9.09359 19.5426 8.26477 18.4009 7.82108L18.4011 7.82122ZM16.4987 7.46445C16.151 7.46449 15.8042 7.49889 15.4633 7.56716L15.9784 7.05209L17.7268 7.4892C17.7124 7.52595 17.6974 7.5625 17.6819 7.59884C17.2938 7.50932 16.8969 7.46423 16.4987 7.46445ZM9.32944 3.78477L10.8751 4.71233V6.10381L9.01341 5.03975C9.04899 4.60694 9.15577 4.18298 9.32944 3.78495V3.78477ZM13.4868 5.03975L11.6251 6.10381V4.71233L13.1708 3.78495C13.3444 4.18304 13.4512 4.60707 13.4868 5.03994V5.03975ZM11.6251 6.96763L13.4607 5.9187C13.3161 6.94098 12.7769 7.86598 11.9586 8.49547C11.8527 8.37184 11.7415 8.25356 11.6251 8.14063V6.96763ZM12.5194 9.28897C12.4824 9.22456 12.444 9.16108 12.4044 9.09852C12.9428 8.68722 13.3857 8.16432 13.7029 7.5657L13.8529 8.11653C13.8529 8.11653 13.7005 8.26925 13.6957 8.27422C13.2556 8.55253 12.8591 8.89449 12.5191 9.28897H12.5194ZM17.9384 5.09202L17.9884 5.74245C18.0146 6.08516 17.996 6.42982 17.933 6.7677L16.5968 6.43363L17.9384 5.09202ZM16.7576 4.51166L17.4081 4.56167L16.0665 5.90328L15.7325 4.56734C16.0703 4.50419 16.4149 4.48547 16.7576 4.51166ZM15.0112 4.77458L15.448 6.52175L14.4641 7.5057L14.147 6.3432C14.2155 6.02149 14.2501 5.69347 14.2501 5.36455C14.2501 5.30155 14.2485 5.23873 14.246 5.17602C14.4856 5.01457 14.7422 4.87995 15.0112 4.77458ZM12.8066 3.12875L11.6251 3.83769V1.94033L12.1204 2.36488C12.3814 2.5886 12.612 2.84539 12.8066 3.12875ZM10.3798 2.36469L10.8751 1.94028V3.83769L9.69385 3.12875C9.88832 2.8454 10.1189 2.58861 10.3798 2.36488V2.36469ZM9.03943 5.91847L10.8751 6.96763V7.53613C10.3866 7.21042 9.84721 6.96849 9.2791 6.8203C9.16366 6.53034 9.0832 6.22766 9.03943 5.91866V5.91847ZM3.46364 11.9031C3.46371 10.8823 3.81077 9.89174 4.44787 9.09407C5.08497 8.29639 5.97427 7.73896 6.96987 7.51321C7.96547 7.28746 9.00823 7.40682 9.92707 7.85169C10.8459 8.29656 11.5863 9.04053 12.0266 9.96153C11.6424 10.584 11.3933 11.2803 11.2954 12.0053C10.038 11.8048 8.74972 12.0343 7.63885 12.6565C6.52797 13.2788 5.65939 14.2575 5.1735 15.4344C4.6403 15.0131 4.20945 14.4766 3.91331 13.865C3.61717 13.2534 3.46343 12.5827 3.46364 11.9031ZM10.4032 22.5C9.43253 22.5 8.48366 22.2121 7.67657 21.6729C6.86949 21.1336 6.24044 20.3671 5.86898 19.4703C5.49752 18.5735 5.40033 17.5867 5.5897 16.6347C5.77907 15.6827 6.24649 14.8082 6.93286 14.1218C7.61923 13.4355 8.49372 12.968 9.44574 12.7787C10.3978 12.5893 11.3846 12.6865 12.2813 13.0579C13.1781 13.4294 13.9446 14.0585 14.4839 14.8655C15.0232 15.6726 15.311 16.6215 15.311 17.5922C15.3096 18.8934 14.792 20.1408 13.8719 21.0609C12.9519 21.981 11.7044 22.4985 10.4032 22.5ZM16.4987 17.2172C16.3477 17.2172 16.1966 17.2087 16.0467 17.1937C15.9642 16.0487 15.536 14.9558 14.8189 14.0593C14.1017 13.1629 13.1294 12.5053 12.0304 12.1734C12.1349 11.3126 12.4858 10.5003 13.041 9.83418C13.5961 9.16804 14.3319 8.67644 15.1597 8.41846C15.9876 8.16048 16.8724 8.14712 17.7076 8.37997C18.5429 8.61283 19.2932 9.08199 19.8682 9.73106C20.4432 10.3801 20.8185 11.1815 20.9489 12.0387C21.0794 12.896 20.9594 13.7727 20.6035 14.5634C20.2476 15.3541 19.6709 16.0252 18.9427 16.496C18.2145 16.9668 17.3658 17.2172 16.4987 17.2172Z" fill="currentColor"/>
<path d="M7.14462 11.3203C7.2005 11.2795 7.26788 11.2576 7.33704 11.2576C7.4062 11.2576 7.47358 11.2795 7.52946 11.3203C7.65722 11.4153 7.81219 11.4666 7.9714 11.4666C8.13061 11.4666 8.28558 11.4153 8.41334 11.3203C8.54316 11.2281 8.63983 11.0966 8.68902 10.9452C8.73821 10.7938 8.7373 10.6305 8.68643 10.4797C8.66494 10.414 8.66487 10.3431 8.68625 10.2773C8.70762 10.2116 8.74933 10.1543 8.80535 10.1137C8.93381 10.0204 9.02943 9.8888 9.0785 9.73779C9.12757 9.58678 9.12757 9.42411 9.07851 9.2731C9.02944 9.12208 8.93383 8.99048 8.80537 8.89715C8.67691 8.80382 8.5222 8.75355 8.36341 8.75356C8.29426 8.75369 8.22685 8.73185 8.17091 8.6912C8.11496 8.65056 8.07336 8.59319 8.05212 8.52739C8.00307 8.37637 7.90746 8.24476 7.77901 8.15142C7.65055 8.05808 7.49585 8.00781 7.33706 8.00781C7.17828 8.00781 7.02357 8.05808 6.89512 8.15142C6.76667 8.24476 6.67106 8.37637 6.62201 8.52739C6.60075 8.5932 6.55915 8.65056 6.5032 8.69121C6.44724 8.73186 6.37983 8.75369 6.31067 8.75356C6.1519 8.75357 5.9972 8.80384 5.86875 8.89717C5.74031 8.99049 5.6447 9.12209 5.59564 9.27309C5.54657 9.42409 5.54657 9.58675 5.59563 9.73775C5.64469 9.88875 5.74029 10.0204 5.86873 10.1137C5.92475 10.1542 5.96646 10.2115 5.98783 10.2773C6.0092 10.3431 6.00914 10.4139 5.98765 10.4797C5.93857 10.6307 5.93856 10.7934 5.98761 10.9444C6.03667 11.0954 6.13228 11.227 6.26074 11.3203C6.38919 11.4137 6.5439 11.4639 6.70268 11.4639C6.86146 11.4639 7.01617 11.4136 7.14462 11.3203ZM6.30935 9.5067L6.30837 9.50595C6.30856 9.50505 6.30883 9.50418 6.30917 9.50332H6.31048C6.53809 9.50374 6.75995 9.43188 6.94409 9.29809C7.12823 9.1643 7.26514 8.9755 7.33507 8.7589L7.33554 8.75768H7.33821L7.33863 8.7589C7.40858 8.97549 7.54549 9.16427 7.72963 9.29805C7.91377 9.43183 8.13562 9.50369 8.36323 9.50328H8.36454C8.36487 9.50414 8.36515 9.50501 8.36538 9.5059L8.36435 9.5067C8.17996 9.64013 8.0427 9.82867 7.97235 10.0451C7.90201 10.2616 7.90222 10.4948 7.97295 10.7112L7.97337 10.7124C7.97266 10.713 7.97193 10.7135 7.97116 10.714L7.97009 10.7133C7.78621 10.5792 7.56449 10.5069 7.33688 10.5069C7.10927 10.5069 6.88754 10.5792 6.70367 10.7133L6.70259 10.7141C6.7018 10.7136 6.70105 10.713 6.70034 10.7125L6.70076 10.7112C6.77149 10.4949 6.7717 10.2617 6.70135 10.0452C6.63101 9.82871 6.49375 9.64015 6.30935 9.5067Z" fill="currentColor"/>
<path d="M19.4788 11.9284C19.3822 11.8877 19.3011 11.8175 19.2471 11.7278C19.193 11.6381 19.1688 11.5336 19.178 11.4293C19.1933 11.252 19.1521 11.0745 19.0603 10.9222C18.9685 10.7699 18.8308 10.6505 18.667 10.5812C18.5032 10.5119 18.3217 10.4962 18.1484 10.5365C17.9752 10.5767 17.8191 10.6708 17.7026 10.8052C17.6341 10.8844 17.5422 10.9398 17.4402 10.9635C17.3382 10.9872 17.2313 10.9779 17.135 10.9369C16.9712 10.8676 16.7896 10.852 16.6164 10.8922C16.4431 10.9324 16.287 11.0265 16.1705 11.1608C16.054 11.2952 15.983 11.463 15.9677 11.6402C15.9525 11.8175 15.9937 11.9949 16.0855 12.1473C16.1397 12.2369 16.164 12.3414 16.155 12.4457C16.146 12.5501 16.1042 12.6489 16.0354 12.7279C15.9189 12.8622 15.8479 13.0301 15.8326 13.2073C15.8173 13.3845 15.8585 13.562 15.9503 13.7143C16.0421 13.8667 16.1798 13.9861 16.3436 14.0553C16.5074 14.1246 16.6889 14.1403 16.8622 14.1C16.9642 14.0762 17.0711 14.0853 17.1676 14.1261C17.264 14.1669 17.345 14.2373 17.3989 14.3271C17.472 14.4515 17.5763 14.5547 17.7016 14.6264C17.8268 14.698 17.9687 14.7357 18.113 14.7357C18.1796 14.7356 18.2459 14.7279 18.3108 14.7127C18.4849 14.6743 18.642 14.5808 18.7589 14.4461C18.8757 14.3114 18.946 14.1426 18.9594 13.9648C18.9682 13.8604 19.0099 13.7615 19.0785 13.6824C19.1471 13.6032 19.2391 13.5479 19.3412 13.5244C19.5144 13.4842 19.6705 13.3901 19.787 13.2558C19.9035 13.1214 19.9745 12.9536 19.9898 12.7764C20.005 12.5992 19.9638 12.4217 19.872 12.2694C19.7802 12.117 19.6426 11.9977 19.4788 11.9284ZM19.1715 12.7938C18.9151 12.8529 18.684 12.9919 18.5116 13.1908C18.3392 13.3896 18.2343 13.6381 18.2122 13.9003C18.2105 13.9197 18.2027 13.9381 18.19 13.9528C18.1772 13.9675 18.1601 13.9778 18.1412 13.9822C18.1222 13.9866 18.1023 13.9849 18.0844 13.9773C18.0665 13.9697 18.0514 13.9567 18.0413 13.94C17.931 13.7561 17.7749 13.6038 17.5882 13.4981C17.4016 13.3924 17.1907 13.3368 16.9762 13.3368C16.8807 13.3369 16.7855 13.348 16.6926 13.3696C16.6736 13.374 16.6538 13.3722 16.6359 13.3647C16.6181 13.3571 16.603 13.344 16.593 13.3274C16.583 13.3108 16.5784 13.2914 16.5801 13.2721C16.5817 13.2527 16.5894 13.2344 16.602 13.2196C16.7748 13.0211 16.8801 12.7728 16.9027 12.5106C16.9253 12.2484 16.8641 11.9858 16.7279 11.7606C16.7178 11.7439 16.7133 11.7245 16.715 11.7051C16.7166 11.6857 16.7244 11.6673 16.7372 11.6526C16.7499 11.6379 16.767 11.6276 16.786 11.6232C16.805 11.6188 16.8249 11.6205 16.8428 11.6281C17.085 11.731 17.3537 11.7544 17.6101 11.6948C17.8664 11.6352 18.0973 11.4958 18.2693 11.2966C18.282 11.2818 18.2991 11.2715 18.3181 11.2671C18.3371 11.2627 18.357 11.2644 18.3749 11.272C18.3928 11.2796 18.4079 11.2927 18.4179 11.3094C18.428 11.3261 18.4325 11.3455 18.4308 11.3649C18.4077 11.6271 18.4685 11.8898 18.6043 12.1152C18.7401 12.3407 18.944 12.5171 19.1866 12.6192C19.2045 12.6268 19.2196 12.6398 19.2297 12.6565C19.2397 12.6732 19.2443 12.6926 19.2426 12.712C19.2409 12.7315 19.2332 12.7498 19.2204 12.7645C19.2076 12.7792 19.1905 12.7895 19.1715 12.7939V12.7938Z" fill="currentColor"/>
<path d="M11.8703 15.0809C11.7277 15.0812 11.5886 15.0361 11.4732 14.9523C11.3578 14.8685 11.272 14.7501 11.2281 14.6144C11.1669 14.4259 11.0475 14.2616 10.8872 14.1451C10.7268 14.0286 10.5337 13.9658 10.3355 13.9658C10.1373 13.9658 9.94419 14.0286 9.78384 14.1451C9.62349 14.2616 9.50414 14.4259 9.4429 14.6144C9.39905 14.7501 9.31324 14.8685 9.19783 14.9523C9.08242 15.0361 8.94337 15.0812 8.80072 15.0809C8.60251 15.081 8.4094 15.1437 8.24906 15.2602C8.08871 15.3767 7.96936 15.541 7.90812 15.7295C7.84687 15.918 7.84687 16.1211 7.90811 16.3096C7.96936 16.4981 8.0887 16.6624 8.24905 16.7789C8.36463 16.8625 8.45066 16.9807 8.49475 17.1164C8.53884 17.2521 8.53869 17.3982 8.49434 17.5338C8.4331 17.7223 8.43311 17.9254 8.49436 18.1139C8.55561 18.3024 8.67497 18.4666 8.83532 18.5831C8.99567 18.6996 9.18878 18.7624 9.38698 18.7624C9.58518 18.7624 9.7783 18.6997 9.93865 18.5832C10.0539 18.4991 10.1929 18.4538 10.3356 18.4538C10.4783 18.4538 10.6173 18.4991 10.7325 18.5832C10.892 18.7018 11.0854 18.7658 11.2842 18.7658C11.4829 18.7658 11.6764 18.7018 11.8359 18.5832C11.9979 18.4681 12.1186 18.3039 12.18 18.1149C12.2414 17.9259 12.2403 17.7222 12.1768 17.5339C12.1324 17.3983 12.1323 17.2521 12.1763 17.1164C12.2204 16.9807 12.3064 16.8625 12.4219 16.7788C12.5822 16.6623 12.7016 16.4981 12.7629 16.3096C12.8241 16.1211 12.8241 15.918 12.7629 15.7295C12.7016 15.541 12.5823 15.3767 12.4219 15.2602C12.2616 15.1437 12.0684 15.0809 11.8702 15.0809H11.8703ZM11.9812 16.1721C11.7372 16.3487 11.5556 16.5981 11.4625 16.8846C11.3695 17.171 11.3698 17.4796 11.4634 17.7658C11.4757 17.8037 11.4757 17.8445 11.4635 17.8824C11.4512 17.9203 11.4272 17.9533 11.395 17.9767C11.3627 18.0002 11.3239 18.0128 11.2841 18.0128C11.2443 18.0128 11.2055 18.0002 11.1732 17.9768C10.93 17.7993 10.6366 17.7037 10.3355 17.7037C10.0344 17.7037 9.74102 17.7993 9.49775 17.9768C9.46552 18.0002 9.42671 18.0128 9.38688 18.0128C9.34705 18.0128 9.30825 18.0001 9.27603 17.9767C9.24382 17.9533 9.21984 17.9203 9.20754 17.8824C9.19523 17.8445 9.19524 17.8037 9.20754 17.7658C9.30112 17.4796 9.3014 17.1711 9.20835 16.8847C9.11529 16.5984 8.9337 16.3489 8.68976 16.1724C8.65755 16.149 8.63357 16.116 8.62127 16.0781C8.60897 16.0402 8.60897 15.9994 8.62127 15.9615C8.63358 15.9236 8.65756 15.8906 8.68978 15.8672C8.722 15.8438 8.7608 15.8312 8.80062 15.8312C9.10174 15.8317 9.39525 15.7367 9.63886 15.5597C9.88248 15.3827 10.0636 15.1329 10.1562 14.8464C10.1684 14.8085 10.1924 14.7755 10.2246 14.7521C10.2568 14.7287 10.2956 14.7161 10.3355 14.7161C10.3753 14.7161 10.4141 14.7287 10.4463 14.7521C10.4785 14.7755 10.5025 14.8085 10.5148 14.8464C10.6073 15.1329 10.7885 15.3827 11.0321 15.5597C11.2757 15.7367 11.5692 15.8317 11.8703 15.8312C11.9101 15.8312 11.949 15.8438 11.9812 15.8672C12.0134 15.8906 12.0374 15.9236 12.0497 15.9615C12.062 15.9994 12.062 16.0402 12.0497 16.078C12.0374 16.1159 12.0134 16.1489 11.9812 16.1723V16.1721Z" fill="currentColor"/>
<path d="M10.3525 16.0176C10.2621 16.0176 10.1737 16.0444 10.0985 16.0946C10.0233 16.1448 9.96469 16.2162 9.93008 16.2998C9.89547 16.3833 9.88641 16.4752 9.90404 16.5639C9.92168 16.6526 9.96522 16.7341 10.0291 16.798C10.0931 16.862 10.1745 16.9055 10.2632 16.9231C10.3519 16.9408 10.4438 16.9317 10.5274 16.8971C10.6109 16.8625 10.6823 16.8039 10.7326 16.7288C10.7828 16.6536 10.8096 16.5652 10.8096 16.4748C10.8096 16.3535 10.7614 16.2372 10.6757 16.1515C10.59 16.0658 10.4737 16.0176 10.3525 16.0176Z" fill="currentColor"/>
<path d="M17.8595 12.208C17.7892 12.208 17.7205 12.2288 17.662 12.2679C17.6035 12.307 17.5579 12.3625 17.531 12.4275C17.5041 12.4925 17.497 12.564 17.5107 12.6329C17.5244 12.7019 17.5583 12.7653 17.608 12.815C17.6578 12.8648 17.7211 12.8986 17.7901 12.9124C17.8591 12.9261 17.9306 12.919 17.9956 12.8921C18.0605 12.8652 18.1161 12.8196 18.1552 12.7612C18.1942 12.7027 18.2151 12.6339 18.2151 12.5636C18.2151 12.4693 18.1776 12.3789 18.111 12.3122C18.0443 12.2455 17.9538 12.208 17.8595 12.208Z" fill="currentColor"/>
<path d="M7.29883 10.1426C7.35909 10.1426 7.418 10.1247 7.46811 10.0912C7.51821 10.0578 7.55727 10.0102 7.58033 9.95449C7.60339 9.89882 7.60942 9.83755 7.59767 9.77845C7.58591 9.71935 7.55689 9.66506 7.51428 9.62245C7.47167 9.57983 7.41738 9.55081 7.35827 9.53906C7.29917 9.5273 7.23791 9.53334 7.18223 9.5564C7.12656 9.57946 7.07897 9.61851 7.04549 9.66862C7.01201 9.71872 6.99414 9.77763 6.99414 9.83789C6.99414 9.9187 7.02624 9.9962 7.08338 10.0533C7.14052 10.1105 7.21802 10.1426 7.29883 10.1426Z" fill="currentColor"/>
</svg>
