<svg width="32" height="25" viewBox="0 0 32 25" fill="none" xmlns="http://www.w3.org/2000/svg">
<path d="M24.0258 8.65445L24.1515 8.96875H24.4901H27.4134C27.4696 8.96875 27.5106 9.02163 27.4971 9.07566L27.2042 10.2474L27.2041 10.2478C27.1947 10.2855 27.1606 10.3125 27.1209 10.3125H26.1409H24.8091L25.8119 11.189C26.3669 11.6741 26.7186 12.3728 26.7186 13.1562V15.5C26.7186 16.1563 26.4687 16.752 26.061 17.2182L25.9373 17.3595V17.5474V20.1875C25.9373 20.7742 25.4615 21.25 24.8748 21.25H23.3123C22.7257 21.25 22.2498 20.7742 22.2498 20.1875V18.625V18.125H21.7498H9.24982H8.74982V18.625V20.1875C8.74982 20.7742 8.27397 21.25 7.68732 21.25H6.12482C5.53817 21.25 5.06232 20.7742 5.06232 20.1875V17.5474V17.3597L4.93882 17.2183C4.5309 16.7516 4.28107 16.1558 4.28107 15.5V13.1562C4.28107 12.3728 4.63271 11.6742 5.18811 11.1891L6.19174 10.3125H4.8592H3.87922C3.83953 10.3125 3.80543 10.2855 3.79604 10.2478L3.79593 10.2474L3.50296 9.07551L3.50285 9.07506C3.48941 9.02154 3.52994 8.96875 3.58625 8.96875H6.5091H6.84762L6.97334 8.65445L7.78583 6.62321C8.54533 4.72468 10.3546 3.5 12.3992 3.5H18.6004C20.6455 3.5 22.4543 4.72466 23.2133 6.62312L23.2133 6.6232L24.0258 8.65445ZM9.75875 7.41241L9.75872 7.41247L8.78558 9.84557L8.51133 10.5312H9.24982H21.7498H22.4883L22.2141 9.84557L21.2409 7.41247L21.2409 7.41241C20.809 6.33295 19.7633 5.625 18.6004 5.625H12.3992C11.2363 5.625 10.1906 6.33294 9.75875 7.41241ZM5.62482 13.9326C5.62482 14.514 5.82145 15.0371 6.20151 15.416C6.58143 15.7947 7.10542 15.9902 7.68732 15.9902C7.78009 15.9902 7.88567 15.9923 7.99956 15.9945C8.39358 16.0023 8.88697 16.0119 9.29271 15.9445C9.56129 15.8999 9.86463 15.8127 10.1084 15.6183C10.3779 15.4034 10.5311 15.092 10.5311 14.7114C10.5311 14.3608 10.4026 14.0121 10.2335 13.7087C10.0609 13.3991 9.82567 13.0997 9.56376 12.8386C9.30184 12.5775 9.00165 12.3431 8.69128 12.1712C8.38702 12.0027 8.03793 11.875 7.68732 11.875C7.10542 11.875 6.58143 12.0705 6.20151 12.4492C5.82145 12.8281 5.62482 13.3512 5.62482 13.9326ZM20.4686 14.7114C20.4686 15.092 20.6217 15.4034 20.8912 15.6183C21.135 15.8127 21.4384 15.8999 21.7069 15.9445C22.1127 16.0119 22.6061 16.0023 23.0001 15.9945C23.114 15.9923 23.2196 15.9902 23.3123 15.9902C23.8942 15.9902 24.4182 15.7947 24.7981 15.416C25.1782 15.0371 25.3748 14.514 25.3748 13.9326C25.3748 13.3512 25.1782 12.8281 24.7981 12.4492C24.4182 12.0705 23.8942 11.875 23.3123 11.875C22.9617 11.875 22.6126 12.0027 22.3084 12.1712C21.998 12.3431 21.6978 12.5775 21.4359 12.8386C21.174 13.0997 20.9387 13.3991 20.7662 13.7087C20.5971 14.0121 20.4686 14.3608 20.4686 14.7114Z" stroke="#5C5C5C"/>
<line x1="0.306087" y1="0.604638" x2="31.3061" y2="24.6046" stroke="#5C5C5C"/>
</svg>
