<?xml version="1.0" encoding="UTF-8"?>
<svg version="1.1" xmlns="http://www.w3.org/2000/svg" width="224" height="224">
<path d="M0 0 C3.0134206 2.52286376 4.1741627 4.62824422 5.74609375 8.16015625 C6.66750207 10.20560626 7.72165504 12.07775841 8.875 14 C12.46834502 20.44323935 11.90749765 27.00260249 11.92773438 34.2043457 C11.93748449 36.30915192 11.96855537 38.41299891 12 40.51757812 C12.00652661 41.85676506 12.01177843 43.19595894 12.015625 44.53515625 C12.0249707 45.75082275 12.03431641 46.96648926 12.04394531 48.21899414 C11.65332654 51.54059145 11.17504607 52.19956006 8.6875 54.25 C8.47755073 57.84313176 9.2052486 60.98048517 10.6875 64.25 C13.16213517 66.23271986 15.67335458 67.31070817 18.6875 68.25 C18.6875 69.24 18.6875 70.23 18.6875 71.25 C16.0475 70.92 13.4075 70.59 10.6875 70.25 C10.48125 71.44625 10.275 72.6425 10.0625 73.875 C9.94648438 74.54789062 9.83046875 75.22078125 9.7109375 75.9140625 C9.54991693 78.36310398 9.54991693 78.36310398 10.6678772 80.95245361 C11.79081321 84.58412365 11.95447973 87.54988317 11.97802734 91.34667969 C11.98474457 92.03065323 11.99146179 92.71462677 11.99838257 93.41932678 C12.01729962 95.67025137 12.02128556 97.92087593 12.0234375 100.171875 C12.02987697 101.75685746 12.03660616 103.34183878 12.04360962 104.92681885 C12.05557193 108.25218448 12.05929225 111.57744641 12.05810547 114.90283203 C12.05790399 119.11165599 12.08503138 123.31979164 12.11964989 127.52845383 C12.142191 130.80784997 12.14593459 134.08708868 12.14488602 137.36655426 C12.14720809 138.91470934 12.15583367 140.46287114 12.17155075 142.01094818 C12.27778152 153.57013271 10.61833341 164.07735359 7.6875 175.25 C7.20559708 177.10634064 7.20559708 177.10634064 6.71395874 179.00018311 C5.45438022 183.5978211 4.33891968 187.30505141 0.5 190.3125 C-8.06319457 194.90807324 -16.37891365 195.85508867 -26.00415039 196.12329102 C-28.11208747 196.18710907 -30.21597366 196.28862742 -32.32226562 196.39257812 C-41.34466834 196.74519483 -50.42861272 196.45829424 -58.06054688 190.99975586 C-61.9399271 186.97825549 -62.9435976 181.51789269 -64.125 176.25 C-64.44887695 174.93515625 -64.44887695 174.93515625 -64.77929688 173.59375 C-65.84727192 169.09130282 -66.69329189 164.90910075 -66.3125 160.25 C-65.9825 159.92 -65.6525 159.59 -65.3125 159.25 C-65.24732937 156.41878132 -65.24752774 153.61327958 -65.29077148 150.78295898 C-65.30037903 149.89523804 -65.30998657 149.00751709 -65.31988525 148.09289551 C-65.35299914 145.143884 -65.39328395 142.19501498 -65.43359375 139.24609375 C-65.45788277 137.20728567 -65.48172693 135.16847224 -65.50514221 133.12965393 C-65.56810436 127.75210502 -65.63713642 122.37465022 -65.70739746 116.99719238 C-65.77797164 111.51444806 -65.84285383 106.03163677 -65.90820312 100.54882812 C-66.03737172 89.7824785 -66.17294751 79.01621968 -66.3125 68.25 C-67.22 68.745 -68.1275 69.24 -69.0625 69.75 C-72.3125 71.25 -72.3125 71.25 -76.3125 71.25 C-75.9825 70.26 -75.6525 69.27 -75.3125 68.25 C-73.53515625 67.50390625 -73.53515625 67.50390625 -71.375 66.8125 C-69.12311978 65.92129403 -69.12311978 65.92129403 -67.3125 64.25 C-65.99725091 60.29368848 -65.57345929 56.39925276 -65.3125 52.25 C-66.3025 51.92 -67.2925 51.59 -68.3125 51.25 C-68.37095252 46.75005528 -68.40624855 42.25020937 -68.4375 37.75 C-68.46263672 35.84734375 -68.46263672 35.84734375 -68.48828125 33.90625 C-68.55206539 21.65969492 -66.35821893 12.53728544 -59.3125 2.25 C-43.07682442 -13.11278979 -18.03785255 -9.52943154 0 0 Z " fill="#DFE2E7" transform="translate(140.3125,11.75)"/>
<path d="M0 0 C3.0134206 2.52286376 4.1741627 4.62824422 5.74609375 8.16015625 C6.66750207 10.20560626 7.72165504 12.07775841 8.875 14 C12.46834502 20.44323935 11.90749765 27.00260249 11.92773438 34.2043457 C11.93748449 36.30915192 11.96855537 38.41299891 12 40.51757812 C12.00652661 41.85676506 12.01177843 43.19595894 12.015625 44.53515625 C12.0249707 45.75082275 12.03431641 46.96648926 12.04394531 48.21899414 C11.65332654 51.54059145 11.17504607 52.19956006 8.6875 54.25 C8.47755073 57.84313176 9.2052486 60.98048517 10.6875 64.25 C13.16213517 66.23271986 15.67335458 67.31070817 18.6875 68.25 C18.6875 69.24 18.6875 70.23 18.6875 71.25 C16.0475 70.92 13.4075 70.59 10.6875 70.25 C10.48125 71.44625 10.275 72.6425 10.0625 73.875 C9.94648438 74.54789062 9.83046875 75.22078125 9.7109375 75.9140625 C9.54991693 78.36310398 9.54991693 78.36310398 10.6678772 80.95245361 C11.79081321 84.58412365 11.95447973 87.54988317 11.97802734 91.34667969 C11.98474457 92.03065323 11.99146179 92.71462677 11.99838257 93.41932678 C12.01729962 95.67025137 12.02128556 97.92087593 12.0234375 100.171875 C12.02987697 101.75685746 12.03660616 103.34183878 12.04360962 104.92681885 C12.05557193 108.25218448 12.05929225 111.57744641 12.05810547 114.90283203 C12.05790399 119.11165599 12.08503138 123.31979164 12.11964989 127.52845383 C12.142191 130.80784997 12.14593459 134.08708868 12.14488602 137.36655426 C12.14720809 138.91470934 12.15583367 140.46287114 12.17155075 142.01094818 C12.27778152 153.57013271 10.61833341 164.07735359 7.6875 175.25 C7.20559708 177.10634064 7.20559708 177.10634064 6.71395874 179.00018311 C5.45438022 183.5978211 4.33891968 187.30505141 0.5 190.3125 C-8.06319457 194.90807324 -16.37891365 195.85508867 -26.00415039 196.12329102 C-28.11208747 196.18710907 -30.21597366 196.28862742 -32.32226562 196.39257812 C-41.34466834 196.74519483 -50.42861272 196.45829424 -58.06054688 190.99975586 C-61.9399271 186.97825549 -62.9435976 181.51789269 -64.125 176.25 C-64.44887695 174.93515625 -64.44887695 174.93515625 -64.77929688 173.59375 C-66.45534661 166.52773713 -66.95043822 161.17458782 -64.3125 154.25 C-63.9825 154.25 -63.6525 154.25 -63.3125 154.25 C-63.3125 156.23 -63.3125 158.21 -63.3125 160.25 C-62.6525 160.25 -61.9925 160.25 -61.3125 160.25 C-60.9825 162.89 -60.6525 165.53 -60.3125 168.25 C-59.6525 161.65 -58.9925 155.05 -58.3125 148.25 C-57.9825 148.25 -57.6525 148.25 -57.3125 148.25 C-57.3125 156.17 -57.3125 164.09 -57.3125 172.25 C-55.6625 172.58 -54.0125 172.91 -52.3125 173.25 C-51.43335937 173.49878906 -50.55421875 173.74757812 -49.6484375 174.00390625 C-33.01155833 178.54722286 -16.78043355 176.36698339 -0.3125 172.25 C-0.6425 163.34 -0.9725 154.43 -1.3125 145.25 C-2.3025 144.92 -3.2925 144.59 -4.3125 144.25 C-3.3225 144.25 -2.3325 144.25 -1.3125 144.25 C-1.46460938 143.115625 -1.61671875 141.98125 -1.7734375 140.8125 C-2.51780706 134.07898029 -2.67731297 127.31812205 -2.87011719 120.55126953 C-2.93654729 118.2825372 -3.01483449 116.01442145 -3.09375 113.74609375 C-3.48901384 101.17950015 -3.22757543 88.69698133 -1.3125 76.25 C-2.7975 75.755 -2.7975 75.755 -4.3125 75.25 C-2.6625 75.25 -1.0125 75.25 0.6875 75.25 C0.6565625 74.26257813 0.625625 73.27515625 0.59375 72.2578125 C0.59375 68.08624689 1.33347965 64.19506093 2.1875 60.125 C3.08360647 55.8059283 3.89465485 51.68656641 3.6875 47.25 C2.36491528 46.56225595 1.02763497 45.90288627 -0.3125 45.25 C-1.281875 44.775625 -2.25125 44.30125 -3.25 43.8125 C-17.65785358 37.85482215 -34.60641852 36.86652374 -49.3125 42.25 C-53.89685478 43.92505271 -57.40897551 44.44614098 -62.3125 44.25 C-62.6425 42.6 -62.9725 40.95 -63.3125 39.25 C-63.9725 39.25 -64.6325 39.25 -65.3125 39.25 C-65.6425 35.62 -65.9725 31.99 -66.3125 28.25 C-66.6425 34.52 -66.9725 40.79 -67.3125 47.25 C-67.6425 47.25 -67.9725 47.25 -68.3125 47.25 C-68.37109888 43.41673205 -68.40629643 39.58358112 -68.4375 35.75 C-68.46263672 34.13351563 -68.46263672 34.13351563 -68.48828125 32.484375 C-68.55893597 20.89700169 -65.95325574 11.94600838 -59.3125 2.25 C-43.07682442 -13.11278979 -18.03785255 -9.52943154 0 0 Z " fill="#E3E5EA" transform="translate(140.3125,11.75)"/>
<path d="M0 0 C1.65 0.33 3.3 0.66 5 1 C5 2.65 5 4.3 5 6 C6.32 5.67 7.64 5.34 9 5 C9 5.66 9 6.32 9 7 C8.34 7 7.68 7 7 7 C7.88921126 14.61739328 7.88921126 14.61739328 11.98046875 20.6875 C13.97089415 21.64572249 15.87200769 22.41366483 18 23 C18 23.99 18 24.98 18 26 C15.36 25.67 12.72 25.34 10 25 C9.79375 26.19625 9.5875 27.3925 9.375 28.625 C9.20097656 29.63433594 9.20097656 29.63433594 9.0234375 30.6640625 C8.86241693 33.11310398 8.86241693 33.11310398 9.9803772 35.70245361 C11.10331321 39.33412365 11.26697973 42.29988317 11.29052734 46.09667969 C11.29724457 46.78065323 11.30396179 47.46462677 11.31088257 48.16932678 C11.32979962 50.42025137 11.33378556 52.67087593 11.3359375 54.921875 C11.34237697 56.50685746 11.34910616 58.09183878 11.35610962 59.67681885 C11.36807193 63.00218448 11.37179225 66.32744641 11.37060547 69.65283203 C11.37040399 73.86165599 11.39753138 78.06979164 11.43214989 82.27845383 C11.454691 85.55784997 11.45843459 88.83708868 11.45738602 92.11655426 C11.45970809 93.66470934 11.46833367 95.21287114 11.48405075 96.76094818 C11.59028152 108.32013271 9.93083341 118.82735359 7 130 C6.51809708 131.85634064 6.51809708 131.85634064 6.02645874 133.75018311 C4.76688022 138.3478211 3.65141968 142.05505141 -0.1875 145.0625 C-8.75069457 149.65807324 -17.06641365 150.60508867 -26.69165039 150.87329102 C-28.79958747 150.93710907 -30.90347366 151.03862742 -33.00976562 151.14257812 C-42.03216834 151.49519483 -51.11611272 151.20829424 -58.74804688 145.74975586 C-62.6274271 141.72825549 -63.6310976 136.26789269 -64.8125 131 C-65.13637695 129.68515625 -65.13637695 129.68515625 -65.46679688 128.34375 C-67.14284661 121.27773713 -67.63793822 115.92458782 -65 109 C-64.67 109 -64.34 109 -64 109 C-64 110.98 -64 112.96 -64 115 C-63.34 115 -62.68 115 -62 115 C-61.67 117.64 -61.34 120.28 -61 123 C-60.34 116.4 -59.68 109.8 -59 103 C-58.67 103 -58.34 103 -58 103 C-58 110.92 -58 118.84 -58 127 C-56.35 127.33 -54.7 127.66 -53 128 C-52.12085937 128.24878906 -51.24171875 128.49757812 -50.3359375 128.75390625 C-33.69905833 133.29722286 -17.46793355 131.11698339 -1 127 C-1.33 118.09 -1.66 109.18 -2 100 C-3.485 99.505 -3.485 99.505 -5 99 C-4.01 99 -3.02 99 -2 99 C-2.15210938 97.865625 -2.30421875 96.73125 -2.4609375 95.5625 C-3.20530706 88.82898029 -3.36481297 82.06812205 -3.55761719 75.30126953 C-3.62404729 73.0325372 -3.70233449 70.76442145 -3.78125 68.49609375 C-4.17651384 55.92950015 -3.91507543 43.44698133 -2 31 C-2.99 30.67 -3.98 30.34 -5 30 C-3.35 30 -1.7 30 0 30 C-0.0309375 29.01257813 -0.061875 28.02515625 -0.09375 27.0078125 C-0.09375 22.83624689 0.64597965 18.94506093 1.5 14.875 C2.39610647 10.5559283 3.20715485 6.43656641 3 2 C2.01 1.67 1.02 1.34 0 1 C0 0.67 0 0.34 0 0 Z " fill="#DADBDF" transform="translate(141,57)"/>
<path d="M0 0 C0.33 0 0.66 0 1 0 C1.6959106 4.12561874 2.38958896 8.25160508 3.08129883 12.37792969 C3.31637894 13.77842065 3.55204382 15.17881359 3.78833008 16.57910156 C4.12999904 18.6045556 4.4694866 20.63036568 4.80859375 22.65625 C5.01282959 23.87119141 5.21706543 25.08613281 5.42749023 26.33789062 C6.67470767 34.31582731 7.13644389 41.86422237 7.09765625 49.9375 C7.0962413 51.05817871 7.09482635 52.17885742 7.09336853 53.33349609 C7.08780139 56.88902533 7.07525498 60.44449002 7.0625 64 C7.05748075 66.420572 7.05291859 68.841145 7.04882812 71.26171875 C7.03784272 77.17450094 7.02113752 83.08724585 7 89 C15.492718 93.37043551 24.62408341 93.3152616 34 93.25 C35.11117187 93.25773437 36.22234375 93.26546875 37.3671875 93.2734375 C43.37975279 93.25929029 48.93188736 92.85349148 54.78125 91.42871094 C57.23152756 90.95526382 59.51033811 90.93096448 62 91 C63.01894076 96.84888043 63.11798453 102.50919169 63.0625 108.4375 C63.05798828 109.35982422 63.05347656 110.28214844 63.04882812 111.23242188 C63.03713938 113.48835048 63.02075455 115.74413967 63 118 C44.65117271 125.13239825 24.33688013 125.33475205 6 118 C5.505 112.06 5.505 112.06 5 106 C4.67 108.97 4.34 111.94 4 115 C3.34 114.67 2.68 114.34 2 114 C2 111.36 2 108.72 2 106 C1.34 106 0.68 106 0 106 C-2.63443418 88.04962801 -2.43752676 69.95506597 -2.60089111 51.85534668 C-2.64145136 47.57731835 -2.69230134 43.29941232 -2.7421875 39.02148438 C-2.83798002 30.68107431 -2.92268171 22.34060174 -3 14 C-3.9075 14.495 -4.815 14.99 -5.75 15.5 C-9 17 -9 17 -13 17 C-12 14 -12 14 -10.1875 13.04296875 C-9.465625 12.76066406 -8.74375 12.47835937 -8 12.1875 C-5.82046668 11.25243894 -5.82046668 11.25243894 -4 10 C-2.86521065 6.87866256 -2.86521065 6.87866256 -3 4 C-2.34 4 -1.68 4 -1 4 C-0.67 2.68 -0.34 1.36 0 0 Z " fill="#273C3F" transform="translate(77,66)"/>
<path d="M0 0 C3.38472031 2.83211291 3.6573355 3.3788437 4.0625 7.5625 C3.80883789 10.24145508 3.80883789 10.24145508 3.28515625 13.08203125 C3.10146484 14.10361328 2.91777344 15.12519531 2.72851562 16.17773438 C2.42977539 17.76038086 2.42977539 17.76038086 2.125 19.375 C1.92970703 20.44943359 1.73441406 21.52386719 1.53320312 22.63085938 C1.05113538 25.27635307 0.56064846 27.91999543 0.0625 30.5625 C-4.03587695 30.7406903 -7.56287316 30.49599222 -11.56640625 29.58203125 C-17.67245353 28.27631382 -23.65034263 28.23187345 -29.875 28.25 C-30.97779297 28.23388672 -32.08058594 28.21777344 -33.21679688 28.20117188 C-39.74658858 28.19731949 -45.37521171 28.91455603 -51.59985352 30.91723633 C-53.9375 31.5625 -53.9375 31.5625 -57.9375 31.5625 C-58.61730581 28.39851018 -59.27888686 25.23096323 -59.9375 22.0625 C-60.12828125 21.175625 -60.3190625 20.28875 -60.515625 19.375 C-61.62292269 13.99669692 -62.34642891 9.05557491 -61.9375 3.5625 C-57.22934359 -2.35632521 -50.00374627 -3.5750785 -42.9375 -5.4375 C-42.29280762 -5.614021 -41.64811523 -5.79054199 -40.98388672 -5.97241211 C-28.07265376 -8.90678324 -11.50740025 -6.45886053 0 0 Z " fill="#223435" transform="translate(140.9375,56.4375)"/>
<path d="M0 0 C1.22264305 -0.0049926 1.22264305 -0.0049926 2.46998596 -0.01008606 C4.19751418 -0.01515867 5.92505223 -0.01749428 7.65258789 -0.01733398 C10.3017587 -0.01951917 12.95051241 -0.03766746 15.59960938 -0.05664062 C17.27473815 -0.05957469 18.94986892 -0.0615594 20.625 -0.0625 C21.42087021 -0.06968552 22.21674042 -0.07687103 23.03672791 -0.08427429 C28.65008398 -0.06085352 28.65008398 -0.06085352 30.87890625 2.16796875 C31.27711236 6.44381748 31.2079502 10.73406224 31.19458008 15.02636719 C31.19141802 17.1600236 31.21488263 19.29229619 31.24023438 21.42578125 C31.24250713 22.777342 31.24321097 24.12890648 31.2421875 25.48046875 C31.24516846 26.71410156 31.24814941 27.94773437 31.2512207 29.21875 C31.06692505 30.67861328 31.06692505 30.67861328 30.87890625 32.16796875 C27.16553411 34.64355018 24.29663484 34.45697933 20 34.43359375 C18.84818993 34.43646393 18.84818993 34.43646393 17.67311096 34.43939209 C16.05168327 34.44075192 14.43024461 34.43706953 12.80883789 34.42871094 C10.32218095 34.41799364 7.83624405 34.42862023 5.34960938 34.44140625 C3.77473798 34.44008491 2.19986704 34.43752303 0.625 34.43359375 C-0.49377281 34.43966644 -0.49377281 34.43966644 -1.63514709 34.44586182 C-6.89116128 34.39790122 -6.89116128 34.39790122 -9.12109375 32.16796875 C-9.36401367 29.11108398 -9.36401367 29.11108398 -9.3515625 25.2265625 C-9.35110428 24.54368668 -9.35064606 23.86081085 -9.35017395 23.15724182 C-9.34715266 21.71394106 -9.33926997 20.27064353 -9.3269043 18.82739258 C-9.30863705 16.61072322 -9.30639468 14.39447117 -9.30664062 12.17773438 C-9.2639473 0.01292043 -9.2639473 0.01292043 0 0 Z " fill="#26393A" transform="translate(101.12109375,94.83203125)"/>
<path d="M0 0 C0.33 0 0.66 0 1 0 C1 7.92 1 15.84 1 24 C2.65 24.33 4.3 24.66 6 25 C6.87914063 25.24878906 7.75828125 25.49757812 8.6640625 25.75390625 C22.72371675 29.59341605 36.67839465 28.75428968 50.77734375 25.65625 C54 25 54 25 58 25 C59.31626692 28.61973402 60 31.09567131 60 35 C60.66 35 61.32 35 62 35 C61.505 31.535 61.505 31.535 61 28 C61.66 28 62.32 28 63 28 C64.63676257 26.0399719 64.63676257 26.0399719 66 24 C63.29530462 38.03259604 63.29530462 38.03259604 58.375 42.25 C49.86624357 46.66194778 41.8206496 47.6082356 32.30834961 47.87329102 C30.20041253 47.93710907 28.09652634 48.03862742 25.99023438 48.14257812 C16.96783166 48.49519483 7.88388728 48.20829424 0.25195312 42.74975586 C-3.6274271 38.72825549 -4.6310976 33.26789269 -5.8125 28 C-6.02841797 27.1234375 -6.24433594 26.246875 -6.46679688 25.34375 C-8.14284661 18.27773713 -8.63793822 12.92458782 -6 6 C-5.67 6 -5.34 6 -5 6 C-5 7.98 -5 9.96 -5 12 C-4.34 12 -3.68 12 -3 12 C-2.67 14.64 -2.34 17.28 -2 20 C-1.34 13.4 -0.68 6.8 0 0 Z " fill="#E3E4E9" transform="translate(82,160)"/>
<path d="M0 0 C0.33 0 0.66 0 1 0 C1.6959106 4.12561874 2.38958896 8.25160508 3.08129883 12.37792969 C3.31637894 13.77842065 3.55204382 15.17881359 3.78833008 16.57910156 C4.12999904 18.6045556 4.4694866 20.63036568 4.80859375 22.65625 C5.01282959 23.87119141 5.21706543 25.08613281 5.42749023 26.33789062 C6.62264155 33.98278178 7.12812904 41.1861072 7.0625 48.91796875 C7.05394767 51.06925421 7.04548759 53.22054003 7.03710938 55.37182617 C7.02780396 57.04418839 7.02780396 57.04418839 7.01831055 58.75033569 C6.91296141 78.52594915 7.02125156 98.24542043 8 118 C7.34 118 6.68 118 6 118 C5.505 112.06 5.505 112.06 5 106 C4.67 108.97 4.34 111.94 4 115 C3.34 114.67 2.68 114.34 2 114 C2 111.36 2 108.72 2 106 C1.34 106 0.68 106 0 106 C-2.63443418 88.04962801 -2.43752676 69.95506597 -2.60089111 51.85534668 C-2.64145136 47.57731835 -2.69230134 43.29941232 -2.7421875 39.02148438 C-2.83798002 30.68107431 -2.92268171 22.34060174 -3 14 C-3.9075 14.495 -4.815 14.99 -5.75 15.5 C-9 17 -9 17 -13 17 C-12 14 -12 14 -10.1875 13.04296875 C-9.465625 12.76066406 -8.74375 12.47835937 -8 12.1875 C-5.82046668 11.25243894 -5.82046668 11.25243894 -4 10 C-2.86521065 6.87866256 -2.86521065 6.87866256 -3 4 C-2.34 4 -1.68 4 -1 4 C-0.67 2.68 -0.34 1.36 0 0 Z " fill="#344143" transform="translate(77,66)"/>
<path d="M0 0 C0.495 1.485 0.495 1.485 1 3 C1.66 3 2.32 3 3 3 C5.1875 4.75 5.1875 4.75 7 7 C6.75 9.25 6.75 9.25 6 11 C5.01 10.67 4.02 10.34 3 10 C3 10.99 3 11.98 3 13 C2.34 13.66 1.68 14.32 1 15 C1.66 15 2.32 15 3 15 C2.31477461 18.02468175 1.37595057 20.82290798 0.1875 23.6875 C-0.12832031 24.47511719 -0.44414062 25.26273438 -0.76953125 26.07421875 C-2 28 -2 28 -3.76171875 28.83203125 C-6.64899147 29.04870268 -9.14202651 28.50260913 -12 28 C-15.45478083 27.73562544 -18.91360882 27.58810261 -22.375 27.4375 C-23.76525391 27.37272461 -23.76525391 27.37272461 -25.18359375 27.30664062 C-27.45560294 27.20123814 -29.72770925 27.09911394 -32 27 C-32 26.01 -32 25.02 -32 24 C-31.34 23.67 -30.68 23.34 -30 23 C-26.80279615 16.21726794 -25.23276119 8.99179055 -23.90625 1.65234375 C-23 -1 -23 -1 -21.1640625 -2.3515625 C-14.29655889 -4.40933434 -6.38767033 -3.07976963 0 0 Z " fill="#415457" transform="translate(136,57)"/>
<path d="M0 0 C1.94723595 2.92085393 2.55175352 4.59332678 3 8 C2.67 8.33 2.34 8.66 2 9 C1.88025734 11.48656593 1.82456338 13.94661559 1.81054688 16.43457031 C1.80225357 17.21362732 1.79396027 17.99268433 1.78541565 18.79534912 C1.76796706 20.49502745 1.75281357 22.19473049 1.73963928 23.89444733 C1.71861898 26.59495789 1.69158518 29.29534858 1.66296387 31.99578857 C1.60314492 37.74714563 1.55121079 43.49856081 1.5 49.25 C1.44052959 55.8755881 1.37776195 62.5011203 1.30812073 69.1266098 C1.28184882 71.76792101 1.26083755 74.40923848 1.2401123 77.05059814 C1.15529579 86.0794517 0.86577524 95.00600706 0 104 C-0.66 104 -1.32 104 -2 104 C-4.70762321 87.9315456 -5.34661138 71.993461 -5.421875 55.72549438 C-5.43212981 53.52653831 -5.44900068 51.3276011 -5.47314453 49.12875366 C-5.63001033 32.81922333 -5.2098119 15.62943569 0 0 Z " fill="#232F32" transform="translate(146,66)"/>
<path d="M0 0 C1.65 0.33 3.3 0.66 5 1 C5 2.65 5 4.3 5 6 C6.32 5.67 7.64 5.34 9 5 C9 5.66 9 6.32 9 7 C8.34 7 7.68 7 7 7 C7 8.65 7 10.3 7 12 C6.34 12 5.68 12 5 12 C1.84990554 27.63124934 0.40408919 42.67146475 0.58837891 58.61132812 C0.62522268 61.89484556 0.62939359 65.17723299 0.62890625 68.4609375 C0.66427045 78.77356437 0.92751298 88.94629665 2.30752563 99.17623901 C2.93721227 103.84517877 3.08183941 108.30110827 3 113 C3.66 113 4.32 113 5 113 C4.01 117.95 4.01 117.95 3 123 C2.34 123 1.68 123 1 123 C0.34 123.99 -0.32 124.98 -1 126 C-1.33 117.42 -1.66 108.84 -2 100 C-2.99 99.67 -3.98 99.34 -5 99 C-4.01 99 -3.02 99 -2 99 C-2.15210938 97.865625 -2.30421875 96.73125 -2.4609375 95.5625 C-3.20530706 88.82898029 -3.36481297 82.06812205 -3.55761719 75.30126953 C-3.62404729 73.0325372 -3.70233449 70.76442145 -3.78125 68.49609375 C-4.17651384 55.92950015 -3.91507543 43.44698133 -2 31 C-2.99 30.67 -3.98 30.34 -5 30 C-3.35 30 -1.7 30 0 30 C-0.0309375 29.01257813 -0.061875 28.02515625 -0.09375 27.0078125 C-0.09375 22.83624689 0.64597965 18.94506093 1.5 14.875 C2.39610647 10.5559283 3.20715485 6.43656641 3 2 C2.01 1.67 1.02 1.34 0 1 C0 0.67 0 0.34 0 0 Z " fill="#9CA4A8" transform="translate(141,57)"/>
<path d="M0 0 C0.33 0 0.66 0 1 0 C0.99666908 0.86180122 0.99666908 0.86180122 0.99327087 1.74101257 C0.80256137 40.88264535 0.80256137 40.88264535 2 80 C1.34 80 0.68 80 0 80 C-0.33 76.04 -0.66 72.08 -1 68 C-1.33 70.97 -1.66 73.94 -2 77 C-2.66 76.67 -3.32 76.34 -4 76 C-4 73.36 -4 70.72 -4 68 C-4.66 68 -5.32 68 -6 68 C-7.67847812 54.71125973 -8.25867152 41.69856801 -8.125 28.3125 C-8.11492809 26.52018742 -8.10580984 24.72786921 -8.09765625 22.93554688 C-8.07602669 18.62355415 -8.04174098 14.31184297 -8 10 C-7.01 10.495 -7.01 10.495 -6 11 C-6 11.66 -6 12.32 -6 13 C-5.01 13.33 -4.02 13.66 -3 14 C-3 23.57 -3 33.14 -3 43 C-4.485 43.495 -4.485 43.495 -6 44 C-5.85980308 46.81288705 -5.71312045 49.62516885 -5.5625 52.4375 C-5.52318359 53.23994141 -5.48386719 54.04238281 -5.44335938 54.86914062 C-5.5945704 58.75239561 -5.5945704 58.75239561 -4 62 C-0.2564704 41.46944772 -0.27666426 20.80331845 0 0 Z " fill="#A1A7AB" transform="translate(83,104)"/>
<path d="M0 0 C2.475 0.99 2.475 0.99 5 2 C4.34 2.66 3.68 3.32 3 4 C1.84352055 9.41419781 1.84352055 9.41419781 2.98774719 14.68516541 C4.12042726 18.39436436 4.24727315 21.42810185 4.24291992 25.30297852 C4.24481827 26.00783386 4.24671661 26.71268921 4.24867249 27.43890381 C4.2523558 29.75235369 4.2417113 32.0654846 4.23046875 34.37890625 C4.22927545 35.99503035 4.2288241 37.61115515 4.2290802 39.22727966 C4.22751956 42.60721201 4.2192617 45.98703781 4.20581055 49.36694336 C4.1888078 53.69337861 4.1849969 58.01969709 4.18575573 62.34616184 C4.18548348 65.68077198 4.17999366 69.01535674 4.17275429 72.34995842 C4.16957881 73.94511664 4.16760284 75.54027772 4.16686058 77.13543892 C4.16468587 79.36581418 4.1559177 81.59606716 4.14526367 83.82641602 C4.14145187 85.09405289 4.13764008 86.36168976 4.13371277 87.66773987 C4.01694538 90.57770366 3.67593523 93.17513992 3 96 C2.67 96 2.34 96 2 96 C2 88.74 2 81.48 2 74 C1.01 74.495 1.01 74.495 0 75 C0 50.25 0 25.5 0 0 Z " fill="#DEE0E3" transform="translate(148,78)"/>
<path d="M0 0 C0.66 0.33 1.32 0.66 2 1 C2 4.63 2 8.26 2 12 C2.66 12 3.32 12 4 12 C4.3403125 12.9590625 4.3403125 12.9590625 4.6875 13.9375 C5.85250896 16.27193661 5.85250896 16.27193661 8.625 16.75 C9.40875 16.8325 10.1925 16.915 11 17 C10.34 17.495 9.68 17.99 9 18.5 C6.2673549 21.91580637 6.66103915 24.82930783 7 29 C7.51289283 32.50966215 8.20502788 35.96776181 8.9375 39.4375 C9.11990234 40.34693359 9.30230469 41.25636719 9.49023438 42.19335938 C10.04381406 46.43232882 10.04381406 46.43232882 12 50 C12.26303159 52.67038034 12.45311333 55.31024118 12.58984375 57.98828125 C12.63302231 58.82780838 12.67620087 59.66733551 12.72068787 60.53230286 C13.21591331 71.75361339 12.85874035 82.96497014 12.5625 94.1875 C12.50910447 96.4133957 12.4563663 98.63930726 12.40429688 100.86523438 C12.27708238 106.24369548 12.14185634 111.62190615 12 117 C10 115 10 115 9.78640747 113.04971313 C9.80291351 112.25036346 9.81941956 111.45101379 9.83642578 110.62744141 C9.85576172 109.26029243 9.85576172 109.26029243 9.87548828 107.86552429 C9.89853027 106.8709169 9.92157227 105.87630951 9.9453125 104.8515625 C9.97390099 102.72193808 10.00136348 100.59229831 10.02783203 98.46264648 C10.04444885 97.34477753 10.06106567 96.22690857 10.07818604 95.07516479 C10.39119969 72.00622162 9.16352009 50.53806744 4 28 C3.34 28.99 2.68 29.98 2 31 C2 29.02 2 27.04 2 25 C1.01 24.67 0.02 24.34 -1 24 C-0.67 16.08 -0.34 8.16 0 0 Z " fill="#D0D5DA" transform="translate(73,39)"/>
<path d="M0 0 C0.33 0 0.66 0 1 0 C1 7.92 1 15.84 1 24 C1.99 24.33 2.98 24.66 4 25 C3.01 25 2.02 25 1 25 C-0.33274415 31.7760469 -0.33274415 31.7760469 2 38 C5.85349894 40.54476345 9.65506958 42.4200253 14 44 C10.53268663 45.15577112 9.07323156 44.83838366 5.5625 44 C4.61503906 43.79375 3.66757813 43.5875 2.69140625 43.375 C-1.67219584 41.14569966 -3.20873421 37.39330339 -4.68334961 32.93310547 C-5.27393486 30.7782741 -5.77644758 28.62088719 -6.25 26.4375 C-6.42273438 25.70853516 -6.59546875 24.97957031 -6.7734375 24.22851562 C-8.27553345 17.60617991 -8.46108615 12.46035113 -6 6 C-5.67 6 -5.34 6 -5 6 C-5 7.98 -5 9.96 -5 12 C-4.34 12 -3.68 12 -3 12 C-2.67 14.64 -2.34 17.28 -2 20 C-1.34 13.4 -0.68 6.8 0 0 Z " fill="#D6D7DB" transform="translate(82,160)"/>
<path d="M0 0 C1.65 0.33 3.3 0.66 5 1 C5 2.65 5 4.3 5 6 C6.32 5.67 7.64 5.34 9 5 C9 5.66 9 6.32 9 7 C8.34 7 7.68 7 7 7 C7 8.65 7 10.3 7 12 C6.34 12 5.68 12 5 12 C3.59086368 19.98818255 2.26424566 27.98762147 1 36 C0.87270508 36.78842285 0.74541016 37.5768457 0.61425781 38.38916016 C-2.17137848 56.37031696 -1.18064334 74.86201885 -1 93 C-3.3769353 89.43459705 -3.36221679 86.77555733 -3.44921875 82.6484375 C-3.48182549 81.54999008 -3.48182549 81.54999008 -3.51509094 80.42935181 C-3.55903966 78.87099357 -3.59823232 77.31249509 -3.63305664 75.75390625 C-3.68620119 73.4317515 -3.75681423 71.11065867 -3.83007812 68.7890625 C-4.18543184 56.13239283 -3.9285723 43.53419661 -2 31 C-2.99 30.67 -3.98 30.34 -5 30 C-3.35 30 -1.7 30 0 30 C-0.0309375 29.01257813 -0.061875 28.02515625 -0.09375 27.0078125 C-0.09375 22.83624689 0.64597965 18.94506093 1.5 14.875 C2.39610647 10.5559283 3.20715485 6.43656641 3 2 C2.01 1.67 1.02 1.34 0 1 C0 0.67 0 0.34 0 0 Z " fill="#CDD3D9" transform="translate(141,57)"/>
<path d="M0 0 C0.33 0 0.66 0 1 0 C2.13827235 9.81359312 1.9380483 19.40870856 1.5625 29.25 C1.50912237 30.78513402 1.45638387 32.3202904 1.40429688 33.85546875 C1.27688018 37.5705987 1.14088056 41.28535333 1 45 C-0.485 45.495 -0.485 45.495 -2 46 C-2.33 35.44 -2.66 24.88 -3 14 C-4.98 14.99 -6.96 15.98 -9 17 C-10.32 17 -11.64 17 -13 17 C-12 14 -12 14 -10.1875 13.04296875 C-9.465625 12.76066406 -8.74375 12.47835937 -8 12.1875 C-5.82046668 11.25243894 -5.82046668 11.25243894 -4 10 C-2.86521065 6.87866256 -2.86521065 6.87866256 -3 4 C-2.34 4 -1.68 4 -1 4 C-0.67 2.68 -0.34 1.36 0 0 Z " fill="#536769" transform="translate(77,66)"/>
<path d="M0 0 C0.75023437 0.22945312 1.50046875 0.45890625 2.2734375 0.6953125 C5.49874927 2.31332605 7.40512486 4.02542958 9.625 6.875 C9.74609375 10.00390625 9.74609375 10.00390625 9.0625 13.4375 C8.83691406 14.65824219 8.61132812 15.87898438 8.37890625 17.13671875 C8.13011719 18.37035156 7.88132813 19.60398437 7.625 20.875 C7.24283654 23.16548296 6.86719522 25.45706983 6.5 27.75 C6.2100251 29.45862131 5.91903866 31.16707334 5.625 32.875 C3.315 32.875 1.005 32.875 -1.375 32.875 C-1.375 29.87504872 -0.86885102 28.10540541 0.125 25.3125 C1.28039656 22.16396683 1.28039656 22.16396683 1.625 18.875 C1.625 17.885 1.625 16.895 1.625 15.875 C2.285 15.875 2.945 15.875 3.625 15.875 C3.625 14.885 3.625 13.895 3.625 12.875 C4.615 12.875 5.605 12.875 6.625 12.875 C6.955 11.885 7.285 10.895 7.625 9.875 C6.305 9.215 4.985 8.555 3.625 7.875 C3.625 7.215 3.625 6.555 3.625 5.875 C2.965 5.875 2.305 5.875 1.625 5.875 C1.295 5.215 0.965 4.555 0.625 3.875 C-3.26915629 2.35498351 -3.26915629 2.35498351 -7.375 1.875 C-7.375 1.215 -7.375 0.555 -7.375 -0.125 C-4.04258764 -1.23580412 -3.22832199 -1.04672556 0 0 Z " fill="#2C3C40" transform="translate(135.375,54.125)"/>
<path d="M0 0 C0.99 0.495 0.99 0.495 2 1 C2 1.66 2 2.32 2 3 C2.99 3.33 3.98 3.66 5 4 C5 13.57 5 23.14 5 33 C3.515 33.495 3.515 33.495 2 34 C2 35.65 2 37.3 2 39 C1.34 39 0.68 39 0 39 C0 26.13 0 13.26 0 0 Z " fill="#6A7B7F" transform="translate(75,114)"/>
<path d="M0 0 C2.50916948 3.80282434 2.25607884 7.66162039 2.1953125 12.046875 C2.1924826 12.81807678 2.18965271 13.58927856 2.18673706 14.3838501 C2.17557013 16.83939332 2.15047229 19.2945676 2.125 21.75 C2.11496568 23.41796347 2.10584061 25.08593268 2.09765625 26.75390625 C2.07564225 30.83607897 2.04113667 34.917977 2 39 C0.02 39.495 0.02 39.495 -2 40 C-2.17221435 38.35473791 -2.33740831 36.70874089 -2.5 35.0625 C-2.5928125 34.14597656 -2.685625 33.22945312 -2.78125 32.28515625 C-3.30223602 24.46106255 -2.7600189 17.17356196 -1.5 9.4375 C-1.35691406 8.52419922 -1.21382812 7.61089844 -1.06640625 6.66992188 C-0.71703202 4.44557264 -0.36148178 2.2224079 0 0 Z " fill="#5F6B6D" transform="translate(144,73)"/>
<path d="M0 0 C0 10.23 0 20.46 0 31 C-5 26 -5 26 -5.5234375 22.328125 C-5.50120887 20.96803145 -5.45069329 19.60816755 -5.375 18.25 C-5.35356934 17.54351318 -5.33213867 16.83702637 -5.31005859 16.10913086 C-5.23760874 14.0714204 -5.11985118 12.03547258 -5 10 C-4.94328125 9.00613281 -4.8865625 8.01226562 -4.828125 6.98828125 C-4.625 4.5625 -4.625 4.5625 -4 1 C-2 0 -2 0 0 0 Z " fill="#4A585B" transform="translate(146,118)"/>
<path d="M0 0 C0.66 0.33 1.32 0.66 2 1 C2 4.63 2 8.26 2 12 C2.66 12 3.32 12 4 12 C4.3403125 12.9590625 4.3403125 12.9590625 4.6875 13.9375 C5.85250896 16.27193661 5.85250896 16.27193661 8.625 16.75 C9.40875 16.8325 10.1925 16.915 11 17 C10.38125 17.53625 9.7625 18.0725 9.125 18.625 C6.69738598 21.33821567 6.07595985 23.55692849 5 27 C3.375 29.375 3.375 29.375 2 31 C2 29.02 2 27.04 2 25 C1.01 24.67 0.02 24.34 -1 24 C-0.67 16.08 -0.34 8.16 0 0 Z " fill="#D8DBDE" transform="translate(73,39)"/>
<path d="M0 0 C1.19882813 0.00483398 1.19882813 0.00483398 2.421875 0.00976562 C3.246875 0.01814453 4.071875 0.02652344 4.921875 0.03515625 C5.76234375 0.03966797 6.6028125 0.04417969 7.46875 0.04882812 C9.53648901 0.06057664 11.60419124 0.07851103 13.671875 0.09765625 C13.671875 0.42765625 13.671875 0.75765625 13.671875 1.09765625 C10.041875 1.42765625 6.411875 1.75765625 2.671875 2.09765625 C2.671875 2.42765625 2.671875 2.75765625 2.671875 3.09765625 C-0.958125 3.09765625 -4.588125 3.09765625 -8.328125 3.09765625 C-8.328125 3.75765625 -8.328125 4.41765625 -8.328125 5.09765625 C-11.298125 5.75765625 -14.268125 6.41765625 -17.328125 7.09765625 C-17.658125 8.41765625 -17.988125 9.73765625 -18.328125 11.09765625 C-17.668125 11.42765625 -17.008125 11.75765625 -16.328125 12.09765625 C-17.648125 12.09765625 -18.968125 12.09765625 -20.328125 12.09765625 C-22.33213511 12.4059655 -24.33324266 12.73495037 -26.328125 13.09765625 C-26.328125 14.74765625 -26.328125 16.39765625 -26.328125 18.09765625 C-26.658125 18.09765625 -26.988125 18.09765625 -27.328125 18.09765625 C-28.04946463 11.00448321 -28.04946463 11.00448321 -25.140625 7.34765625 C-20.23560537 3.8659157 -14.06413095 2.60947177 -8.328125 1.09765625 C-7.69503418 0.91823486 -7.06194336 0.73881348 -6.40966797 0.55395508 C-4.20503325 0.07067308 -2.25477404 -0.01610553 0 0 Z " fill="#323538" transform="translate(106.328125,49.90234375)"/>
<path d="M0 0 C0.66 0.33 1.32 0.66 2 1 C2.04125 1.928125 2.0825 2.85625 2.125 3.8125 C2.64738283 7.04522654 2.64738283 7.04522654 4.83984375 8.28515625 C6.86791383 9.2795878 8.89405823 10.18448724 11 11 C11 11.99 11 12.98 11 14 C6.69425578 13.38489368 5.01554924 12.40932954 1 10 C0.67 33.76 0.34 57.52 0 82 C-0.33 82 -0.66 82 -1 82 C-1.02316562 72.15991846 -1.04093665 62.3198434 -1.05181217 52.47974014 C-1.05703174 47.91063728 -1.06411264 43.34155307 -1.07543945 38.77246094 C-1.08630115 34.36341926 -1.09228382 29.95439552 -1.09487724 25.54534149 C-1.09672556 23.86282824 -1.10033481 22.18031598 -1.10573006 20.49781036 C-1.11298401 18.1420733 -1.1139891 15.78641049 -1.11352539 13.43066406 C-1.11712067 12.73438904 -1.12071594 12.03811401 -1.12442017 11.32073975 C-1.11744731 8.0491686 -0.93180028 5.13921186 0 2 C0 1.34 0 0.68 0 0 Z " fill="#9DA3A6" transform="translate(148,69)"/>
<path d="M0 0 C0.99 0 1.98 0 3 0 C3.02499523 5.4585742 3.04299763 10.91711401 3.05493164 16.37573242 C3.05991458 18.22697532 3.06670335 20.07821437 3.07543945 21.92944336 C3.1232875 32.34061559 3.06306261 42.6318437 2 53 C1.34 53 0.68 53 0 53 C-2.29612756 36.29157175 -2.29612756 36.29157175 -2 28 C-1.01 28.99 -0.02 29.98 1 31 C1.33 21.1 1.66 11.2 2 1 C1.34 0.67 0.68 0.34 0 0 Z " fill="#273234" transform="translate(144,117)"/>
<path d="M0 0 C0.33 0 0.66 0 1 0 C2.79140549 8.5824432 3.14062582 16.51529853 2.625 25.25 C2.56828125 26.38824219 2.5115625 27.52648437 2.453125 28.69921875 C2.31357489 31.46696255 2.16239436 34.23351901 2 37 C1.01 36.67 0.02 36.34 -1 36 C-1.02468447 31.19450253 -1.04285255 26.38904182 -1.05493164 21.58349609 C-1.05996621 19.94807289 -1.06679427 18.3126542 -1.07543945 16.67724609 C-1.08754335 14.32909025 -1.093237 11.98099381 -1.09765625 9.6328125 C-1.10281754 8.89942657 -1.10797882 8.16604065 -1.11329651 7.41043091 C-1.11387171 2.22774341 -1.11387171 2.22774341 0 0 Z " fill="#525F61" transform="translate(79,76)"/>
<path d="M0 0 C0.33 0 0.66 0 1 0 C1.19809173 19.17087715 1.19809173 19.17087715 0 26 C-0.66 26.66 -1.32 27.32 -2 28 C-2 25.03 -2 22.06 -2 19 C-2.66 18.67 -3.32 18.34 -4 18 C-4.18451025 6.47835991 -4.18451025 6.47835991 -3 1 C-2.34 1.33 -1.68 1.66 -1 2 C-0.67 1.34 -0.34 0.68 0 0 Z " fill="#D4D8DB" transform="translate(150,150)"/>
<path d="M0 0 C0.59425781 0.13277344 1.18851562 0.26554688 1.80078125 0.40234375 C3.04408203 0.66724609 3.04408203 0.66724609 4.3125 0.9375 C5.11300781 1.11152344 5.91351563 1.28554687 6.73828125 1.46484375 C16.03704969 2.99050995 25.28299107 3.13114605 34.6875 3.0625 C35.87794922 3.05798828 37.06839844 3.05347656 38.29492188 3.04882812 C41.19666936 3.03717452 44.09830626 3.02081559 47 3 C43.2879957 6.7120043 36.90921485 5.63337739 31.83642578 5.79785156 C29.66662317 5.87354792 27.50026988 5.98268541 25.33203125 6.09375 C16.72784587 6.4450371 8.86443442 5.95287056 1 2 C0.67 1.34 0.34 0.68 0 0 Z " fill="#F9F8FA" transform="translate(83,202)"/>
<path d="M0 0 C10.56 0 21.12 0 32 0 C25.50293183 4.33137878 18.62424526 4.70049657 11 4 C7.26235963 3.19874624 3.63438524 2.18099946 0 1 C0 0.67 0 0.34 0 0 Z " fill="#19252A" transform="translate(96,160)"/>
<path d="M0 0 C1.65 0.33 3.3 0.66 5 1 C5 2.65 5 4.3 5 6 C6.32 5.67 7.64 5.34 9 5 C9 5.66 9 6.32 9 7 C8.34 7 7.68 7 7 7 C7 8.65 7 10.3 7 12 C6.34 12 5.68 12 5 12 C3.68 19.92 2.36 27.84 1 36 C0.67 36 0.34 36 0 36 C0 34.35 0 32.7 0 31 C-1.65 31 -3.3 31 -5 31 C-5 30.67 -5 30.34 -5 30 C-3.35 30 -1.7 30 0 30 C-0.0309375 29.01257813 -0.061875 28.02515625 -0.09375 27.0078125 C-0.09375 22.83624689 0.64597965 18.94506093 1.5 14.875 C2.39610647 10.5559283 3.20715485 6.43656641 3 2 C2.01 1.67 1.02 1.34 0 1 C0 0.67 0 0.34 0 0 Z " fill="#99A0A6" transform="translate(141,57)"/>
<path d="M0 0 C1.25683594 -0.00257812 2.51367188 -0.00515625 3.80859375 -0.0078125 C7.49377902 0.12256866 10.92967317 0.53437267 14.5625 1.125 C14.8925 2.115 15.2225 3.105 15.5625 4.125 C5.9925 4.125 -3.5775 4.125 -13.4375 4.125 C-13.4375 3.135 -13.4375 2.145 -13.4375 1.125 C-8.90709223 0.24544472 -4.61234446 -0.00944185 0 0 Z " fill="#B6B6B6" transform="translate(111.4375,3.875)"/>
<path d="M0 0 C11.55 0 23.1 0 35 0 C35.495 1.485 35.495 1.485 36 3 C24.45 2.67 12.9 2.34 1 2 C0.67 1.34 0.34 0.68 0 0 Z " fill="#1B272B" transform="translate(95,95)"/>
<path d="M0 0 C0.33 0 0.66 0 1 0 C1.93087909 3.93288364 2.11608885 7.57654163 2.09765625 11.61328125 C2.09443359 12.86044922 2.09121094 14.10761719 2.08789062 15.39257812 C2.07951172 16.68615234 2.07113281 17.97972656 2.0625 19.3125 C2.05798828 20.62541016 2.05347656 21.93832031 2.04882812 23.29101562 C2.03705949 26.5273901 2.0206176 29.76367178 2 33 C1.67 33 1.34 33 1 33 C0.67 25.41 0.34 17.82 0 10 C-1.98 10.99 -3.96 11.98 -6 13 C-7.32 13 -8.64 13 -10 13 C-9 10 -9 10 -7.1875 9.04296875 C-6.465625 8.76066406 -5.74375 8.47835937 -5 8.1875 C-2.82046668 7.25243894 -2.82046668 7.25243894 -1 6 C0.13478935 2.87866256 0.13478935 2.87866256 0 0 Z " fill="#AFEEEE" transform="translate(74,70)"/>
<path d="M0 0 C0.33 0 0.66 0 1 0 C1.19800942 3.70784992 1.38153245 7.41628235 1.5625 11.125 C1.61857422 12.17171875 1.67464844 13.2184375 1.73242188 14.296875 C1.97221468 19.34851007 2.16052 24.03125509 1 29 C1.66 29.33 2.32 29.66 3 30 C1.68 30.33 0.36 30.66 -1 31 C-2.13743815 20.1334034 -2.24692771 10.7330922 0 0 Z " fill="#3C4A4D" transform="translate(143,82)"/>
<path d="M0 0 C3.37492629 -0.05845196 6.74972087 -0.09374742 10.125 -0.125 C11.07632813 -0.14175781 12.02765625 -0.15851562 13.0078125 -0.17578125 C18.08583255 -0.21104528 22.24487525 -0.03333617 27 2 C23.54220577 4.30519615 22.49270972 4.19009046 18.45703125 3.9765625 C16.84731445 3.89921875 16.84731445 3.89921875 15.20507812 3.8203125 C14.08552734 3.75585938 12.96597656 3.69140625 11.8125 3.625 C10.68134766 3.56828125 9.55019531 3.5115625 8.38476562 3.453125 C5.58920953 3.31157786 2.79454159 3.16015835 0 3 C0 2.01 0 1.02 0 0 Z " fill="#161A1D" transform="translate(104,51)"/>
<path d="M0 0 C2.37023314 1.18511657 3.78389306 2.26292881 5.5 4.25 C4.84 4.25 4.18 4.25 3.5 4.25 C3.5 4.91 3.5 5.57 3.5 6.25 C4.16 6.58 4.82 6.91 5.5 7.25 C5.5 7.91 5.5 8.57 5.5 9.25 C3.56077578 8.79901762 1.62366406 8.33894441 -0.3125 7.875 C-1.39144531 7.61976562 -2.47039062 7.36453125 -3.58203125 7.1015625 C-6.5 6.25 -6.5 6.25 -9.5 4.25 C-8.18 4.25 -6.86 4.25 -5.5 4.25 C-5.5 2.93 -5.5 1.61 -5.5 0.25 C-2.5 -0.75 -2.5 -0.75 0 0 Z " fill="#DADDDF" transform="translate(134.5,46.75)"/>
<path d="M0 0 C3.69314372 0.92328593 7.34279543 1.94503714 11 3 C11 3.33 11 3.66 11 4 C8.69 4.33 6.38 4.66 4 5 C3.2717552 9.99367864 2.61512818 14.99109914 2 20 C1.34 20 0.68 20 0 20 C0 13.4 0 6.8 0 0 Z " fill="#283436" transform="translate(84,156)"/>
<path d="M0 0 C6.08233706 0.67581523 12.01314152 1.73638028 18 3 C18 3.33 18 3.66 18 4 C16.20994059 4.36220266 14.41787943 4.71452469 12.625 5.0625 C11.12839844 5.35833984 11.12839844 5.35833984 9.6015625 5.66015625 C7 6 7 6 5 5 C2.98072489 5.60578253 0.97746603 6.26919734 -1 7 C-0.67 4.69 -0.34 2.38 0 0 Z " fill="#DADEE4" transform="translate(83,185)"/>
<path d="M0 0 C0.33 0 0.66 0 1 0 C1 3.96 1 7.92 1 12 C1.66 12 2.32 12 3 12 C3.144375 12.763125 3.28875 13.52625 3.4375 14.3125 C3.9632594 17.08172908 3.9632594 17.08172908 5 20 C4.34 20.66 3.68 21.32 3 22 C2.83312552 24.58354218 2.83312552 24.58354218 3 27 C2.34 27 1.68 27 1 27 C0.87882813 26.28972656 0.75765625 25.57945312 0.6328125 24.84765625 C0.46523437 23.92855469 0.29765625 23.00945312 0.125 22.0625 C-0.03742188 21.14597656 -0.19984375 20.22945312 -0.3671875 19.28515625 C-0.57601562 18.53105469 -0.78484375 17.77695313 -1 17 C-1.66 16.67 -2.32 16.34 -3 16 C-2.34 15.67 -1.68 15.34 -1 15 C-0.68758629 12.45058627 -0.48696579 9.99638487 -0.375 7.4375 C-0.33632812 6.72658203 -0.29765625 6.01566406 -0.2578125 5.28320312 C-0.16328217 3.52257575 -0.08054183 1.76132272 0 0 Z " fill="#CFD2D8" transform="translate(141,168)"/>
<path d="M0 0 C0 0.66 0 1.32 0 2 C0.66 2.33 1.32 2.66 2 3 C1.67 3.99 1.34 4.98 1 6 C1.66 6.33 2.32 6.66 3 7 C1.68 7 0.36 7 -1 7 C-3.00401011 7.30830925 -5.00511766 7.63729412 -7 8 C-7 9.65 -7 11.3 -7 13 C-7.33 13 -7.66 13 -8 13 C-8.71860272 5.93373995 -8.71860272 5.93373995 -6.734375 3.35546875 C-2.75036023 0 -2.75036023 0 0 0 Z " fill="#30373A" transform="translate(87,55)"/>
<path d="M0 0 C0.66 0 1.32 0 2 0 C1.36934845 5.7809725 0.34844868 11.3443706 -1 17 C-1.66 17 -2.32 17 -3 17 C-5.53065539 10.37209302 -5.53065539 10.37209302 -4.01953125 6.46484375 C-2.7612756 4.24086808 -1.45063058 2.10292755 0 0 Z " fill="#DCDDDE" transform="translate(79,18)"/>
<path d="M0 0 C0.33 0 0.66 0 1 0 C1 1.98 1 3.96 1 6 C0.01 5.67 -0.98 5.34 -2 5 C-1.34 3.35 -0.68 1.7 0 0 Z M-3 5 C-2.505 6.485 -2.505 6.485 -2 8 C-3.32 8 -4.64 8 -6 8 C-6 7.34 -6 6.68 -6 6 C-16.56 6 -27.12 6 -38 6 C-38 5.67 -38 5.34 -38 5 C-33.33712319 4.83251925 -28.67407963 4.67194624 -24.01074219 4.51782227 C-22.42376271 4.46439244 -20.83684605 4.40906229 -19.25 4.35180664 C-16.97149196 4.26992276 -14.69284678 4.19483476 -12.4140625 4.12109375 C-11.70255035 4.09405869 -10.99103821 4.06702362 -10.25796509 4.03916931 C-5.22774341 3.88612829 -5.22774341 3.88612829 -3 5 Z " fill="#D9DCE2" transform="translate(134,124)"/>
<path d="M0 0 C0.33 0 0.66 0 1 0 C1.33 5.61 1.66 11.22 2 17 C2.66 17 3.32 17 4 17 C4.33 15.68 4.66 14.36 5 13 C5.33 13 5.66 13 6 13 C5.67 17.95 5.34 22.9 5 28 C4.34 27.67 3.68 27.34 3 27 C3 24.36 3 21.72 3 19 C2.34 19 1.68 19 1 19 C0.15976812 14.64667264 -0.10770995 10.55557481 -0.0625 6.125 C-0.05347656 4.97257813 -0.04445313 3.82015625 -0.03515625 2.6328125 C-0.02355469 1.76398438 -0.01195313 0.89515625 0 0 Z " fill="#A8ABB0" transform="translate(76,153)"/>
<path d="M0 0 C0 6.6 0 13.2 0 20 C-0.33 20 -0.66 20 -1 20 C-1.90413673 16.16275828 -2.10576898 12.62497726 -2.0625 8.6875 C-2.05347656 7.61886719 -2.04445312 6.55023438 -2.03515625 5.44921875 C-2.01775391 4.23685547 -2.01775391 4.23685547 -2 3 C-4.64 3 -7.28 3 -10 3 C-6.70658091 -0.29341909 -4.72646815 0 0 0 Z " fill="#101C1E" transform="translate(139,157)"/>
<path d="M0 0 C2 1 2 1 2.61889648 2.81933594 C3.22371138 6.28007049 3.10270093 9.74942684 3.0625 13.25 C3.05798828 13.99507812 3.05347656 14.74015625 3.04882812 15.5078125 C3.03709246 17.3385764 3.0191585 19.16929873 3 21 C2.67 21 2.34 21 2 21 C2 17.37 2 13.74 2 10 C1.01 10 0.02 10 -1 10 C-1.33 7.03 -1.66 4.06 -2 1 C-1.34 0.67 -0.68 0.34 0 0 Z " fill="#F1F1F3" transform="translate(149,28)"/>
<path d="M0 0 C-0.99 2.31 -1.98 4.62 -3 7 C-3.66 6.34 -4.32 5.68 -5 5 C-6.32 6.32 -7.64 7.64 -9 9 C-8.65547129 3.65980498 -8.65547129 3.65980498 -8 1 C-5.24505728 -1.37495062 -3.32976461 -1.18920165 0 0 Z " fill="#566267" transform="translate(121,55)"/>
<path d="M0 0 C1.67542976 0.28604898 3.34385343 0.61781233 5 1 C5.33 1.99 5.66 2.98 6 4 C6.66 4.66 7.32 5.32 8 6 C4.7 6.66 1.4 7.32 -2 8 C-1.125 1.125 -1.125 1.125 0 0 Z " fill="#C9CBD0" transform="translate(90,46)"/>
<path d="M0 0 C2.14226357 3.21339535 2.77027449 5.56983832 3.625 9.3125 C4.01558594 10.97732422 4.01558594 10.97732422 4.4140625 12.67578125 C4.9762234 15.86510743 5.10749599 18.77023409 5 22 C4.34 22.33 3.68 22.66 3 23 C-0.44419134 7.25512528 -0.44419134 7.25512528 0 0 Z " fill="#A2AAAE" transform="translate(78,65)"/>
<path d="M0 0 C1.17755859 0.36158203 1.17755859 0.36158203 2.37890625 0.73046875 C4.88043474 2.0453139 5.44379727 3.21813017 6.4375 5.8125 C4.7875 5.8125 3.1375 5.8125 1.4375 5.8125 C1.1075 5.1525 0.7775 4.4925 0.4375 3.8125 C-3.45665629 2.29248351 -3.45665629 2.29248351 -7.5625 1.8125 C-7.5625 1.1525 -7.5625 0.4925 -7.5625 -0.1875 C-4.18672775 -1.31275742 -3.28391708 -1.06578528 0 0 Z " fill="#2B3236" transform="translate(135.5625,54.1875)"/>
<path d="M0 0 C0.99 0 1.98 0 3 0 C2.88610125 1.79240663 2.75852313 3.58394835 2.625 5.375 C2.52058594 6.87160156 2.52058594 6.87160156 2.4140625 8.3984375 C2 11 2 11 0 13 C-0.94738023 10.15785932 -1.13460559 8.32391609 -1.125 5.375 C-1.12757812 4.57835937 -1.13015625 3.78171875 -1.1328125 2.9609375 C-1 1 -1 1 0 0 Z " fill="#444C4F" transform="translate(78,155)"/>
<path d="M0 0 C2.475 0.495 2.475 0.495 5 1 C5 1.99 5 2.98 5 4 C5.66 4 6.32 4 7 4 C7.33 4.99 7.66 5.98 8 7 C5.69 7.33 3.38 7.66 1 8 C0.67 5.36 0.34 2.72 0 0 Z " fill="#344142" transform="translate(82,80)"/>
<path d="M0 0 C0.99 0.66 1.98 1.32 3 2 C1.84414715 5.91211733 0.64465038 8.8745041 -2 12 C-2 10.02 -2 8.04 -2 6 C-2.66 6 -3.32 6 -4 6 C-4 5.34 -4 4.68 -4 4 C-3.34 4 -2.68 4 -2 4 C-1.34 2.68 -0.68 1.36 0 0 Z " fill="#CACED2" transform="translate(77,58)"/>
<path d="M0 0 C0.81210938 0.41378906 0.81210938 0.41378906 1.640625 0.8359375 C4.31904312 2.15740869 7.02885041 3.39400376 9.75 4.625 C11.22726563 5.29402344 11.22726563 5.29402344 12.734375 5.9765625 C13.85585937 6.48316406 13.85585937 6.48316406 15 7 C11.36804504 8.21065165 9.93468371 7.62784815 6.3125 6.5625 C5.31863281 6.27503906 4.32476562 5.98757812 3.30078125 5.69140625 C2.54152344 5.46324219 1.78226562 5.23507813 1 5 C0.67 3.35 0.34 1.7 0 0 Z " fill="#D0C7CC" transform="translate(81,197)"/>
<path d="M0 0 C0 3 0 3 -1.4375 5.125 C-5.08170853 7.79149405 -8.57916989 7.81107564 -13 8 C-12.67 7.34 -12.34 6.68 -12 6 C-10.68 6 -9.36 6 -8 6 C-8 5.34 -8 4.68 -8 4 C-6.865625 3.525625 -5.73125 3.05125 -4.5625 2.5625 C-1.24259834 1.36377917 -1.24259834 1.36377917 0 0 Z " fill="#D6CED2" transform="translate(141,197)"/>
<path d="M0 0 C0.33 0 0.66 0 1 0 C0.67 5.94 0.34 11.88 0 18 C-0.66 18 -1.32 18 -2 18 C-2.19627391 16.41773035 -2.38165538 14.83410729 -2.5625 13.25 C-2.66691406 12.36828125 -2.77132812 11.4865625 -2.87890625 10.578125 C-2.99456676 8.11567549 -2.73638695 6.33461936 -2 4 C-1.34 4 -0.68 4 0 4 C0 2.68 0 1.36 0 0 Z " fill="#464D50" transform="translate(146,152)"/>
<path d="M0 0 C-2.1290142 2.34191563 -4.04408729 3.83554954 -7 5 C-8.32 5 -9.64 5 -11 5 C-10 2 -10 2 -7.1875 0.25 C-4.03596914 -0.98589446 -3.03070628 -1.28222189 0 0 Z " fill="#AAA9AA" transform="translate(75,78)"/>
<path d="M0 0 C0.66 0.99 1.32 1.98 2 3 C1 6 1 6 -1 8 C-1 7.34 -1 6.68 -1 6 C-1.66 6 -2.32 6 -3 6 C-3.33 6.99 -3.66 7.98 -4 9 C-4.66 7.68 -5.32 6.36 -6 5 C-5.01 5 -4.02 5 -3 5 C-2.87625 4.360625 -2.7525 3.72125 -2.625 3.0625 C-2.41875 2.381875 -2.2125 1.70125 -2 1 C-1.34 0.67 -0.68 0.34 0 0 Z " fill="#E6E9EE" transform="translate(116,150)"/>
<path d="M0 0 C1.485 0.99 1.485 0.99 3 2 C2.67 6.95 2.34 11.9 2 17 C1.67 17 1.34 17 1 17 C0.1679418 11.27959989 -0.12036664 5.77759884 0 0 Z " fill="#C1C9CD" transform="translate(82,87)"/>
<path d="M0 0 C0.66 0 1.32 0 2 0 C2.33 0.66 2.66 1.32 3 2 C3.99 2.66 4.98 3.32 6 4 C5.01 4 4.02 4 3 4 C2.87625 5.11375 2.7525 6.2275 2.625 7.375 C2 11 2 11 0 13 C0 8.71 0 4.42 0 0 Z " fill="#CDCFD6" transform="translate(80,181)"/>
<path d="M0 0 C0.33 0.99 0.66 1.98 1 3 C-5.6 2.67 -12.2 2.34 -19 2 C-19 1.67 -19 1.34 -19 1 C-12.65333314 0.41639845 -6.37625222 -0.14491482 0 0 Z " fill="#BCBDBE" transform="translate(126,5)"/>
<path d="M0 0 C4.95 0.99 4.95 0.99 10 2 C10 2.33 10 2.66 10 3 C8.906875 3.0825 7.81375 3.165 6.6875 3.25 C2.96723336 3.63689209 2.96723336 3.63689209 1.0625 6.0625 C0.711875 6.701875 0.36125 7.34125 0 8 C0 5.36 0 2.72 0 0 Z " fill="#0B1317" transform="translate(85,157)"/>
<path d="M0 0 C0.33 0 0.66 0 1 0 C2.00492272 5.7280595 1.97731237 9.39761496 0 15 C-0.33 15.99 -0.66 16.98 -1 18 C-1.66 18 -2.32 18 -3 18 C-2.01 12.06 -1.02 6.12 0 0 Z " fill="#878A8F" transform="translate(81,152)"/>
<path d="M0 0 C0.33 0 0.66 0 1 0 C1 3.3 1 6.6 1 10 C0.34 8.68 -0.32 7.36 -1 6 C-1.66 8.64 -2.32 11.28 -3 14 C-3.33 14 -3.66 14 -4 14 C-3.67 9.71 -3.34 5.42 -3 1 C-2.34 1.33 -1.68 1.66 -1 2 C-0.67 1.34 -0.34 0.68 0 0 Z " fill="#BABEC2" transform="translate(150,150)"/>
<path d="M0 0 C0.99 0.99 1.98 1.98 3 3 C2.34 4.65 1.68 6.3 1 8 C2.98 8 4.96 8 7 8 C7 8.33 7 8.66 7 9 C3.7 9 0.4 9 -3 9 C-3 8.34 -3 7.68 -3 7 C-2.34 7 -1.68 7 -1 7 C-0.67 6.01 -0.34 5.02 0 4 C0.33 3.34 0.66 2.68 1 2 C0.34 1.67 -0.32 1.34 -1 1 C-0.67 0.67 -0.34 0.34 0 0 Z " fill="#D2D6DB" transform="translate(117,151)"/>
<path d="M0 0 C2.475 0.495 2.475 0.495 5 1 C5 2.65 5 4.3 5 6 C6.32 5.67 7.64 5.34 9 5 C9 5.66 9 6.32 9 7 C8.34 7 7.68 7 7 7 C7 8.65 7 10.3 7 12 C6.67 11.01 6.34 10.02 6 9 C5.34 9 4.68 9 4 9 C3.67 6.69 3.34 4.38 3 2 C2.01 1.67 1.02 1.34 0 1 C0 0.67 0 0.34 0 0 Z " fill="#B2B6BB" transform="translate(141,57)"/>
<path d="M0 0 C0.33 0.99 0.66 1.98 1 3 C1.99 3.33 2.98 3.66 4 4 C3.34 6.64 2.68 9.28 2 12 C1.34 12 0.68 12 0 12 C0 8.04 0 4.08 0 0 Z " fill="#A3A5AA" transform="translate(142,168)"/>
<path d="M0 0 C0 2.31 0 4.62 0 7 C-1.32 7.33 -2.64 7.66 -4 8 C-4 5.69 -4 3.38 -4 1 C-1 0 -1 0 0 0 Z " fill="#141E20" transform="translate(81,148)"/>
<path d="M0 0 C0.66 0 1.32 0 2 0 C2.16682272 4.92127034 2.24828052 8.50343896 0 13 C-0.33 13 -0.66 13 -1 13 C-0.67 8.71 -0.34 4.42 0 0 Z " fill="#D0D6DC" transform="translate(139,88)"/>
<path d="M0 0 C0.391875 0.639375 0.78375 1.27875 1.1875 1.9375 C3.38472296 4.43778819 4.75791433 4.64950425 8 5 C6.8125 6.5 6.8125 6.5 5 8 C2.3125 8.1875 2.3125 8.1875 0 8 C0 5.33333333 0 2.66666667 0 0 Z " fill="#D1D5D9" transform="translate(76,51)"/>
<path d="M0 0 C0.78890625 0.22042969 1.5778125 0.44085938 2.390625 0.66796875 C3.18984375 0.88066406 3.9890625 1.09335937 4.8125 1.3125 C5.71742188 1.58126953 5.71742188 1.58126953 6.640625 1.85546875 C3.18847647 4.15690111 2.40583176 3.99380729 -1.546875 3.48046875 C-2.89845703 3.31417969 -2.89845703 3.31417969 -4.27734375 3.14453125 C-4.96441406 3.04914062 -5.65148437 2.95375 -6.359375 2.85546875 C-3.02020651 -0.18501265 -3.02020651 -0.18501265 0 0 Z " fill="#1D2125" transform="translate(124.359375,51.14453125)"/>
<path d="M0 0 C1.9451 2.91765 2.45276317 4.62537285 3 8 C1.02 8.99 1.02 8.99 -1 10 C-1.125 3.375 -1.125 3.375 0 0 Z " fill="#17181D" transform="translate(146,66)"/>
<path d="M0 0 C0.99 0 1.98 0 3 0 C3 1.98 3 3.96 3 6 C2.01 6.33 1.02 6.66 0 7 C-0.99 6.01 -1.98 5.02 -3 4 C-2.01 3.67 -1.02 3.34 0 3 C0 2.01 0 1.02 0 0 Z " fill="#324448" transform="translate(139,67)"/>
<path d="M0 0 C0.99 0 1.98 0 3 0 C2.67 1.65 2.34 3.3 2 5 C2.99 4.67 3.98 4.34 5 4 C5.33 4.99 5.66 5.98 6 7 C2.7 6.34 -0.6 5.68 -4 5 C-2.68 4.67 -1.36 4.34 0 4 C0 2.68 0 1.36 0 0 Z " fill="#AAAFB1" transform="translate(129,47)"/>
<path d="M0 0 C0.33 0.99 0.66 1.98 1 3 C-2.21451269 4.60725635 -5.43612536 4.05748185 -9 4 C-8.34 3.67 -7.68 3.34 -7 3 C-7 2.34 -7 1.68 -7 1 C-3.535 0.505 -3.535 0.505 0 0 Z " fill="#354648" transform="translate(129,80)"/>
<path d="M0 0 C1.32 0.66 2.64 1.32 4 2 C3.01 3.485 3.01 3.485 2 5 C1.01 5 0.02 5 -1 5 C-1 6.65 -1 8.3 -1 10 C-1.33 10 -1.66 10 -2 10 C-2.1953125 3.9453125 -2.1953125 3.9453125 -2 2 C-1.34 1.34 -0.68 0.68 0 0 Z " fill="#43494C" transform="translate(81,58)"/>
<path d="M0 0 C0.33 0 0.66 0 1 0 C1 3.3 1 6.6 1 10 C0.01 9.67 -0.98 9.34 -2 9 C-1.125 1.125 -1.125 1.125 0 0 Z " fill="#19191B" transform="translate(77,66)"/>
<path d="M0 0 C0.33 0 0.66 0 1 0 C1 3.96 1 7.92 1 12 C1.66 12 2.32 12 3 12 C2.34 13.32 1.68 14.64 1 16 C0 15 0 15 -0.09765625 11.62109375 C-0.09098369 10.22652923 -0.07902532 8.83198257 -0.0625 7.4375 C-0.05798828 6.72658203 -0.05347656 6.01566406 -0.04882812 5.28320312 C-0.03700864 3.52209987 -0.01907263 1.76103964 0 0 Z " fill="#C8CCD1" transform="translate(141,168)"/>
<path d="M0 0 C0.33 1.65 0.66 3.3 1 5 C-0.65 4.67 -2.3 4.34 -4 4 C-4.33 3.01 -4.66 2.02 -5 1 C-2 0 -2 0 0 0 Z " fill="#354548" transform="translate(144,59)"/>
<path d="M0 0 C2.29633824 3.44450737 2.54016485 5.93812283 3 10 C2.01 10.495 2.01 10.495 1 11 C-0.28317892 7.15046324 -0.06643637 4.05261865 0 0 Z " fill="#9EA3A5" transform="translate(78,65)"/>
<path d="M0 0 C0.33 0 0.66 0 1 0 C1 4.29 1 8.58 1 13 C0.01 13 -0.98 13 -2 13 C-1.34 8.71 -0.68 4.42 0 0 Z " fill="#DEE2E5" transform="translate(150,48)"/>
<path d="M0 0 C2.31 0.33 4.62 0.66 7 1 C7 1.99 7 2.98 7 4 C4.625 3.6875 4.625 3.6875 2 3 C1.34 2.01 0.68 1.02 0 0 Z " fill="#9F999A" transform="translate(152,79)"/>
<path d="M0 0 C0.66 0.33 1.32 0.66 2 1 C0.68 3.64 -0.64 6.28 -2 9 C-3.20547945 4.17808219 -3.20547945 4.17808219 -2 1 C-1.34 0.67 -0.68 0.34 0 0 Z " fill="#5F6E72" transform="translate(115,55)"/>
<path d="M0 0 C0 1.32 0 2.64 0 4 C-1.65 3.67 -3.3 3.34 -5 3 C-5.33 2.01 -5.66 1.02 -6 0 C-2.25 -1.125 -2.25 -1.125 0 0 Z " fill="#D3D8DE" transform="translate(138,186)"/>
<path d="M0 0 C1.88343932 3.76687864 2.22057835 5.02958963 2 9 C1.01 9 0.02 9 -1 9 C-0.67 6.03 -0.34 3.06 0 0 Z " fill="#555B5F" transform="translate(144,73)"/>
<path d="M0 0 C0.75 1.6875 0.75 1.6875 1 4 C-0.9375 6.75 -0.9375 6.75 -3 9 C-3 6.69 -3 4.38 -3 2 C-2.34 2 -1.68 2 -1 2 C-0.67 1.34 -0.34 0.68 0 0 Z " fill="#B8BABC" transform="translate(78,61)"/>
<path d="M0 0 C-4.75 4 -4.75 4 -7 4 C-6.67 2.68 -6.34 1.36 -6 0 C-2.25 -1.125 -2.25 -1.125 0 0 Z " fill="#C2C2C2" transform="translate(89,12)"/>
</svg>
