<svg width="25" height="24" viewBox="0 0 25 24" fill="none" xmlns="http://www.w3.org/2000/svg">
<path fill-rule="evenodd" clip-rule="evenodd" d="M12.1667 2.40039C9.5157 2.40039 7.36667 4.54942 7.36667 7.20039V8.40039H6.16668C5.55522 8.40039 5.04154 8.86015 4.97402 9.46787L3.77402 20.2679C3.73632 20.6071 3.84488 20.9464 4.07252 21.2007C4.30016 21.455 4.62534 21.6004 4.96668 21.6004H19.3667C19.708 21.6004 20.0332 21.455 20.2608 21.2007C20.4885 20.9464 20.597 20.6071 20.5593 20.2679L19.3593 9.46787C19.2918 8.86015 18.7781 8.40039 18.1667 8.40039H16.9667V7.20039C16.9667 4.54942 14.8176 2.40039 12.1667 2.40039ZM14.5667 8.40039V7.20039C14.5667 5.87491 13.4922 4.80039 12.1667 4.80039C10.8412 4.80039 9.76667 5.87491 9.76667 7.20039V8.40039H14.5667ZM7.36667 12.0004C7.36667 11.3376 7.90393 10.8004 8.56667 10.8004C9.22941 10.8004 9.76667 11.3376 9.76667 12.0004C9.76667 12.6631 9.22941 13.2004 8.56667 13.2004C7.90393 13.2004 7.36667 12.6631 7.36667 12.0004ZM15.7667 10.8004C15.1039 10.8004 14.5667 11.3376 14.5667 12.0004C14.5667 12.6631 15.1039 13.2004 15.7667 13.2004C16.4294 13.2004 16.9667 12.6631 16.9667 12.0004C16.9667 11.3376 16.4294 10.8004 15.7667 10.8004Z" fill="currentColor"/>
</svg>
