<svg width="20" height="20" viewBox="0 0 20 20" fill="none" xmlns="http://www.w3.org/2000/svg">
<path d="M14.1667 14.9998C14.6087 14.9998 15.0326 15.1754 15.3452 15.488C15.6577 15.8006 15.8333 16.2245 15.8333 16.6665C15.8333 17.1085 15.6577 17.5325 15.3452 17.845C15.0326 18.1576 14.6087 18.3332 14.1667 18.3332C13.7246 18.3332 13.3007 18.1576 12.9882 17.845C12.6756 17.5325 12.5 17.1085 12.5 16.6665C12.5 15.7415 13.2417 14.9998 14.1667 14.9998ZM0.833328 1.6665H3.55833L4.34166 3.33317H16.6667C16.8877 3.33317 17.0996 3.42097 17.2559 3.57725C17.4122 3.73353 17.5 3.94549 17.5 4.1665C17.5 4.30817 17.4583 4.44984 17.4 4.58317L14.4167 9.97484C14.1333 10.4832 13.5833 10.8332 12.9583 10.8332H6.75L5.99999 12.1915L5.97499 12.2915C5.97499 12.3468 5.99694 12.3997 6.03601 12.4388C6.07508 12.4779 6.12807 12.4998 6.18333 12.4998H15.8333V14.1665H5.83333C5.3913 14.1665 4.96738 13.9909 4.65482 13.6783C4.34226 13.3658 4.16666 12.9419 4.16666 12.4998C4.16666 12.2082 4.24166 11.9332 4.36666 11.6998L5.49999 9.65817L2.49999 3.33317H0.833328V1.6665ZM5.83333 14.9998C6.27536 14.9998 6.69928 15.1754 7.01184 15.488C7.3244 15.8006 7.49999 16.2245 7.49999 16.6665C7.49999 17.1085 7.3244 17.5325 7.01184 17.845C6.69928 18.1576 6.27536 18.3332 5.83333 18.3332C5.3913 18.3332 4.96738 18.1576 4.65482 17.845C4.34226 17.5325 4.16666 17.1085 4.16666 16.6665C4.16666 15.7415 4.90833 14.9998 5.83333 14.9998ZM13.3333 9.1665L15.65 4.99984H5.11666L7.08333 9.1665H13.3333Z" fill="currentColor"/>
</svg>
