<svg width="17" height="18" viewBox="0 0 17 18" fill="none" xmlns="http://www.w3.org/2000/svg">
<path d="M1 1.5H2.66667L3 3.16667M4.33333 9.83333H12.6667L16 3.16667H3M4.33333 9.83333L3 3.16667M4.33333 9.83333L2.42259 11.7441C1.89762 12.269 2.26942 13.1667 3.01184 13.1667H12.6667M12.6667 13.1667C11.7462 13.1667 11 13.9129 11 14.8333C11 15.7538 11.7462 16.5 12.6667 16.5C13.5871 16.5 14.3333 15.7538 14.3333 14.8333C14.3333 13.9129 13.5871 13.1667 12.6667 13.1667ZM6 14.8333C6 15.7538 5.25381 16.5 4.33333 16.5C3.41286 16.5 2.66667 15.7538 2.66667 14.8333C2.66667 13.9129 3.41286 13.1667 4.33333 13.1667C5.25381 13.1667 6 13.9129 6 14.8333Z" stroke="white" stroke-width="1.5" stroke-linecap="round" stroke-linejoin="round"/>
</svg>
