<svg width="20" height="20" viewBox="0 0 20 20" fill="none" xmlns="http://www.w3.org/2000/svg">
<path d="M18.216 1.78317C17.0822 0.649179 15.6224 0.0160057 14.1054 0.000262337C12.54 -0.0150123 11.0155 0.637186 9.8116 1.83943C8.7189 2.93072 7.9132 4.41908 7.60117 5.92283C7.25918 7.57014 6.47175 9.04764 5.3239 10.1956L5.27406 10.2454C5.16277 10.3567 5.10015 10.5076 5.10015 10.6651C5.10015 10.8225 5.16265 10.9734 5.27398 11.0848L5.53683 11.3477L3.28281 13.6019C2.93558 13.4069 2.53745 13.3067 2.13413 13.3193C1.52015 13.3384 0.957413 13.6034 0.549522 14.0654C-0.182471 14.8946 -0.183096 16.1456 0.548155 16.9754C0.941398 17.4217 1.48386 17.6863 2.07562 17.7204C2.18195 17.7265 2.27343 17.818 2.27952 17.9244C2.31359 18.5161 2.57816 19.0586 3.02449 19.452C3.43906 19.8173 3.95878 20 4.47859 20C4.99898 20 5.51949 19.8168 5.93429 19.4506C6.39629 19.0427 6.66125 18.4798 6.68031 17.8659C6.69281 17.4623 6.59273 17.0644 6.39777 16.7171L8.65179 14.4629L8.91484 14.7259C9.0307 14.8418 9.18262 14.8998 9.33445 14.8998C9.48625 14.8998 9.63808 14.8419 9.75394 14.7261L9.80406 14.676C10.9514 13.5286 12.4294 12.741 14.0783 12.3982C15.5795 12.0861 17.0658 11.2818 18.1559 10.1916C19.3605 8.98693 20.0154 7.46154 19.9999 5.89646C19.9848 4.37935 19.3513 2.91857 18.216 1.78317ZM5.19691 16.2393C4.96515 16.4711 4.96515 16.8468 5.19691 17.0786C5.39726 17.279 5.50277 17.5455 5.49398 17.8289C5.48515 18.112 5.36253 18.3719 5.14871 18.5607C4.77328 18.8922 4.1848 18.8925 3.80906 18.5614C3.60245 18.3793 3.48007 18.1289 3.46437 17.8562C3.42343 17.1442 2.85566 16.5764 2.1437 16.5354C1.87097 16.5197 1.62054 16.3973 1.43851 16.1907C1.10741 15.8149 1.10773 15.2264 1.43921 14.8509C1.62796 14.6371 1.88784 14.5145 2.17093 14.5057C2.18191 14.5054 2.19284 14.5052 2.20374 14.5052C2.47491 14.5052 2.72859 14.6101 2.9212 14.8027C3.15288 15.0345 3.52863 15.0345 3.76042 14.8027L6.37605 12.1869L7.81258 13.6235L5.19691 16.2393ZM17.3167 9.35215C16.3995 10.2694 15.0986 10.9736 13.8367 11.236C12.1373 11.5892 10.5948 12.3605 9.34488 13.4773L6.52242 10.6547C7.63972 9.40411 8.41074 7.86212 8.7632 6.16402C9.02555 4.90009 9.73098 3.59737 10.6503 2.6793C12.617 0.715161 15.4459 0.691292 17.3767 2.62246C19.3088 4.55479 19.2836 7.38509 17.3167 9.35215Z" fill="currentColor"/>
<ellipse cx="13.4091" cy="2.95428" rx="0.681819" ry="0.681818" fill="currentColor"/>
<ellipse cx="15.2274" cy="4.31854" rx="0.681819" ry="0.681818" fill="currentColor"/>
<ellipse cx="12.5002" cy="5.22772" rx="0.681818" ry="0.681818" fill="currentColor"/>
</svg>
