<svg xmlns="http://www.w3.org/2000/svg" viewBox="0 0 48 48" id="Cooking">
  <path fill-rule="evenodd" d="M31.34 19H10c-.8 0-1.56.32-2.12.88S7 21.21 7 22a3.015 3.015 0 0 0 2 2.83v1.23H7.11C5.42 26.06 4 27.5 4 29.29c.03 1.78 1.45 3.2 3.13 3.19H9v4.98c0 3.6 2.9 6.54 6.4 6.54h17.2c3.5 0 6.4-2.95 6.4-6.54v-4.98h1.91c1.68-.01 3.09-1.45 3.09-3.23 0-.03 0 .03 0 0-.03-1.75-1.43-3.24-3.09-3.25H39v-1.17A3.01 3.01 0 0 0 41 22c0-.79-.32-1.56-.88-2.12S38.79 19 38 19h-1.3l3.04-6.85c.63-1.4.06-3.1-1.25-3.82h-.01c-.4-.22-.85-.33-1.31-.33-1.19 0-2.27.77-2.68 1.94L31.34 19ZM11 25v12.46c0 2.49 1.98 4.54 4.4 4.54h17.2c2.42 0 4.4-2.06 4.4-4.54V25H11Zm1 8v3.99c0 1.06.42 2.09 1.18 2.84a4.02 4.02 0 0 0 2.84 1.18h1.99c.55 0 1-.45 1-1s-.45-1-1-1h-1.99c-.53 0-1.05-.21-1.42-.59-.38-.38-.59-.89-.59-1.42v-3.99c0-.55-.45-1-1-1s-1 .45-1 1Zm16-6c0-.55-.45-1-1-1h-6c-.55 0-1 .45-1 1v3c0 .55.45 1 1 1h6c.55 0 1-.45 1-1v-3Zm11 1h1.9c.61 0 1.09.61 1.1 1.25 0 .65-.48 1.22-1.1 1.23H39V28ZM9 30.47H7.12c-.62 0-1.1-.55-1.12-1.19 0-.66.49-1.23 1.11-1.23H9v2.42ZM26 28v1h-4v-1h4Zm12-5H10c-.27 0-.52-.11-.71-.29C9.1 22.52 9 22.27 9 22s.11-.52.29-.71A.99.99 0 0 1 10 21h28c.27 0 .52.11.71.29.19.19.29.44.29.71s-.11.52-.29.71A.99.99 0 0 1 38 23Zm-3.49-4 3.4-7.67c.2-.46.05-1.01-.38-1.25a.768.768 0 0 0-.36-.09c-.36 0-.67.25-.8.6l-2.92 8.4h1.06ZM23.56 4.1s-2.06 1.04-2.48 2.92c-.27 1.2.04 2.84 2.27 4.74 1.37 1.16 1.78 2.05 1.61 2.78-.23 1.03-1.41 1.56-1.41 1.56a1 1 0 0 0-.46 1.34 1 1 0 0 0 1.34.46s2.06-1.04 2.48-2.92c.27-1.2-.04-2.85-2.27-4.74-1.37-1.16-1.78-2.04-1.61-2.78.23-1.03 1.4-1.55 1.4-1.55a1 1 0 0 0 .46-1.34 1 1 0 0 0-1.34-.46Zm6.01 2.03s-1.34.77-1.62 2.17c-.17.87 0 2.04 1.4 3.41.69.67.92 1.18.84 1.61-.1.53-.63.81-.63.81a1 1 0 0 0 .98 1.74s1.34-.77 1.61-2.18c.17-.87 0-2.04-1.4-3.41-.68-.67-.92-1.18-.84-1.6.1-.53.63-.81.63-.81.48-.27.65-.88.39-1.36-.27-.48-.88-.65-1.36-.39Zm-12.18.01s-1.3.76-1.56 2.17c-.16.86.01 2.03 1.35 3.39.66.68.89 1.2.81 1.63-.1.53-.6.81-.6.81-.48.28-.64.89-.36 1.37.28.48.89.64 1.37.36 0 0 1.3-.77 1.56-2.18.16-.86-.01-2.03-1.35-3.39-.66-.68-.89-1.2-.81-1.62.1-.53.6-.81.6-.81.48-.28.64-.89.36-1.37a.998.998 0 0 0-1.37-.36Z" fill="currentColor" class="color000000 svgShape"></path>
</svg>