<svg width="20" height="20" viewBox="0 0 20 20" fill="none" xmlns="http://www.w3.org/2000/svg">
<path fill-rule="evenodd" clip-rule="evenodd" d="M6.11155 3.18257C6.78142 3.12912 7.41734 2.86571 7.92881 2.42984C9.12235 1.41271 10.8778 1.41271 12.0714 2.42984C12.5828 2.86571 13.2187 3.12912 13.8886 3.18257C15.4518 3.30731 16.6931 4.54861 16.8178 6.1118C16.8713 6.78166 17.1347 7.41759 17.5706 7.92905C18.5877 9.1226 18.5877 10.8781 17.5706 12.0716C17.1347 12.5831 16.8713 13.219 16.8178 13.8889C16.6931 15.452 15.4518 16.6933 13.8886 16.8181C13.2187 16.8715 12.5828 17.1349 12.0714 17.5708C10.8778 18.5879 9.12235 18.5879 7.92881 17.5708C7.41734 17.1349 6.78142 16.8715 6.11155 16.8181C4.54837 16.6933 3.30707 15.452 3.18233 13.8889C3.12887 13.219 2.86546 12.5831 2.4296 12.0716C1.41246 10.8781 1.41246 9.1226 2.4296 7.92905C2.86546 7.41759 3.12887 6.78166 3.18233 6.1118C3.30707 4.54861 4.54837 3.30731 6.11155 3.18257ZM13.7754 7.10893C14.0194 6.86486 14.0194 6.46913 13.7754 6.22505C13.5313 5.98097 13.1355 5.98097 12.8915 6.22505L6.22481 12.8917C5.98073 13.1358 5.98073 13.5315 6.22481 13.7756C6.46888 14.0197 6.86461 14.0197 7.10869 13.7756L13.7754 7.10893ZM7.50008 6.45866C6.92478 6.45866 6.45841 6.92503 6.45841 7.50033C6.45841 8.07562 6.92478 8.54199 7.50008 8.54199C8.07538 8.54199 8.54175 8.07562 8.54175 7.50033C8.54175 6.92503 8.07538 6.45866 7.50008 6.45866ZM12.5001 11.4587C11.9248 11.4587 11.4584 11.925 11.4584 12.5003C11.4584 13.0756 11.9248 13.542 12.5001 13.542C13.0754 13.542 13.5417 13.0756 13.5417 12.5003C13.5417 11.925 13.0754 11.4587 12.5001 11.4587Z" fill="currentColor"/>
</svg>
