<svg width="24" height="24" viewBox="0 0 24 24" fill="none" xmlns="http://www.w3.org/2000/svg">
<path d="M18.3289 20.5401C18.172 20.5401 18.0449 20.4129 18.0449 20.2561V19.6834C18.0449 19.5265 18.1721 19.3994 18.3289 19.3994C18.4857 19.3994 18.6129 19.5266 18.6129 19.6834V20.2561C18.6129 20.413 18.4857 20.5401 18.3289 20.5401Z" fill="currentColor"/>
<path d="M19.9475 19.5303C19.7906 19.5303 19.6635 19.4031 19.6635 19.2463V18.6737C19.6635 18.5168 19.7906 18.3896 19.9475 18.3896C20.1043 18.3896 20.2315 18.5168 20.2315 18.6737V19.2463C20.2314 19.4032 20.1043 19.5303 19.9475 19.5303Z" fill="currentColor"/>
<path d="M20.967 15.3046C20.9784 15.2662 20.9905 15.2283 21.0009 15.1895C21.3721 13.8063 21.1497 12.2415 20.3578 10.6642C19.6342 9.2229 18.1798 7.86226 16.3676 6.93114C15.6381 6.55628 14.7273 6.19989 13.9182 6.06039C13.4454 5.65929 13.1535 5.06393 13.1535 4.41785V2.49486C13.1535 1.69859 12.5057 1.05078 11.7095 1.05078H10.0652C9.26891 1.05078 8.6211 1.69859 8.6211 2.49486V4.41785C8.6211 5.03172 8.35734 5.59947 7.92553 5.99866C6.98906 5.99571 5.7481 6.44819 4.80816 6.93114C2.99598 7.86226 1.54159 9.2229 0.817936 10.6642C0.0260323 12.2415 -0.196342 13.8063 0.174813 15.1895C0.528343 16.5071 1.4124 17.5788 2.6642 18.2073C3.36277 18.558 4.1034 18.7345 4.8421 18.7345C5.42714 18.7344 6.01111 18.6237 6.57145 18.4012C6.78703 18.3156 6.99698 18.2143 7.20108 18.0986C8.16815 19.1295 9.49199 19.6954 10.9463 19.6954C11.3634 19.6954 11.7695 19.6479 12.1598 19.5571C13.0582 21.5832 15.2777 23.0204 17.8667 23.0204C21.2486 23.0204 24 20.5683 24 17.5542C24 16.3621 22.6657 15.659 20.967 15.3046ZM15.935 7.77316C17.5726 8.61456 18.8762 9.82313 19.5119 11.089C20.2479 12.5549 20.4024 13.9798 20.0254 15.1469C19.3157 15.0546 18.5763 15.0127 17.8668 15.0127C17.3141 15.0127 16.7434 15.0382 16.1828 15.0931C16.2996 14.5295 16.3593 13.928 16.3593 13.2945C16.3593 11.5462 15.616 9.51953 14.3199 7.73392C14.1424 7.48952 13.9437 7.237 13.7309 6.98922C14.2845 7.08058 15.0513 7.31908 15.935 7.77316ZM9.56774 4.41785V2.49486C9.56774 2.22059 9.79091 1.99742 10.0652 1.99742H11.7095C11.9837 1.99742 12.2069 2.22059 12.2069 2.49486V4.41785C12.2069 4.91885 12.3292 5.39838 12.5477 5.82461C11.9975 5.38432 11.436 5.08577 10.9463 5.08577C10.3907 5.08577 9.74263 5.46982 9.12365 6.00958C9.40668 5.53938 9.56774 4.99282 9.56774 4.41785ZM6.22209 17.5214C5.20875 17.9239 4.09604 17.8671 3.08898 17.3614C0.903811 16.2642 0.331141 13.7435 1.66393 11.089C2.29951 9.82309 3.60319 8.61451 5.24077 7.77316C6.42206 7.16622 7.39429 6.94431 7.92806 6.94431C8.02846 6.94431 8.11312 6.95228 8.18095 6.96686C7.96092 7.22177 7.75546 7.48216 7.5727 7.73392C6.27661 9.51953 5.53331 11.5463 5.53331 13.2945C5.53331 14.8745 5.90334 16.2565 6.60966 17.3421C6.48276 17.4087 6.35372 17.4691 6.22209 17.5214ZM10.9463 18.7487C8.27484 18.7487 6.47995 16.5568 6.47995 13.2945C6.47995 11.7416 7.15748 9.91749 8.33882 8.29C9.45665 6.74997 10.5556 6.03246 10.9463 6.03246C11.337 6.03246 12.436 6.74997 13.5538 8.29C14.7351 9.91749 15.4127 11.7415 15.4127 13.2945C15.4127 13.9912 15.3304 14.6389 15.1754 15.227C13.2868 15.5508 11.7335 16.268 11.7335 17.5542C11.7335 17.9322 11.7768 18.3013 11.8591 18.6578C11.5682 18.7176 11.2634 18.7487 10.9463 18.7487ZM17.8667 22.0737C15.0068 22.0737 12.6801 20.0463 12.6801 17.5542C12.6801 17.1521 13.2056 16.7508 14.1217 16.4533C15.0881 16.1394 16.4531 15.9594 17.8667 15.9594C19.2804 15.9594 20.6454 16.1394 21.6117 16.4533C22.5278 16.7508 23.0533 17.1521 23.0533 17.5542C23.0533 20.0463 20.7266 22.0737 17.8667 22.0737Z" fill="currentColor"/>
<path d="M8.05775 13.2772C8.04472 13.2772 8.03155 13.2766 8.01833 13.2755C7.7578 13.2541 7.56402 13.0255 7.58549 12.765C7.68814 11.5196 8.00572 10.4083 8.52936 9.46199C8.65592 9.23324 8.94392 9.15051 9.17267 9.27702C9.40142 9.40363 9.4842 9.69163 9.35764 9.92033C8.89929 10.7486 8.62048 11.7318 8.52894 12.8427C8.50855 13.09 8.3015 13.2772 8.05775 13.2772Z" fill="currentColor"/>
<path d="M10.0842 8.64034C9.96555 8.64034 9.84677 8.596 9.75485 8.50689C9.56716 8.32497 9.56248 8.0253 9.7444 7.83761C9.87129 7.70669 10.0421 7.53714 10.2382 7.38681C10.4455 7.22772 10.7427 7.26696 10.9018 7.47442C11.0609 7.68185 11.0216 7.97899 10.8142 8.13803C10.6671 8.25086 10.5285 8.38886 10.4241 8.49648C10.3314 8.5922 10.2078 8.64034 10.0842 8.64034Z" fill="currentColor"/>
<path d="M2.28729 13.2544C2.25682 13.2544 2.22588 13.2515 2.19485 13.2453C1.93878 13.1945 1.77214 12.9464 1.82243 12.6902C1.83856 12.6082 2.23395 10.6678 3.70052 9.52312C3.90658 9.3622 4.20405 9.39891 4.36483 9.60497C4.5257 9.81108 4.489 10.1085 4.28294 10.2693C3.09954 11.193 2.75444 12.8569 2.75107 12.8736C2.70607 13.0985 2.50835 13.2544 2.28729 13.2544Z" fill="currentColor"/>
</svg>
