<svg width="24" height="24" viewBox="0 0 24 24" fill="none" xmlns="http://www.w3.org/2000/svg">
<path d="M19.8011 5.82543C20.07 5.01919 20.0663 4.14762 19.7905 3.34368C19.5146 2.53975 18.9819 1.84759 18.2734 1.37281C17.0595 0.558604 15.7575 0.363005 14.6075 0.822214C13.4427 1.28736 12.5919 2.39142 12.2734 3.85123C12.1699 4.32615 12.074 4.83268 11.9882 5.35683C11.9358 5.67715 11.8736 6.00915 11.8034 6.34364C11.7947 6.39062 11.7712 6.43364 11.7364 6.46656C11.7016 6.49949 11.6572 6.52063 11.6096 6.52698C11.5607 6.53552 11.5104 6.52882 11.4656 6.50779C11.4207 6.48677 11.3835 6.45245 11.3591 6.40955C11.0531 5.88693 10.7883 5.38787 10.5723 4.92598C10.4532 4.67317 10.2831 4.44736 10.0726 4.26253C9.86215 4.0777 9.61578 3.93778 9.34873 3.85142C9.09281 3.76633 8.82188 3.73513 8.55317 3.7598C8.28446 3.78447 8.02385 3.86448 7.78793 3.99472C7.32951 4.24515 6.98866 4.66492 6.83912 5.16326C6.68958 5.66159 6.74336 6.19842 6.98884 6.65764C7.73802 8.08297 9.25277 9.53627 10.3914 10.5045C10.4289 10.536 10.4556 10.5785 10.4677 10.6259C10.4797 10.6732 10.4766 10.7232 10.4586 10.7687C9.72101 12.6092 8.78477 14.3648 7.66634 16.0047C7.49947 15.8006 7.34705 15.6012 7.2139 15.4096C7.10146 15.246 6.95289 15.11 6.77953 15.0122C6.60617 14.9143 6.41262 14.8572 6.21364 14.845C6.01571 14.8318 5.81736 14.864 5.63391 14.9391C5.45046 15.0141 5.2868 15.1301 5.15557 15.278C4.94336 15.5163 4.82621 15.8236 4.82626 16.1418C4.82546 16.3621 4.88174 16.5788 4.98967 16.7712C5.27515 17.2849 5.59349 17.7798 5.94272 18.253C5.52342 18.7396 5.08897 19.2058 4.63935 19.6515C4.3962 19.8937 4.21331 20.189 4.10525 20.5138C3.9972 20.8387 3.96697 21.1842 4.01698 21.5228C4.06699 21.8613 4.19585 22.1835 4.3933 22.4638C4.59074 22.7441 4.8513 22.9746 5.15422 23.1371L5.19951 23.1614C5.51239 23.3307 5.86283 23.4196 6.21904 23.42C6.64358 23.4202 7.05815 23.292 7.40775 23.0526C9.14737 21.8627 11.3681 19.6883 13.3482 17.2355C13.3741 17.2027 13.4081 17.1771 13.447 17.1614C13.4859 17.1458 13.5283 17.1405 13.5698 17.1463C14.7589 17.3131 15.9326 17.5743 17.0797 17.9273C17.36 18.0209 17.6587 18.0463 17.9509 18.0014C18.2431 17.9565 18.5201 17.8425 18.7588 17.6691C18.996 17.5001 19.1889 17.2771 19.3215 17.0187C19.4541 16.7603 19.5225 16.4741 19.5209 16.184V16.1196C19.5272 15.6442 19.3718 15.1806 19.08 14.8039C18.7882 14.4272 18.377 14.1595 17.9131 14.0441C17.3686 13.9206 16.8139 13.8472 16.256 13.8247C16.2149 13.8229 16.1752 13.8103 16.1407 13.7881C16.1062 13.766 16.0783 13.7351 16.0598 13.6987C16.0399 13.6613 16.0304 13.6193 16.0324 13.577C16.0343 13.5348 16.0476 13.4938 16.0708 13.4584C17.6187 11.0726 18.8712 8.50975 19.8011 5.82543ZM5.57834 16.4443C5.52661 16.3519 5.50004 16.2476 5.50126 16.1418C5.5015 15.988 5.55815 15.8395 5.66062 15.7242C5.72391 15.6526 5.80283 15.5965 5.89134 15.5599C5.97986 15.5234 6.0756 15.5075 6.17125 15.5135C6.26828 15.5195 6.36264 15.5475 6.44712 15.5953C6.53161 15.6431 6.604 15.7095 6.65876 15.7893C6.83392 16.0418 7.03817 16.3052 7.26535 16.5748C6.98274 16.9664 6.69043 17.3482 6.38841 17.7202C6.09402 17.3107 5.82355 16.8847 5.57834 16.4443ZM15.4607 14.0058C15.5329 14.1467 15.6414 14.2661 15.7752 14.3517C15.9089 14.4374 16.0631 14.4862 16.222 14.4933C16.7381 14.5139 17.2512 14.5814 17.7549 14.695C18.0715 14.7755 18.3516 14.9598 18.5497 15.2181C18.7478 15.4765 18.8524 15.7938 18.8465 16.1187V16.184C18.8476 16.3681 18.8043 16.5499 18.7202 16.7139C18.636 16.878 18.5136 17.0196 18.363 17.1269C18.2104 17.2375 18.0333 17.3102 17.8467 17.3387C17.66 17.3673 17.4691 17.351 17.2901 17.2911C16.9579 17.1827 16.6178 17.0859 16.2793 16.9989C16.444 16.6401 16.6517 16.1244 16.6608 15.7866C16.6631 15.6977 16.6299 15.6115 16.5683 15.547C16.5378 15.5151 16.5013 15.4894 16.4608 15.4715C16.4204 15.4536 16.3767 15.4437 16.3325 15.4426C16.243 15.4402 16.1563 15.4733 16.0914 15.5345C16.0265 15.5958 15.9887 15.6801 15.9864 15.769C15.9138 16.1422 15.7865 16.5028 15.6087 16.8394C14.8865 16.6786 14.2036 16.5622 13.6666 16.4838C13.5088 16.4612 13.3478 16.48 13.1996 16.5383C13.0513 16.5966 12.921 16.6924 12.8214 16.8162C12.5902 17.1024 12.3563 17.3841 12.1196 17.6614C11.6506 17.4827 11.2048 17.2486 10.7918 16.9643C10.7574 16.9365 10.7179 16.9158 10.6754 16.9032C10.633 16.8906 10.5885 16.8865 10.5444 16.891C10.5004 16.8955 10.4576 16.9087 10.4187 16.9296C10.3797 16.9506 10.3453 16.9789 10.3174 17.0131C10.2895 17.0473 10.2686 17.0866 10.2559 17.1288C10.2433 17.171 10.2391 17.2153 10.2437 17.2591C10.2483 17.3029 10.2615 17.3453 10.2825 17.3841C10.3036 17.4228 10.3322 17.457 10.3665 17.4848C10.7664 17.7721 11.1994 18.0107 11.6564 18.1955C10.5623 19.4523 9.37075 20.6219 8.09277 21.6935C7.75696 21.4402 7.45291 21.1477 7.18712 20.8224C7.16494 20.7843 7.13543 20.751 7.10028 20.7242C7.06513 20.6975 7.02502 20.6779 6.98225 20.6665C6.93947 20.6552 6.89487 20.6523 6.85099 20.6581C6.80711 20.6639 6.7648 20.6783 6.72649 20.7003C6.68818 20.7224 6.65461 20.7517 6.6277 20.7866C6.6008 20.8216 6.58108 20.8615 6.56967 20.904C6.55826 20.9465 6.55539 20.9909 6.56122 21.0345C6.56705 21.0781 6.58147 21.1202 6.60365 21.1583C6.76936 21.4429 7.22354 21.8479 7.55169 22.1194C7.37191 22.2552 7.19521 22.3844 7.02468 22.501C6.80513 22.6503 6.54823 22.736 6.28257 22.7487C6.01691 22.7615 5.75291 22.7006 5.51995 22.5731L5.47467 22.5485C5.26235 22.4355 5.07989 22.2742 4.94213 22.0778C4.80437 21.8814 4.71522 21.6554 4.68194 21.4182C4.64668 21.1845 4.66743 20.9458 4.7425 20.7216C4.81757 20.4973 4.94484 20.2939 5.11395 20.1278C5.63711 19.6105 6.13946 19.063 6.62176 18.4911C6.62735 18.4848 6.63255 18.4783 6.63776 18.472C7.6988 17.2068 8.64053 15.8473 9.45105 14.4106C9.71953 14.5617 9.99878 14.6931 10.2866 14.8037C10.37 14.8333 10.4618 14.8291 10.5422 14.7919C10.6225 14.7547 10.6849 14.6876 10.7159 14.6051C10.7469 14.5225 10.7439 14.4312 10.7077 14.3508C10.6714 14.2704 10.6048 14.2074 10.5222 14.1755C10.2648 14.0759 10.0149 13.9579 9.77458 13.8224C10.2623 12.9121 10.6998 11.976 11.0849 11.0183C11.1551 10.8428 11.1682 10.6498 11.1224 10.4664C11.0767 10.2831 10.9743 10.1186 10.8298 9.99605C9.90199 9.22498 9.05346 8.36429 8.29664 7.42663C8.53172 7.11876 8.92828 6.64595 9.23524 6.47104C9.27366 6.44915 9.30738 6.41996 9.33445 6.38512C9.36153 6.35027 9.38143 6.31047 9.39304 6.26798C9.40464 6.22549 9.40771 6.18115 9.40208 6.13748C9.39644 6.0938 9.38221 6.05166 9.3602 6.01346C9.33818 5.97526 9.30882 5.94174 9.27377 5.91482C9.23873 5.8879 9.19869 5.86811 9.15596 5.85658C9.11322 5.84504 9.06861 5.84198 9.02469 5.84759C8.98077 5.85319 8.93838 5.86734 8.89995 5.88922C8.51013 6.15248 8.16795 6.47946 7.88794 6.8563C7.77695 6.68618 7.67598 6.51606 7.58657 6.34671C7.42375 6.04233 7.38794 5.68648 7.48688 5.35607C7.58582 5.02566 7.81156 4.74722 8.11532 4.58095C8.30241 4.47723 8.5131 4.42289 8.7273 4.42309C8.86752 4.42346 9.00681 4.44576 9.14005 4.48918C9.31902 4.54694 9.48417 4.6406 9.62526 4.76437C9.76636 4.88814 9.8804 5.03939 9.96034 5.20874C10.1852 5.68922 10.4594 6.20667 10.776 6.74691C10.8688 6.90575 11.0078 7.03294 11.1747 7.11177C11.3416 7.1906 11.5286 7.21739 11.711 7.1886C11.8935 7.1598 12.063 7.07679 12.1971 6.95046C12.3313 6.82414 12.4238 6.66041 12.4626 6.48081C12.5351 6.13598 12.5991 5.79459 12.6532 5.46546C12.7064 5.13939 12.7636 4.82208 12.8249 4.51351C13.281 4.74015 13.7045 4.92387 13.7275 4.93383C13.8095 4.9694 13.9023 4.97112 13.9856 4.93863C14.0689 4.90613 14.1357 4.84207 14.1715 4.76055C14.2073 4.67903 14.209 4.58671 14.1763 4.50392C14.1437 4.42112 14.0792 4.35463 13.9972 4.31906C13.9911 4.31638 13.4673 4.08917 12.9711 3.83514C13.2654 2.67629 13.9464 1.80979 14.8595 1.44541C15.7945 1.0705 16.8731 1.24292 17.8965 1.92876C18.4042 2.26945 18.8046 2.746 19.0515 3.30335C19.2983 3.8607 19.3815 4.47611 19.2914 5.07847C18.7134 4.93108 18.1494 4.73371 17.606 4.48861C17.5664 4.46685 17.523 4.4532 17.478 4.44847C17.4331 4.44375 17.3877 4.44804 17.3445 4.46109C17.3013 4.47414 17.2612 4.49568 17.2265 4.52445C17.1918 4.55321 17.1633 4.58861 17.1427 4.62854C17.122 4.66846 17.1096 4.71211 17.1063 4.75688C17.1029 4.80165 17.1086 4.84664 17.1231 4.88918C17.1375 4.93172 17.1604 4.97093 17.1904 5.0045C17.2204 5.03807 17.2569 5.06531 17.2976 5.0846C17.885 5.3526 18.4953 5.56777 19.1213 5.72753C18.7754 6.73041 18.3783 7.71511 17.9316 8.67781C17.4335 8.52915 16.2922 8.15883 15.6513 7.71112C15.6151 7.6858 15.5742 7.66782 15.5309 7.65821C15.4877 7.6486 15.443 7.64756 15.3994 7.65512C15.3557 7.66269 15.314 7.67873 15.2766 7.70233C15.2392 7.72592 15.2069 7.75661 15.1814 7.79263C15.1559 7.82866 15.1379 7.86932 15.1282 7.9123C15.1185 7.95527 15.1175 7.99972 15.1251 8.0431C15.1327 8.08648 15.1488 8.12794 15.1726 8.16512C15.1963 8.2023 15.2272 8.23447 15.2634 8.25979C15.9484 8.73874 17.0701 9.11748 17.6429 9.29201C17.0037 10.6007 16.2888 11.8713 15.5016 13.0977C15.4146 13.2319 15.3651 13.3867 15.3579 13.5462C15.3507 13.7058 15.3862 13.8643 15.4607 14.0058Z" fill="currentColor"/>
<path d="M8.99297 19.3324C8.83072 19.4911 8.6697 19.6451 8.50989 19.7947C8.44476 19.8557 8.40665 19.9399 8.40396 20.0288C8.40127 20.1177 8.43421 20.204 8.49554 20.2688C8.55686 20.3335 8.64155 20.3714 8.73097 20.3741C8.82039 20.3768 8.90722 20.344 8.97235 20.283C9.13575 20.1298 9.30038 19.9722 9.46622 19.8102C9.49857 19.7795 9.52446 19.7427 9.54238 19.702C9.5603 19.6613 9.56988 19.6174 9.57058 19.5729C9.57128 19.5285 9.56308 19.4843 9.54645 19.443C9.52982 19.4018 9.5051 19.3642 9.47373 19.3325C9.44236 19.3008 9.40496 19.2756 9.36371 19.2585C9.32246 19.2413 9.27818 19.2324 9.23346 19.2324C9.18874 19.2324 9.14446 19.2413 9.10321 19.2584C9.06195 19.2756 9.02454 19.3007 8.99316 19.3324H8.99297Z" fill="currentColor"/>
<path d="M15.0993 10.5473C15.0927 10.5446 14.4299 10.2803 13.9221 10.0214C13.8827 10.0013 13.8397 9.9891 13.7956 9.9855C13.7514 9.9819 13.707 9.98697 13.6648 10.0004C13.6227 10.0139 13.5836 10.0355 13.5498 10.064C13.516 10.0925 13.4882 10.1273 13.4679 10.1665C13.4477 10.2056 13.4354 10.2484 13.4318 10.2923C13.4282 10.3362 13.4333 10.3803 13.4468 10.4223C13.4604 10.4642 13.4821 10.5031 13.5107 10.5367C13.5394 10.5702 13.5744 10.5979 13.6138 10.618C14.1501 10.8914 14.8201 11.1587 14.8482 11.17C14.9312 11.203 15.0241 11.2019 15.1063 11.1668C15.1885 11.1318 15.2534 11.0657 15.2866 10.9832C15.3198 10.9006 15.3187 10.8083 15.2834 10.7266C15.2482 10.6448 15.1817 10.5804 15.0987 10.5473H15.0993Z" fill="currentColor"/>
</svg>
