<svg width="49" height="48" viewBox="0 0 49 48" fill="none" xmlns="http://www.w3.org/2000/svg">
<path d="M40.8706 20.3779L42.6046 35.3059C42.7285 36.3706 42.5848 37.4495 42.1865 38.4447C41.7882 39.4399 41.1479 40.32 40.3237 41.0053C39.4994 41.6907 38.5172 42.1596 37.4661 42.3695C36.4149 42.5795 35.3279 42.5239 34.3036 42.2079L17.9736 37.1699C14.7195 36.212 11.8674 34.2172 9.85139 31.489C7.83539 28.7609 6.76588 25.4488 6.80563 22.0569C6.8183 21.6635 6.84397 21.2672 6.88264 20.8679C7.30854 16.6947 9.25255 12.8234 12.3453 9.98946C15.4381 7.15551 19.4642 5.55639 23.6586 5.49592C27.8529 5.43545 31.9234 6.91784 35.0966 9.66145C38.2698 12.4051 40.3246 16.2187 40.8706 20.3779Z" stroke="currentColor" stroke-width="0.5" stroke-linecap="round" stroke-linejoin="round"/>
<path d="M42.6036 35.3062L16.1696 22.7462C15.6237 22.4871 15.1822 22.0498 14.9178 21.5065C14.6534 20.9631 14.5818 20.3459 14.7148 19.7564C14.8478 19.1669 15.1775 18.6403 15.6497 18.2631C16.1218 17.8859 16.7083 17.6807 17.3126 17.6812H40.2936M38.4996 17.6812L28.6256 28.6642M23.0506 26.0152L30.9746 17.6812" stroke="currentColor" stroke-width="0.5" stroke-linecap="round" stroke-linejoin="round"/>
</svg>
