<svg width="20" height="20" viewBox="0 0 20 20" fill="none" xmlns="http://www.w3.org/2000/svg">
<path d="M5 15.8332H7.5V11.6665C7.5 11.4304 7.58 11.2326 7.74 11.0732C7.9 10.9137 8.09778 10.8337 8.33333 10.8332H11.6667C11.9028 10.8332 12.1008 10.9132 12.2608 11.0732C12.4208 11.2332 12.5006 11.4309 12.5 11.6665V15.8332H15V8.33317L10 4.58317L5 8.33317V15.8332ZM3.33333 15.8332V8.33317C3.33333 8.06928 3.3925 7.81928 3.51083 7.58317C3.62917 7.34706 3.79222 7.15261 4 6.99984L9 3.24984C9.29167 3.02762 9.625 2.9165 10 2.9165C10.375 2.9165 10.7083 3.02762 11 3.24984L16 6.99984C16.2083 7.15261 16.3717 7.34706 16.49 7.58317C16.6083 7.81928 16.6672 8.06928 16.6667 8.33317V15.8332C16.6667 16.2915 16.5033 16.684 16.1767 17.0107C15.85 17.3373 15.4578 17.5004 15 17.4998H11.6667C11.4306 17.4998 11.2328 17.4198 11.0733 17.2598C10.9139 17.0998 10.8339 16.9021 10.8333 16.6665V12.4998H9.16667V16.6665C9.16667 16.9026 9.08667 17.1007 8.92667 17.2607C8.76667 17.4207 8.56889 17.5004 8.33333 17.4998H5C4.54167 17.4998 4.14944 17.3368 3.82333 17.0107C3.49722 16.6846 3.33389 16.2921 3.33333 15.8332Z" fill="currentColor"/>
</svg>
