<svg width="20" height="20" viewBox="0 0 20 20" fill="none" xmlns="http://www.w3.org/2000/svg">
<path d="M17.5 8.3335C17.5 14.1668 10 19.1668 10 19.1668C10 19.1668 2.5 14.1668 2.5 8.3335C2.5 6.34437 3.29018 4.43672 4.6967 3.0302C6.10322 1.62367 8.01088 0.833496 10 0.833496C11.9891 0.833496 13.8968 1.62367 15.3033 3.0302C16.7098 4.43672 17.5 6.34437 17.5 8.3335Z" fill="#643ABB"/>
<path d="M10.4167 9.7665C12.0275 9.7665 13.3333 8.5129 13.3333 6.9665C13.3333 5.42011 12.0275 4.1665 10.4167 4.1665C8.80584 4.1665 7.5 5.42011 7.5 6.9665C7.5 8.5129 8.80584 9.7665 10.4167 9.7665Z" fill="white"/>
</svg>
