<svg width="24" height="32" viewBox="0 0 24 32" fill="none" xmlns="http://www.w3.org/2000/svg">
<path d="M21 13.3335C21 22.6668 12 30.6668 12 30.6668C12 30.6668 3 22.6668 3 13.3335C3 10.1509 3.94821 7.09865 5.63604 4.84821C7.32387 2.59778 9.61305 1.3335 12 1.3335C14.3869 1.3335 16.6761 2.59778 18.364 4.84821C20.0518 7.09865 21 10.1509 21 13.3335Z" stroke="#3A3A3A" stroke-width="2" stroke-linecap="round" stroke-linejoin="round"/>
<path d="M12 14.6665C13.6569 14.6665 15 12.8756 15 10.6665C15 8.45736 13.6569 6.6665 12 6.6665C10.3431 6.6665 9 8.45736 9 10.6665C9 12.8756 10.3431 14.6665 12 14.6665Z" stroke="#3A3A3A" stroke-width="2" stroke-linecap="round" stroke-linejoin="round"/>
</svg>
