<svg width="50" height="50" viewBox="0 0 50 50" fill="none" xmlns="http://www.w3.org/2000/svg">
<circle cx="25" cy="25" r="25" fill="white"/>
<path d="M14.6797 20.2905H36.7344C37.1211 20.2905 37.4375 19.9858 37.4375 19.5991C37.4375 19.2241 37.1211 18.9194 36.7344 18.9194H14.6797C14.293 18.9194 13.9883 19.2241 13.9883 19.5991C13.9883 19.9858 14.293 20.2905 14.6797 20.2905ZM14.6797 25.5991H36.7344C37.1211 25.5991 37.4375 25.2944 37.4375 24.9077C37.4375 24.521 37.1211 24.2163 36.7344 24.2163H14.6797C14.293 24.2163 13.9883 24.521 13.9883 24.9077C13.9883 25.2944 14.293 25.5991 14.6797 25.5991ZM14.6797 30.896H36.7344C37.1211 30.896 37.4375 30.5914 37.4375 30.2046C37.4375 29.8179 37.1211 29.5132 36.7344 29.5132H14.6797C14.293 29.5132 13.9883 29.8179 13.9883 30.2046C13.9883 30.5914 14.293 30.896 14.6797 30.896Z" fill="black"/>
</svg>
