<svg width="24" height="24" viewBox="0 0 24 24" fill="none" xmlns="http://www.w3.org/2000/svg">
<g clip-path="url(#clip0_691_3607)">
<path d="M16.8792 8.50761C16.9389 8.58718 17.0277 8.63978 17.1262 8.65384C17.2246 8.66791 17.3246 8.64229 17.4042 8.58261C17.4838 8.52294 17.5364 8.4341 17.5504 8.33565C17.5645 8.23719 17.5389 8.13718 17.4792 8.05761C17.3829 7.92927 17.2807 7.80261 17.1754 7.68121C17.1432 7.64359 17.1039 7.6127 17.0598 7.59033C17.0157 7.56795 16.9676 7.55454 16.9182 7.55085C16.8689 7.54716 16.8193 7.55327 16.7723 7.56884C16.7253 7.5844 16.6819 7.60911 16.6445 7.64153C16.6072 7.67396 16.5766 7.71346 16.5545 7.75776C16.5325 7.80206 16.5194 7.85028 16.5161 7.89965C16.5128 7.94903 16.5193 7.99856 16.5352 8.04542C16.5511 8.09227 16.5761 8.13551 16.6088 8.17264C16.7025 8.28078 16.7935 8.39347 16.8792 8.50761Z" fill="currentColor"/>
<path d="M17.8806 14.5886C17.9266 14.6064 17.9756 14.6149 18.0248 14.6136C18.0741 14.6124 18.1226 14.6015 18.1676 14.5815C18.2126 14.5615 18.2533 14.5328 18.2872 14.4971C18.3211 14.4613 18.3477 14.4193 18.3653 14.3733C18.9067 12.9653 18.9474 11.414 18.4807 9.9795C18.4499 9.88493 18.3828 9.80649 18.2941 9.76142C18.2054 9.71635 18.1025 9.70834 18.0079 9.73917C17.9134 9.76999 17.8349 9.83712 17.7898 9.92579C17.7448 10.0144 17.7368 10.1174 17.7676 10.212C18.1809 11.4826 18.1448 12.8568 17.6653 14.104C17.6296 14.1968 17.6322 14.3 17.6726 14.3909C17.713 14.4818 17.7878 14.5529 17.8806 14.5886Z" fill="currentColor"/>
<path d="M6.39516 13.7066C6.46481 13.7321 6.54045 13.7364 6.61253 13.7189C6.6846 13.7014 6.74987 13.6629 6.80007 13.6083C6.85028 13.5537 6.88317 13.4855 6.89458 13.4122C6.906 13.3389 6.89542 13.2639 6.8642 13.1966C6.83297 13.1293 6.7825 13.0728 6.71916 13.0342C6.65582 12.9957 6.58246 12.9767 6.50836 12.9798C6.43425 12.9829 6.36273 13.0079 6.30284 13.0517C6.24295 13.0954 6.19738 13.156 6.17189 13.2256C6.13771 13.319 6.14203 13.4222 6.1839 13.5124C6.22577 13.6026 6.30176 13.6725 6.39516 13.7066Z" fill="currentColor"/>
<path d="M4.97348 12.0787C5.04313 12.1042 5.11878 12.1085 5.19086 12.091C5.26293 12.0735 5.32821 12.035 5.37842 11.9804C5.42863 11.9258 5.46152 11.8576 5.47295 11.7843C5.48437 11.711 5.4738 11.636 5.44258 11.5687C5.41136 11.5014 5.36089 11.4449 5.29755 11.4063C5.23421 11.3677 5.16085 11.3488 5.08675 11.3519C5.01264 11.355 4.94112 11.38 4.88123 11.4237C4.82133 11.4675 4.77576 11.528 4.75026 11.5977C4.71608 11.6911 4.7204 11.7942 4.76226 11.8844C4.80412 11.9746 4.8801 12.0445 4.97348 12.0787Z" fill="currentColor"/>
<path d="M5.39231 13.2637C5.41781 13.194 5.42208 13.1184 5.40459 13.0463C5.38709 12.9742 5.34862 12.909 5.29403 12.8588C5.23944 12.8086 5.17119 12.7757 5.09791 12.7642C5.02463 12.7528 4.9496 12.7634 4.88233 12.7946C4.81505 12.8258 4.75854 12.8763 4.71994 12.9396C4.68134 13.003 4.66239 13.0763 4.66549 13.1504C4.66858 13.2245 4.69358 13.296 4.73732 13.3559C4.78106 13.4158 4.84158 13.4614 4.91123 13.4869C4.95747 13.5038 5.0066 13.5115 5.0558 13.5094C5.10501 13.5074 5.15333 13.4957 5.198 13.4749C5.24267 13.4542 5.28283 13.4249 5.31616 13.3886C5.3495 13.3524 5.37538 13.3099 5.39231 13.2637Z" fill="currentColor"/>
<path d="M5.7374 14.3558C5.66775 14.3304 5.59211 14.3261 5.52004 14.3436C5.44796 14.3611 5.3827 14.3996 5.3325 14.4542C5.28229 14.5088 5.2494 14.577 5.23799 14.6503C5.22657 14.7236 5.23715 14.7986 5.26837 14.8659C5.29959 14.9332 5.35006 14.9897 5.41339 15.0282C5.47673 15.0668 5.55009 15.0858 5.62419 15.0827C5.69829 15.0796 5.76981 15.0546 5.8297 15.0108C5.88959 14.9671 5.93517 14.9066 5.96067 14.8369C5.9776 14.7907 5.98525 14.7416 5.9832 14.6923C5.98114 14.6431 5.96941 14.5948 5.94868 14.5501C5.92794 14.5055 5.89862 14.4653 5.86236 14.432C5.82611 14.3986 5.78365 14.3728 5.7374 14.3558Z" fill="currentColor"/>
<path d="M6.75941 15.9281C6.68976 15.9026 6.61412 15.8984 6.54205 15.9159C6.46997 15.9333 6.4047 15.9718 6.35449 16.0264C6.30428 16.081 6.27139 16.1492 6.25997 16.2225C6.24855 16.2958 6.25911 16.3708 6.29033 16.4381C6.32154 16.5054 6.37201 16.5619 6.43534 16.6005C6.49867 16.6391 6.57203 16.658 6.64613 16.6549C6.72023 16.6519 6.79176 16.6269 6.85165 16.5831C6.91155 16.5394 6.95713 16.4789 6.98263 16.4092C6.99956 16.363 7.00722 16.3138 7.00516 16.2646C7.00311 16.2154 6.99138 16.1671 6.97066 16.1224C6.94993 16.0778 6.9206 16.0376 6.88436 16.0043C6.84811 15.9709 6.80565 15.9451 6.75941 15.9281Z" fill="currentColor"/>
<path d="M7.27508 14.519C7.20544 14.4935 7.12979 14.4892 7.05769 14.5066C6.9856 14.5241 6.92031 14.5626 6.87007 14.6171C6.81984 14.6717 6.78692 14.74 6.77548 14.8133C6.76404 14.8866 6.7746 14.9616 6.80581 15.0289C6.83702 15.0962 6.88749 15.1527 6.95083 15.1913C7.01417 15.2299 7.08754 15.2489 7.16165 15.2458C7.23577 15.2427 7.3073 15.2177 7.3672 15.1739C7.4271 15.1302 7.47267 15.0696 7.49816 15C7.53232 14.9066 7.52801 14.8035 7.48618 14.7133C7.44435 14.6231 7.36842 14.5532 7.27508 14.519Z" fill="currentColor"/>
<path d="M22.8817 15.375H19.5462C20.0446 14.3198 20.3019 13.167 20.2994 12C20.2994 7.8 17.0014 4.32337 12.7525 3.81431V1.125C12.7525 1.02554 12.713 0.930161 12.6427 0.859835C12.5724 0.789509 12.477 0.75 12.3775 0.75H10.9244C10.8249 0.75 10.7296 0.789509 10.6592 0.859835C10.5889 0.930161 10.5494 1.02554 10.5494 1.125V2.295L9.48064 2.43211L7.30822 2.709C5.65266 2.91696 4.14245 3.7594 3.09575 5.05884L0.833378 7.85691C0.783898 7.91811 0.754929 7.99333 0.750575 8.07191C0.74622 8.1505 0.7667 8.22846 0.809114 8.29476C0.851529 8.36105 0.913727 8.41232 0.986899 8.44131C1.06007 8.47029 1.14051 8.47552 1.21682 8.45625L4.33714 7.66814C3.42924 9.06258 2.98175 10.7067 3.05774 12.369C3.13373 14.0312 3.72936 15.6277 4.76071 16.9335C5.83492 18.3051 7.30146 19.317 8.96507 19.8344C9.26724 20.2858 9.61718 20.7033 10.0088 21.0797C11.4703 22.4859 13.418 23.2605 15.4932 23.2605C17.5684 23.2605 19.5163 22.486 20.9776 21.0797C21.6994 20.3926 22.2737 19.5656 22.6655 18.6494C23.0574 17.7331 23.2585 16.7466 23.2567 15.75C23.2567 15.6505 23.2172 15.5552 23.1469 15.4848C23.0765 15.4145 22.9811 15.375 22.8817 15.375ZM11.7026 19.4197C10.7948 18.552 10.2424 17.3776 10.1528 16.125H14.6743L12.1969 19.8413C12.0237 19.711 11.8586 19.5701 11.7026 19.4197ZM15.375 16.426L17.9852 20.3413C17.1811 20.7414 16.2925 20.9419 15.3945 20.9258C14.4965 20.9097 13.6156 20.6775 12.8264 20.2489L15.375 16.426ZM18.63 19.9566L16.0757 16.125H20.8338C20.7442 17.3776 20.1918 18.552 19.284 19.4197C19.0806 19.6157 18.8619 19.7952 18.63 19.9566ZM11.2994 1.5H12.0025V3.75H11.2994V1.5ZM10.5494 3.82031C10.0574 3.88173 9.57145 3.98418 9.09655 4.12659L9.7453 3.15431L10.5496 3.05119L10.5494 3.82031ZM8.24136 4.05703L7.97778 4.45214C7.94628 4.49934 7.91371 4.54589 7.8808 4.59234C7.44933 4.79521 7.03522 5.03312 6.64264 5.30367L6.66608 5.04844L8.24136 4.05703ZM7.40296 3.453L7.89196 3.39066L5.42952 4.94063C5.40139 4.92619 4.48011 4.719 4.48011 4.719C5.31403 4.0274 6.32803 3.5882 7.40296 3.453ZM3.67878 5.53036C3.73007 5.46695 3.7826 5.40488 3.83638 5.34413C3.84332 5.34609 3.85016 5.34825 3.85728 5.34984L4.54053 5.49984L2.83621 6.57263L3.67878 5.53036ZM4.62097 6.82294L3.3275 7.14966L5.86677 5.5515L5.83119 5.93766C5.56428 6.17315 5.31246 6.42522 5.07721 6.69234C4.95102 6.73214 4.73539 6.79406 4.62088 6.82294H4.62097ZM5.35175 16.4719C4.34551 15.1986 3.79853 13.6229 3.79939 12C3.79939 7.8645 7.33208 4.5 11.6744 4.5C16.0167 4.5 19.5494 7.8645 19.5494 12C19.5519 13.1758 19.2638 14.334 18.7107 15.3716C18.71 15.3727 18.7097 15.3739 18.7091 15.375H8.10467C8.00522 15.375 7.90984 15.4145 7.83951 15.4848C7.76918 15.5552 7.72967 15.6505 7.72967 15.75C7.72754 16.8096 7.95509 17.8571 8.39666 18.8203C7.20381 18.3002 6.15787 17.4935 5.35175 16.4719ZM20.4576 20.5394C19.1367 21.8106 17.3736 22.5107 15.4933 22.5107C13.6129 22.5107 11.85 21.8106 10.5289 20.5394C9.31203 19.3812 8.5829 17.8024 8.49027 16.125H9.40152C9.49136 17.5816 10.1271 18.9508 11.182 19.9594C12.33 21.0667 13.8611 21.6766 15.4933 21.6766C17.1254 21.6766 18.6566 21.0668 19.8047 19.9594C20.8595 18.9508 21.4953 17.5816 21.5851 16.125H22.4963C22.4036 17.8024 21.6745 19.3812 20.4576 20.5394Z" fill="currentColor"/>
</g>
<defs>
<clipPath id="clip0_691_3607">
<rect width="24" height="24" fill="white"/>
</clipPath>
</defs>
</svg>
