<svg width="14" height="22" viewBox="0 0 14 22" fill="none" xmlns="http://www.w3.org/2000/svg">
<path d="M6.99988 1.14648C8.2543 1.14648 9.33944 1.57016 10.0321 2.19238C10.7203 2.81077 11.0067 3.6038 10.7567 4.4043L10.6552 4.73047L10.9823 4.82422C11.5915 4.99935 12.0378 5.56178 12.038 6.22461C12.038 6.85247 11.6382 7.39068 11.078 7.59473L10.8436 7.67969L10.8593 7.92969C10.9374 9.14669 11.3264 10.6474 11.8212 12.1797C12.0694 12.9484 12.3468 13.7319 12.6288 14.499L13.4647 16.7207C14.2221 18.7136 12.7477 20.8525 10.6151 20.8525H3.38464C1.31914 20.8525 -0.130099 18.8452 0.470581 16.9072L0.535034 16.7207C1.05684 15.3487 1.66824 13.7577 2.16785 12.2139C2.66583 10.675 3.06173 9.15588 3.1405 7.92969L3.15613 7.67969L2.92175 7.59473C2.36153 7.39065 1.96179 6.85243 1.96179 6.22461C1.96191 5.56178 2.40827 4.99932 3.01746 4.82422L3.3446 4.73047L3.24304 4.4043C2.99316 3.60394 3.27952 2.81079 3.96765 2.19238C4.66022 1.57014 5.74529 1.14649 6.99988 1.14648ZM6.84949 12.7646L1.70203 15.375L1.58582 15.4336L1.53992 15.5547L1.02722 16.9072C0.399366 18.559 1.61588 20.3252 3.38464 20.3252H10.6151C12.327 20.3252 13.5248 18.6693 13.0262 17.0625L12.9725 16.9072C12.7932 16.4354 12.6274 15.9995 12.4598 15.5547L12.4139 15.4336L12.2987 15.375L7.15027 12.7646L6.99988 12.6875L6.84949 12.7646ZM3.66492 7.99316C3.5527 9.65873 2.91404 11.7651 2.14539 13.9141L1.86316 14.7021L2.60925 14.3242L6.88074 12.1572C6.93672 12.1288 7.00052 12.1216 7.06042 12.1357L7.11902 12.1572L11.3905 14.3242L12.1366 14.7021L11.8544 13.9141C11.0857 11.7651 10.448 9.65871 10.3358 7.99316L10.3143 7.68164H3.68542L3.66492 7.99316ZM3.41882 5.29492C2.90573 5.29494 2.48928 5.71154 2.48914 6.22461C2.48914 6.73779 2.90564 7.15526 3.41882 7.15527H10.5809C11.0941 7.15527 11.5116 6.7378 11.5116 6.22461C11.5115 5.71153 11.094 5.29492 10.5809 5.29492H3.41882ZM7.93054 1.75684L7.64148 1.71777C7.21429 1.65979 6.78533 1.65978 6.35828 1.71777L6.07019 1.75684V2.64355C6.07019 2.78898 5.95191 2.90707 5.80652 2.90723C5.661 2.90723 5.54285 2.78908 5.54285 2.64355V1.86816L5.06628 2.09473C4.57877 2.32725 4.13535 2.67226 3.8866 3.10352C3.62661 3.55428 3.58907 4.08889 3.91296 4.61035L4.01062 4.76758H9.98914L10.0868 4.61035C10.396 4.11256 10.3786 3.5887 10.1307 3.13477C9.92244 2.75334 9.56008 2.43336 9.12488 2.19336L8.93347 2.09473L8.45691 1.86816V2.64355C8.45691 2.78908 8.33876 2.90723 8.19324 2.90723C8.04789 2.90702 7.93054 2.78895 7.93054 2.64355V1.75684Z" fill="currentColor" stroke="currentColor" stroke-width="0.666667"/>
<path d="M4.61271 17.5648C4.94234 17.5648 5.20956 17.2976 5.20956 16.9679C5.20956 16.6383 4.94234 16.3711 4.61271 16.3711C4.28309 16.3711 4.01587 16.6383 4.01587 16.9679C4.01587 17.2976 4.28309 17.5648 4.61271 17.5648Z" fill="currentColor"/>
<path d="M6.40324 15.7738C6.73287 15.7738 7.00009 15.5066 7.00009 15.1769C7.00009 14.8473 6.73287 14.5801 6.40324 14.5801C6.07361 14.5801 5.8064 14.8473 5.8064 15.1769C5.8064 15.5066 6.07361 15.7738 6.40324 15.7738Z" fill="currentColor"/>
<path d="M7.59697 18.1615C7.9266 18.1615 8.19381 17.8942 8.19381 17.5646C8.19381 17.235 7.9266 16.9678 7.59697 16.9678C7.26734 16.9678 7.00012 17.235 7.00012 17.5646C7.00012 17.8942 7.26734 18.1615 7.59697 18.1615Z" fill="currentColor"/>
</svg>
