<svg width="20" height="20" viewBox="0 0 20 20" fill="none" xmlns="http://www.w3.org/2000/svg">
<path d="M2.91666 9.1665V11.6665C2.91666 14.809 2.91666 16.3807 3.89332 17.3565C4.86999 18.3323 6.44082 18.3332 9.58332 18.3332H10.4167C13.5592 18.3332 15.1308 18.3332 16.1067 17.3565C17.0825 16.3798 17.0833 14.809 17.0833 11.6665V9.1665" stroke="currentColor" stroke-width="1.5"/>
<path d="M7.91666 1.6665H12.0833L12.6267 7.09734C12.6625 7.46381 12.6212 7.83372 12.5055 8.18328C12.3897 8.53284 12.2022 8.85431 11.9548 9.12704C11.7074 9.39977 11.4057 9.61772 11.069 9.76687C10.7323 9.91601 10.3682 9.99306 9.99999 9.99306C9.63178 9.99306 9.26764 9.91601 8.93098 9.76687C8.59432 9.61772 8.2926 9.39977 8.04522 9.12704C7.79783 8.85431 7.61025 8.53284 7.49453 8.18328C7.37882 7.83372 7.33753 7.46381 7.37332 7.09734L7.91666 1.6665Z" stroke="currentColor" stroke-width="1.5"/>
<path d="M2.77499 4.459C2.92333 3.71734 2.99749 3.3465 3.14833 3.04567C3.30549 2.73237 3.52678 2.45562 3.79783 2.23338C4.06888 2.01114 4.38363 1.84838 4.72166 1.75567C5.04666 1.6665 5.42499 1.6665 6.18166 1.6665H7.91666L7.31249 7.704C7.28061 8.04953 7.17854 8.38491 7.01254 8.68962C6.84654 8.99433 6.62009 9.26195 6.34707 9.4761C6.07405 9.69026 5.76019 9.84644 5.42471 9.93508C5.08923 10.0237 4.73919 10.043 4.39601 9.99163C4.05284 9.94029 3.72375 9.81946 3.4289 9.63652C3.13405 9.45358 2.87963 9.21239 2.68123 8.92771C2.48283 8.64304 2.34462 8.32086 2.27505 7.98092C2.20549 7.64097 2.20603 7.2904 2.27666 6.95067L2.77499 4.459ZM17.225 4.459C17.0767 3.71734 17.0025 3.3465 16.8517 3.04567C16.6945 2.73237 16.4732 2.45562 16.2022 2.23338C15.9311 2.01114 15.6164 1.84838 15.2783 1.75567C14.9533 1.6665 14.575 1.6665 13.8183 1.6665H12.0833L12.6875 7.704C12.7194 8.04953 12.8214 8.38491 12.9874 8.68962C13.1535 8.99433 13.3799 9.26195 13.6529 9.4761C13.9259 9.69026 14.2398 9.84644 14.5753 9.93508C14.9108 10.0237 15.2608 10.043 15.604 9.99163C15.9471 9.94029 16.2762 9.81946 16.5711 9.63652C16.8659 9.45358 17.1204 9.21239 17.3188 8.92771C17.5172 8.64304 17.6554 8.32086 17.7249 7.98092C17.7945 7.64097 17.794 7.2904 17.7233 6.95067L17.225 4.459Z" stroke="currentColor" stroke-width="1.5"/>
<path d="M7.91666 17.9163V15.4163C7.91666 14.6372 7.91666 14.248 8.08416 13.958C8.19386 13.768 8.35165 13.6102 8.54166 13.5005C8.83166 13.333 9.22082 13.333 9.99999 13.333C10.7792 13.333 11.1683 13.333 11.4583 13.5005C11.6483 13.6102 11.8061 13.768 11.9158 13.958C12.0833 14.248 12.0833 14.6372 12.0833 15.4163V17.9163" stroke="currentColor" stroke-width="1.5" stroke-linecap="round"/>
</svg>
