<svg width="27" height="27" viewBox="0 0 27 27" fill="none" xmlns="http://www.w3.org/2000/svg">
<g clip-path="url(#clip0_366_3583)">
<path d="M10.9306 21.7432L4.70385 13.7404C4.54233 13.5331 4.42327 13.2959 4.35346 13.0425C4.28366 12.7891 4.26449 12.5245 4.29704 12.2636C4.32959 12.0028 4.41323 11.751 4.54317 11.5225C4.67312 11.2941 4.84682 11.0935 5.05435 10.9322L14.6322 3.47096L24.5552 4.70947L23.3167 14.6325L13.7289 22.0925C13.3109 22.4157 12.7821 22.5604 12.2577 22.4949C11.7334 22.4295 11.2563 22.1593 10.9306 21.7432V21.7432Z" stroke="#5C5C5C" stroke-width="2" stroke-linecap="round" stroke-linejoin="round"/>
<path d="M18.9746 9.05176L18.9734 9.06168" stroke="#5C5C5C" stroke-width="2" stroke-linecap="round" stroke-linejoin="round"/>
</g>
<defs>
<clipPath id="clip0_366_3583">
<rect width="24" height="24" fill="white" transform="translate(26.7876 2.97266) rotate(97.1144)"/>
</clipPath>
</defs>
</svg>
