<svg width="12" height="12" viewBox="0 0 12 12" fill="none" xmlns="http://www.w3.org/2000/svg">
<path d="M0.666748 10.6668V4.66683C0.666748 4.45572 0.714081 4.25572 0.808748 4.06683C0.903415 3.87794 1.03386 3.72238 1.20008 3.60016L5.20008 0.600163C5.43341 0.422385 5.70008 0.333496 6.00008 0.333496C6.30008 0.333496 6.56675 0.422385 6.80008 0.600163L10.8001 3.60016C10.9667 3.72238 11.0974 3.87794 11.1921 4.06683C11.2867 4.25572 11.3339 4.45572 11.3334 4.66683V10.6668C11.3334 11.0335 11.2027 11.3475 10.9414 11.6088C10.6801 11.8702 10.3663 12.0006 10.0001 12.0002H8.00008C7.81119 12.0002 7.65297 11.9362 7.52541 11.8082C7.39786 11.6802 7.33386 11.5219 7.33341 11.3335V8.00016C7.33341 7.81127 7.26941 7.65305 7.14141 7.5255C7.01341 7.39794 6.85519 7.33394 6.66675 7.3335H5.33341C5.14453 7.3335 4.9863 7.3975 4.85875 7.5255C4.73119 7.6535 4.66719 7.81172 4.66675 8.00016V11.3335C4.66675 11.5224 4.60275 11.6808 4.47475 11.8088C4.34675 11.9368 4.18853 12.0006 4.00008 12.0002H2.00008C1.63341 12.0002 1.31964 11.8697 1.05875 11.6088C0.797859 11.3479 0.667192 11.0339 0.666748 10.6668Z" fill="#696969"/>
</svg>
