<svg width="16" height="15" viewBox="0 0 16 15" fill="none" xmlns="http://www.w3.org/2000/svg">
<path d="M6.91403 0.421709C7.6126 0.150437 8.3874 0.150438 9.08597 0.421709L12.5002 1.74754C13.2409 2.03516 13.8372 2.60488 14.1583 3.33167L15.4643 6.28758C15.8055 7.05985 15.8055 7.94015 15.4643 8.71242L14.1583 11.6683C13.8372 12.3951 13.2409 12.9648 12.5002 13.2525L9.08597 14.5783C8.3874 14.8496 7.6126 14.8496 6.91403 14.5783L3.49981 13.2525C2.75913 12.9648 2.1628 12.3951 1.84169 11.6683L0.53568 8.71242C0.194471 7.94015 0.19447 7.05985 0.535679 6.28758L1.84168 3.33167C2.1628 2.60488 2.75913 2.03516 3.49981 1.74754L6.91403 0.421709Z" fill="#1B3826"/>
<g clip-path="url(#clip0_366_4235)">
<path d="M12.2847 3.87865C12.1529 3.67026 11.9089 3.6467 11.7397 3.82603L6.54832 9.32745L4.99425 6.87012C4.86247 6.66173 4.61847 6.63819 4.44923 6.8175C4.28 6.99682 4.24966 7.3111 4.38145 7.5195L6.17415 10.3541C6.30588 10.5625 6.55007 10.5859 6.71917 10.4067L12.2169 4.58066C12.3861 4.40135 12.4165 4.08705 12.2847 3.87865Z" fill="white"/>
</g>
<defs>
<clipPath id="clip0_366_4235">
<rect width="7.74358" height="7.32478" fill="white" transform="translate(4.70386 3) rotate(5.51458)"/>
</clipPath>
</defs>
</svg>
