<svg width="24" height="24" viewBox="0 0 24 24" fill="none" xmlns="http://www.w3.org/2000/svg">
<g clip-path="url(#clip0_691_3594)">
<path d="M22.7482 8.30537C22.162 6.73002 21.1058 5.51323 19.6937 4.78638C19.4233 4.6503 19.1939 4.44487 19.029 4.19109C18.864 3.93731 18.7694 3.64428 18.7548 3.34195L18.7487 3.11226C18.7465 3.02867 18.7164 2.9482 18.6632 2.88365C18.6101 2.81911 18.5369 2.77418 18.4553 2.75601C18.3736 2.73785 18.2883 2.74748 18.2128 2.78339C18.1372 2.8193 18.0759 2.87942 18.0385 2.9542L17.9357 3.15914C17.7942 3.42677 17.5841 3.65203 17.3271 3.8119C17.07 3.97176 16.7751 4.0605 16.4725 4.06904C14.7854 4.13166 13.2446 4.87835 12.0475 6.12842C11.5193 4.91577 10.693 3.85639 9.64543 3.04881C8.5979 2.24123 7.36316 1.71167 6.05603 1.5094L1.1822 0.754421C1.11936 0.744684 1.05506 0.751092 0.995375 0.773041C0.935685 0.79499 0.882557 0.831759 0.840988 0.879891C0.799419 0.928024 0.770774 0.985937 0.757746 1.04819C0.744719 1.11044 0.747737 1.17498 0.766516 1.23574L2.22344 5.94753C2.82586 7.89616 4.16325 9.5337 5.95225 10.5132C5.5725 10.6806 5.20666 10.878 4.85819 11.1034C3.44805 12.018 2.48992 13.3135 2.08741 14.8499C2.01333 15.1434 1.86263 15.412 1.65072 15.6281C1.43881 15.8443 1.17329 16.0004 0.881313 16.0803L0.658844 16.1361C0.577674 16.1563 0.505607 16.2031 0.454108 16.2691C0.402608 16.335 0.374634 16.4163 0.374634 16.4999C0.374634 16.5836 0.402608 16.6648 0.454108 16.7308C0.505607 16.7967 0.577674 16.8435 0.658844 16.8638L0.881313 16.9195C1.17329 16.9995 1.4388 17.1555 1.65071 17.3717C1.86262 17.5879 2.01332 17.8564 2.08741 18.1499C2.48992 19.6863 3.44805 20.9818 4.85819 21.8964C6.22352 22.782 7.915 23.25 9.74978 23.25C12.9019 23.25 15.5157 21.907 16.7845 19.6935C16.7914 19.6935 16.7985 19.6941 16.8052 19.6941C16.9296 19.6941 17.0537 19.684 17.1765 19.664C20.0112 19.202 22.245 16.7919 23.0061 13.3742C23.4049 11.5833 23.3157 9.83051 22.7482 8.30537ZM11.4986 6.76813C11.0579 7.34571 10.6908 7.97598 10.406 8.64437L10.0986 8.37887L10.1767 4.56901C10.7471 5.21581 11.195 5.96098 11.4986 6.76813ZM3.26163 6.56929L6.13038 5.94294L7.16833 6.83929L3.72058 7.41919C3.54847 7.14664 3.39513 6.86268 3.26163 6.56929ZM3.97881 4.08488L2.51664 4.35676L1.8693 2.2632L3.97881 4.08488ZM2.35947 1.69554L4.52486 2.03103L4.46899 3.51727L2.35947 1.69554ZM2.93997 5.72595L2.73963 5.07803L4.7057 4.71269L5.42074 5.33023L2.98469 5.86212C2.96964 5.81698 2.95408 5.77165 2.93997 5.72595ZM7.73008 2.7763L7.65841 6.27167L6.62045 5.37532L6.82239 2.44602C7.13211 2.53534 7.43538 2.64569 7.73008 2.7763ZM8.47244 3.1582C8.81408 3.36095 9.13813 3.592 9.44116 3.84891L9.36147 7.7423L8.39584 6.90824L8.47244 3.1582ZM6.08242 2.27497L5.91095 4.76256L5.19588 4.14502L5.27088 2.14667L5.94119 2.25055C5.98849 2.25786 6.03541 2.26667 6.08242 2.27497ZM4.20653 8.09804L7.90534 7.47591L8.87097 8.30992L5.03078 8.95586C4.73253 8.69347 4.45681 8.40653 4.20653 8.09804ZM5.85124 9.57846L9.60827 8.94653L10.1211 9.38941C10.0808 9.5092 10.0426 9.6306 10.0065 9.75364C9.9212 9.75167 9.83584 9.74984 9.74978 9.74984C8.7942 9.74524 7.84312 9.88106 6.92702 10.153C6.55255 9.9928 6.19262 9.80058 5.85124 9.57846ZM5.26633 11.7327C5.80784 11.3845 6.39298 11.1093 7.00656 10.9144C7.01753 10.9114 7.02817 10.9076 7.03881 10.9036C7.91643 10.6308 8.83077 10.4947 9.74978 10.4998C12.938 10.4998 15.5092 11.9758 16.4599 14.3517C16.5841 14.6574 16.6063 14.995 16.5235 15.3145C16.4406 15.6339 16.2569 15.9181 15.9998 16.1249H15.6218C15.7209 15.8435 15.7632 15.5452 15.7461 15.2473C15.729 14.9495 15.6529 14.658 15.5222 14.3897C15.3915 14.1215 15.2088 13.882 14.9847 13.6849C14.7607 13.4879 14.4997 13.3374 14.217 13.2421C13.869 12.77 13.3414 12.3967 12.7162 12.183C12.3407 12.0534 11.945 11.992 11.5479 12.0017C11.0535 11.528 10.302 11.2499 9.49619 11.2499C8.67189 11.2499 7.90713 11.5396 7.41335 12.0319C7.12209 12.0582 6.8355 12.1223 6.56078 12.2225C5.60852 12.5677 4.91392 13.2731 4.73083 14.0593C4.32707 14.2326 3.98322 14.5208 3.74209 14.8881C3.50097 15.2554 3.37323 15.6855 3.37478 16.1249H2.21256C2.5004 15.8192 2.70684 15.4462 2.81294 15.0399C3.16727 13.6874 4.01561 12.5436 5.26633 11.7327ZM8.51477 19.2349L8.1482 18.8682C7.83515 18.5541 7.41342 18.3721 6.97009 18.36L5.26211 18.3037C5.23579 18.303 5.20946 18.3049 5.18355 18.3096C5.1812 18.3088 5.17886 18.3076 5.17666 18.3069C4.87109 18.2123 4.60396 18.0221 4.41459 17.7644C4.22523 17.5066 4.12364 17.1948 4.12478 16.8749H14.7994C14.93 17.1015 14.999 17.3582 14.9997 17.6197C15.0005 17.8812 14.9328 18.1383 14.8035 18.3656L12.4618 18.3715C12.1401 18.3717 11.8248 18.4618 11.5514 18.6315C11.278 18.8012 11.0574 19.0438 10.9144 19.332C10.8919 19.3761 10.8784 19.4242 10.8746 19.4735C10.8708 19.5229 10.8768 19.5725 10.8923 19.6195C10.9077 19.6665 10.9323 19.71 10.9647 19.7475C10.997 19.7849 11.0365 19.8156 11.0808 19.8377C11.125 19.8599 11.1732 19.873 11.2226 19.8764C11.272 19.8799 11.3215 19.8735 11.3684 19.8576C11.4153 19.8418 11.4586 19.8169 11.4958 19.7842C11.533 19.7516 11.5634 19.7119 11.5852 19.6674C11.6664 19.5037 11.7917 19.3658 11.947 19.2694C12.1023 19.1729 12.2814 19.1217 12.4642 19.1215L13.7857 19.1181C13.7392 19.1469 13.6996 19.1856 13.6696 19.2313C13.4201 19.6133 12.9842 19.9325 12.4735 20.107C12.1396 20.2238 11.7848 20.2691 11.4323 20.2398C11.373 20.2343 11.3133 20.2429 11.2581 20.2649C11.2029 20.287 11.1537 20.3219 11.1146 20.3668C10.7742 20.7572 10.154 20.9996 9.49619 20.9996C8.83263 20.9996 8.2098 20.754 7.87075 20.3587C7.83712 20.3195 7.79574 20.2877 7.74923 20.2652C7.70271 20.2427 7.65205 20.2301 7.60042 20.2281C7.33255 20.2169 7.06805 20.1641 6.81634 20.0718C6.25338 19.8677 5.79381 19.4846 5.57383 19.064L6.94727 19.1092C7.19965 19.1158 7.43982 19.2192 7.61809 19.398L7.98466 19.7646C8.01933 19.8 8.0607 19.8283 8.10636 19.8476C8.15202 19.867 8.20107 19.8771 8.25067 19.8774C8.30026 19.8777 8.34942 19.8681 8.3953 19.8493C8.44118 19.8304 8.48286 19.8027 8.51794 19.7676C8.55301 19.7325 8.58078 19.6909 8.59964 19.645C8.6185 19.5991 8.62806 19.5499 8.62779 19.5003C8.62752 19.4507 8.61741 19.4017 8.59805 19.356C8.57869 19.3104 8.55046 19.269 8.515 19.2343L8.51477 19.2349ZM5.17666 14.693C5.17909 14.6922 5.18134 14.691 5.18374 14.6902C5.20539 14.6941 5.22735 14.6961 5.24936 14.6962H5.26192L6.96817 14.64C7.41219 14.6282 7.83469 14.4463 8.1483 14.1317L8.51486 13.7651C8.55032 13.7304 8.57855 13.6891 8.59791 13.6434C8.61727 13.5977 8.62738 13.5487 8.62765 13.4991C8.62792 13.4495 8.61835 13.4003 8.5995 13.3544C8.58064 13.3086 8.55287 13.2669 8.5178 13.2318C8.48272 13.1968 8.44104 13.169 8.39516 13.1501C8.34928 13.1313 8.30012 13.1217 8.25052 13.122C8.20093 13.1223 8.15188 13.1324 8.10622 13.1518C8.06056 13.1712 8.01919 13.1994 7.98452 13.2349L7.61795 13.6014C7.43919 13.7805 7.19831 13.884 6.9453 13.8903L5.57374 13.9355C5.79377 13.515 6.25342 13.1318 6.81625 12.9276C7.06795 12.8353 7.33246 12.7825 7.60033 12.7713C7.65195 12.7693 7.70261 12.7567 7.74913 12.7342C7.79565 12.7118 7.83702 12.6799 7.87066 12.6407C8.2098 12.2454 8.83263 11.9999 9.49619 11.9999C10.154 11.9999 10.7742 12.2424 11.1146 12.6327C11.1537 12.6775 11.2029 12.7123 11.2581 12.7344C11.3134 12.7565 11.373 12.7651 11.4323 12.7596C11.7848 12.7304 12.1396 12.7757 12.4735 12.8925C12.9842 13.067 13.4201 13.3862 13.6696 13.7682C13.6996 13.8139 13.7392 13.8525 13.7857 13.8814L12.4647 13.878C12.2818 13.8778 12.1026 13.8266 11.9473 13.7302C11.7919 13.6337 11.6665 13.4958 11.5852 13.332C11.5402 13.2439 11.4623 13.1771 11.3683 13.1461C11.2743 13.1152 11.1719 13.1227 11.0834 13.167C10.9949 13.2112 10.9274 13.2887 10.8958 13.3824C10.8641 13.4762 10.8708 13.5786 10.9144 13.6675C11.0575 13.9558 11.2782 14.1984 11.5516 14.3681C11.8251 14.5378 12.1405 14.6278 12.4623 14.628L14.8035 14.6339C14.9328 14.8612 15.0005 15.1183 14.9997 15.3798C14.999 15.6412 14.93 15.898 14.7994 16.1245L4.12478 16.1249C4.12364 15.8051 4.22523 15.4933 4.41459 15.2355C4.60396 14.9777 4.87109 14.7875 5.17666 14.693ZM9.74978 22.5C8.06017 22.5 6.50983 22.0737 5.26633 21.2672C4.01561 20.4562 3.16727 19.3125 2.81294 17.9599C2.70684 17.5537 2.5004 17.1806 2.21256 16.8749H3.37478C3.37323 17.3143 3.50097 17.7444 3.74209 18.1117C3.98322 18.479 4.32707 18.7673 4.73083 18.9405C4.91392 19.7267 5.60852 20.4322 6.56078 20.7773C6.8355 20.8776 7.12209 20.9416 7.41335 20.9679C7.90689 21.4602 8.67189 21.75 9.49619 21.75C10.302 21.75 11.0535 21.4719 11.5477 20.9982C11.9448 21.0081 12.3405 20.9468 12.716 20.8172C13.3413 20.6035 13.8688 20.2301 14.2168 19.7581C14.4996 19.6628 14.7606 19.5122 14.9847 19.3152C15.2088 19.1182 15.3915 18.8786 15.5222 18.6103C15.6529 18.3421 15.7291 18.0505 15.7461 17.7526C15.7632 17.4547 15.721 17.1564 15.6218 16.8749H15.9998C16.2569 17.0818 16.4406 17.366 16.5235 17.6854C16.6063 18.0048 16.5841 18.3424 16.4599 18.6482C15.5092 21.0241 12.938 22.5 9.74978 22.5ZM22.274 13.2112C21.5911 16.278 19.6389 18.4472 17.1652 18.9034C17.2636 18.6509 17.3168 18.383 17.3225 18.1121L18.1938 17.1046C18.4052 16.86 18.6037 16.6044 18.7884 16.339C18.8447 16.2574 18.8663 16.1568 18.8485 16.0592C18.8308 15.9616 18.7751 15.8751 18.6937 15.8185C18.6123 15.7618 18.5118 15.7398 18.4141 15.7571C18.3165 15.7744 18.2297 15.8296 18.1727 15.9108C18.003 16.1545 17.8207 16.3892 17.6265 16.6139L17.1412 17.1749C17.0348 16.9253 16.8846 16.6967 16.6978 16.4999C16.9991 16.1821 17.2025 15.7842 17.2838 15.3539C17.3651 14.9235 17.3208 14.4789 17.1563 14.073C16.9993 13.6816 16.8021 13.3075 16.5679 12.9568L17.2638 9.83136C17.2749 9.78315 17.2764 9.73322 17.2681 9.68445C17.2598 9.63568 17.242 9.58903 17.2156 9.54719C17.1892 9.50534 17.1548 9.46914 17.1143 9.44065C17.0739 9.41217 17.0282 9.39197 16.9799 9.38121C16.9316 9.37046 16.8817 9.36936 16.833 9.37799C16.7843 9.38662 16.7378 9.40481 16.6961 9.43149C16.6544 9.45818 16.6185 9.49285 16.5903 9.53349C16.5621 9.57414 16.5422 9.61996 16.5318 9.66832L15.9693 12.1949C15.2297 11.3891 14.2708 10.7584 13.1552 10.3396C13.3759 9.67562 13.6782 9.04158 14.0552 8.45204C14.0817 8.41055 14.0998 8.36424 14.1084 8.31576C14.1171 8.26727 14.1161 8.21755 14.1055 8.16945C14.0949 8.12135 14.075 8.0758 14.0468 8.0354C14.0186 7.99501 13.9828 7.96056 13.9413 7.93402C13.8998 7.90748 13.8535 7.88938 13.805 7.88074C13.7565 7.8721 13.7068 7.87309 13.6587 7.88367C13.6106 7.89424 13.5651 7.91418 13.5247 7.94236C13.4843 7.97054 13.4498 8.00639 13.4233 8.04788C13.0123 8.69097 12.6828 9.38264 12.4423 10.107C11.8972 9.9557 11.3398 9.85281 10.7766 9.79953C11.7053 6.85368 13.9147 4.91467 16.5005 4.81867C17.1204 4.79722 17.7099 4.5451 18.1536 4.1117C18.3715 4.69244 18.7984 5.17092 19.3506 5.45341C20.5937 6.09322 21.5256 7.1699 22.0455 8.56708C22.5622 9.95609 22.6413 11.562 22.274 13.2112Z" fill="currentColor"/>
<path d="M17.7309 6.00896C17.6339 5.98735 17.5322 6.00519 17.4483 6.05855C17.3643 6.11191 17.3051 6.19642 17.2834 6.29349L16.8659 8.1685C16.8548 8.2167 16.8533 8.26663 16.8616 8.3154C16.8699 8.36417 16.8878 8.41082 16.9141 8.45266C16.9405 8.4945 16.9749 8.53071 17.0154 8.5592C17.0558 8.58768 17.1015 8.60788 17.1498 8.61864C17.1981 8.62939 17.248 8.63048 17.2967 8.62185C17.3454 8.61322 17.392 8.59504 17.4336 8.56835C17.4753 8.54167 17.5112 8.507 17.5394 8.46636C17.5676 8.42571 17.5875 8.37989 17.5979 8.33153L18.0155 6.45652C18.0262 6.40845 18.0273 6.35875 18.0188 6.31024C18.0103 6.26173 17.9923 6.21537 17.9659 6.17381C17.9395 6.13225 17.9051 6.0963 17.8648 6.06802C17.8245 6.03973 17.779 6.01966 17.7309 6.00896Z" fill="currentColor"/>
<path d="M15.901 5.34915L14.9307 6.24634C14.7156 6.44523 14.5077 6.65668 14.313 6.87474C14.2799 6.91143 14.2544 6.9543 14.238 7.00087C14.2215 7.04744 14.2144 7.0968 14.2171 7.14612C14.2198 7.19543 14.2322 7.24374 14.2536 7.28825C14.275 7.33277 14.305 7.37262 14.3418 7.40551C14.3786 7.43841 14.4216 7.4637 14.4683 7.47994C14.5149 7.49617 14.5643 7.50304 14.6136 7.50013C14.6629 7.49723 14.7112 7.48461 14.7556 7.46301C14.8 7.4414 14.8397 7.41124 14.8724 7.37424C15.0513 7.17399 15.2422 6.97974 15.4396 6.79702L16.4099 5.89984C16.4466 5.86655 16.4764 5.82632 16.4974 5.78147C16.5185 5.73663 16.5305 5.68805 16.5326 5.63855C16.5348 5.58906 16.5272 5.53962 16.5101 5.49309C16.4931 5.44657 16.467 5.40388 16.4334 5.3675C16.3997 5.33112 16.3592 5.30177 16.3142 5.28113C16.2691 5.2605 16.2204 5.249 16.1709 5.24729C16.1214 5.24559 16.072 5.25371 16.0257 5.27119C15.9793 5.28867 15.9369 5.31517 15.9008 5.34915H15.901Z" fill="currentColor"/>
<path d="M20.0629 11.7326C20.0142 11.7254 19.9646 11.7278 19.9168 11.7397C19.869 11.7516 19.824 11.7729 19.7845 11.8022C19.7449 11.8315 19.7115 11.8683 19.6861 11.9106C19.6608 11.9528 19.644 11.9996 19.6368 12.0483L19.5957 12.3243C19.4639 13.2111 19.1917 14.0712 18.7895 14.8725C18.7666 14.9166 18.7528 14.9648 18.7487 15.0143C18.7446 15.0637 18.7504 15.1135 18.7658 15.1608C18.7811 15.208 18.8056 15.2517 18.838 15.2894C18.8704 15.3271 18.9099 15.3579 18.9543 15.3802C18.9987 15.4025 19.047 15.4157 19.0966 15.4191C19.1461 15.4225 19.1958 15.4161 19.2429 15.4001C19.2899 15.3842 19.3333 15.3591 19.3705 15.3262C19.4078 15.2934 19.4381 15.2534 19.4598 15.2088C19.8977 14.3365 20.1939 13.4001 20.3374 12.4347L20.3785 12.1588C20.3932 12.0604 20.3682 11.9603 20.309 11.8803C20.2498 11.8004 20.1613 11.7473 20.0629 11.7326Z" fill="currentColor"/>
<path d="M20.3579 9.31345C20.3366 9.18314 20.3121 9.05175 20.2852 8.92289C20.2753 8.87453 20.256 8.82859 20.2283 8.78772C20.2006 8.74685 20.1651 8.71185 20.1239 8.68473C20.0826 8.6576 20.0364 8.63889 19.988 8.62966C19.9395 8.62043 19.8896 8.62087 19.8413 8.63094C19.793 8.64102 19.7471 8.66054 19.7063 8.68838C19.6656 8.71622 19.6307 8.75184 19.6037 8.79319C19.5768 8.83454 19.5582 8.8808 19.5492 8.92933C19.5402 8.97786 19.5408 9.0277 19.551 9.07599C19.5757 9.1943 19.5982 9.31505 19.6178 9.43481C19.6761 9.79127 19.7116 10.1511 19.724 10.5121C19.7274 10.6092 19.7683 10.7012 19.8382 10.7688C19.908 10.8363 20.0014 10.8741 20.0986 10.8742H20.1117C20.2111 10.8708 20.305 10.828 20.3729 10.7553C20.4408 10.6827 20.477 10.586 20.4736 10.4866C20.46 10.0936 20.4214 9.7019 20.3579 9.31383L20.3579 9.31345Z" fill="currentColor"/>
<path d="M19.2514 7.9994C19.2677 8.04587 19.293 8.08868 19.3258 8.12537C19.3587 8.16207 19.3985 8.19193 19.4429 8.21326C19.4873 8.23459 19.5354 8.24697 19.5846 8.24968C19.6338 8.25239 19.683 8.2454 19.7295 8.22908C19.776 8.21277 19.8188 8.18746 19.8555 8.15461C19.8922 8.12175 19.922 8.08199 19.9434 8.03759C19.9647 7.99319 19.9771 7.94503 19.9798 7.89585C19.9825 7.84667 19.9755 7.79743 19.9592 7.75096C19.9099 7.61033 19.8564 7.46971 19.8002 7.33133L19.3537 6.23385C19.3159 6.14223 19.2433 6.06931 19.1519 6.03103C19.0604 5.99276 18.9576 5.99225 18.8657 6.0296C18.7739 6.06696 18.7006 6.13915 18.6619 6.23039C18.6232 6.32163 18.6221 6.4245 18.659 6.5165L19.1055 7.61399C19.1568 7.74088 19.2059 7.87049 19.2514 7.9994Z" fill="currentColor"/>
<path d="M8.51494 15.6402L8.73464 15.4205C9.00388 15.1513 9.36904 15 9.74979 15C10.1305 15 10.4957 15.1513 10.7649 15.4205L10.9846 15.6402C11.0194 15.675 11.0608 15.7026 11.1063 15.7214C11.1518 15.7403 11.2005 15.75 11.2498 15.75C11.299 15.75 11.3478 15.7403 11.3933 15.7214C11.4388 15.7026 11.4801 15.675 11.5149 15.6402C11.5498 15.6053 11.5774 15.564 11.5962 15.5185C11.6151 15.473 11.6248 15.4242 11.6248 15.375C11.6248 15.3257 11.6151 15.277 11.5962 15.2315C11.5774 15.186 11.5498 15.1446 11.5149 15.1098L11.2953 14.8902C10.8854 14.4803 10.3295 14.25 9.74979 14.25C9.17012 14.25 8.61419 14.4803 8.2043 14.8902L7.98459 15.1099C7.91427 15.1802 7.87476 15.2756 7.87476 15.375C7.87476 15.4745 7.91427 15.5699 7.98459 15.6402C8.05492 15.7105 8.15031 15.75 8.24977 15.75C8.34922 15.75 8.44461 15.7105 8.51494 15.6402Z" fill="currentColor"/>
<path d="M11.2952 18.1099L11.5149 17.8902C11.5498 17.8554 11.5774 17.814 11.5962 17.7685C11.6151 17.723 11.6248 17.6743 11.6248 17.625C11.6248 17.5758 11.6151 17.527 11.5962 17.4815C11.5774 17.436 11.5498 17.3947 11.5149 17.3598C11.4801 17.325 11.4388 17.2974 11.3933 17.2785C11.3478 17.2597 11.299 17.25 11.2498 17.25C11.2005 17.25 11.1518 17.2597 11.1063 17.2785C11.0608 17.2974 11.0194 17.325 10.9846 17.3598L10.7649 17.5795C10.4957 17.8488 10.1305 18 9.74974 18C9.36899 18 9.00383 17.8488 8.73459 17.5795L8.51494 17.3599C8.44461 17.2896 8.34922 17.25 8.24977 17.25C8.15031 17.25 8.05492 17.2896 7.98459 17.3599C7.91427 17.4302 7.87476 17.5256 7.87476 17.6251C7.87476 17.7245 7.91427 17.8199 7.98459 17.8902L8.20425 18.1099C8.61414 18.5198 9.17007 18.75 9.74974 18.75C10.3294 18.75 10.8853 18.5198 11.2952 18.1099Z" fill="currentColor"/>
</g>
<defs>
<clipPath id="clip0_691_3594">
<rect width="24" height="24" fill="white"/>
</clipPath>
</defs>
</svg>
